<svg xmlns="http://www.w3.org/2000/svg" id="Document-Icon" width="21.873" height="26" viewBox="0 0 21.873 26">
    <defs>
        <style>
            .cls-1{fill:#fff}
        </style>
    </defs>
    <path id="Shape" d="M19.866 26H6.547a1.99 1.99 0 0 1-2.007-1.967v-.922H2.087A2.066 2.066 0 0 1 0 21.071V2.04A2.066 2.066 0 0 1 2.087 0h13.984a2.066 2.066 0 0 1 2.087 2.04v1.693h.026a.249.249 0 0 1 .069-.013h1.612a1.99 1.99 0 0 1 2.007 1.967v18.346A1.99 1.99 0 0 1 19.866 26zm-14.5-2.889v.922a1.164 1.164 0 0 0 1.183 1.142h13.317a1.164 1.164 0 0 0 1.182-1.142V5.682a1.164 1.164 0 0 0-1.182-1.142h-1.612a.261.261 0 0 1-.069-.012l-.026-.007v16.55a2.066 2.066 0 0 1-2.087 2.04zM2.087.825A1.24 1.24 0 0 0 .825 2.04v19.031a1.24 1.24 0 0 0 1.262 1.215h13.984a1.24 1.24 0 0 0 1.262-1.215V2.04A1.24 1.24 0 0 0 16.071.825z" class="cls-1"/>
    <path id="Shape-2" d="M9.492 0H.413a.413.413 0 1 0 0 .825h9.079a.413.413 0 1 0 0-.825z" class="cls-1" data-name="Shape" transform="translate(4.127 5.365)"/>
    <path id="Shape-3" d="M9.492 0H.413a.413.413 0 1 0 0 .825h9.079a.413.413 0 1 0 0-.825z" class="cls-1" data-name="Shape" transform="translate(4.127 8.667)"/>
    <path id="Shape-4" d="M9.492 0H.413a.413.413 0 1 0 0 .825h9.079a.413.413 0 0 0 0-.825z" class="cls-1" data-name="Shape" transform="translate(4.127 11.968)"/>
    <path id="Shape-5" d="M5.365 0H.413a.413.413 0 1 0 0 .825h4.952a.413.413 0 0 0 0-.825z" class="cls-1" data-name="Shape" transform="translate(4.127 15.27)"/>
</svg>
