<?xml version="1.0" encoding="UTF-8" standalone="no"?>
<svg
   xmlns:dc="http://purl.org/dc/elements/1.1/"
   xmlns:cc="http://creativecommons.org/ns#"
   xmlns:rdf="http://www.w3.org/1999/02/22-rdf-syntax-ns#"
   xmlns:svg="http://www.w3.org/2000/svg"
   xmlns="http://www.w3.org/2000/svg"
   xmlns:sodipodi="http://sodipodi.sourceforge.net/DTD/sodipodi-0.dtd"
   xmlns:inkscape="http://www.inkscape.org/namespaces/inkscape"
   id="Layer_1"
   enable-background="new 0 0 60 60"
   height="26"
   viewBox="0 0 3.046875 3.046875"
   width="26"
   version="1.1"
   sodipodi:docname="modules-icon.svg"
   inkscape:version="0.92.4 (5da689c313, 2019-01-14)">
  <metadata
     id="metadata3871">
    <rdf:RDF>
      <cc:Work
         rdf:about="">
        <dc:format>image/svg+xml</dc:format>
        <dc:type
           rdf:resource="http://purl.org/dc/dcmitype/StillImage" />
        <dc:title></dc:title>
      </cc:Work>
    </rdf:RDF>
  </metadata>
  <defs
     id="defs3869" />
  <sodipodi:namedview
     pagecolor="#ffffff"
     bordercolor="#666666"
     borderopacity="1"
     objecttolerance="10"
     gridtolerance="10"
     guidetolerance="10"
     inkscape:pageopacity="0"
     inkscape:pageshadow="2"
     inkscape:window-width="1920"
     inkscape:window-height="1058"
     id="namedview3867"
     showgrid="false"
     inkscape:zoom="34.192308"
     inkscape:cx="13"
     inkscape:cy="13"
     inkscape:window-x="-8"
     inkscape:window-y="-8"
     inkscape:window-maximized="1"
     inkscape:current-layer="Layer_1" />
  <path
     d="M 0.25390625,1.7773437 C 0.11390234,1.7773437 0,1.6634414 0,1.5234375 0,1.3834336 0.11390234,1.2695312 0.25390625,1.2695312 c 0.14000391,0 0.25390625,0.1139024 0.25390625,0.2539063 0,0.1400039 -0.11390234,0.2539062 -0.25390625,0.2539062 z m 0,-0.40625 c -0.0839922,0 -0.15234375,0.068352 -0.15234375,0.1523438 0,0.083992 0.0683516,0.1523437 0.15234375,0.1523437 0.0839922,0 0.15234375,-0.068352 0.15234375,-0.1523437 0,-0.083992 -0.0683516,-0.1523438 -0.15234375,-0.1523438 z"
     id="path3816"
     inkscape:connector-curvature="0"
     style="stroke-width:0.05078125;fill:#ffffff" />
  <path
     d="m 2.7929688,1.7773437 c -0.140004,0 -0.2539063,-0.1139023 -0.2539063,-0.2539062 0,-0.1400039 0.1139023,-0.2539063 0.2539063,-0.2539063 0.1400039,0 0.2539062,0.1139024 0.2539062,0.2539063 0,0.1400039 -0.1139023,0.2539062 -0.2539062,0.2539062 z m 0,-0.40625 c -0.083992,0 -0.1523438,0.068352 -0.1523438,0.1523438 0,0.083992 0.068352,0.1523437 0.1523438,0.1523437 0.083992,0 0.1523437,-0.068352 0.1523437,-0.1523437 0,-0.083992 -0.068352,-0.1523438 -0.1523437,-0.1523438 z"
     id="path3818"
     inkscape:connector-curvature="0"
     style="stroke-width:0.05078125;fill:#ffffff" />
  <path
     d="m 1.5234375,3.046875 c -0.1400039,0 -0.2539063,-0.1139023 -0.2539063,-0.2539062 0,-0.140004 0.1139024,-0.2539063 0.2539063,-0.2539063 0.1400039,0 0.2539062,0.1139023 0.2539062,0.2539063 0,0.1400039 -0.1139023,0.2539062 -0.2539062,0.2539062 z m 0,-0.40625 c -0.083992,0 -0.1523438,0.068352 -0.1523438,0.1523438 0,0.083992 0.068352,0.1523437 0.1523438,0.1523437 0.083992,0 0.1523437,-0.068352 0.1523437,-0.1523437 0,-0.083992 -0.068352,-0.1523438 -0.1523437,-0.1523438 z"
     id="path3820"
     inkscape:connector-curvature="0"
     style="stroke-width:0.05078125;fill:#ffffff" />
  <path
     d="m 1.5234375,0.5078125 c -0.1400039,0 -0.2539063,-0.11390234 -0.2539063,-0.25390625 C 1.2695312,0.11390234 1.3834336,0 1.5234375,0 c 0.1400039,0 0.2539062,0.11390234 0.2539062,0.25390625 0,0.14000391 -0.1139023,0.25390625 -0.2539062,0.25390625 z m 0,-0.40625 c -0.083992,0 -0.1523438,0.0683516 -0.1523438,0.15234375 0,0.0839922 0.068352,0.15234375 0.1523438,0.15234375 0.083992,0 0.1523437,-0.0683516 0.1523437,-0.15234375 0,-0.0839922 -0.068352,-0.15234375 -0.1523437,-0.15234375 z"
     id="path3822"
     inkscape:connector-curvature="0"
     style="stroke-width:0.05078125;fill:#ffffff" />
  <path
     d="m 2.7767695,1.3727187 c -0.024477,0 -0.046109,-0.017824 -0.05007,-0.042809 -0.015437,-0.096484 -0.042453,-0.1909375 -0.080387,-0.2806172 -0.010918,-0.025848 0.00112,-0.0556563 0.026965,-0.0665743 0.025898,-0.0109687 0.055656,0.001117 0.066574,0.0269649 0.041133,0.097246 0.070484,0.1996211 0.087141,0.3042305 0.00442,0.027676 -0.014422,0.053727 -0.042148,0.058144 -0.00269,4.57e-4 -0.00538,6.601e-4 -0.00807,6.601e-4 z"
     id="path3824"
     inkscape:connector-curvature="0"
     style="stroke-width:0.05078125;fill:#ffffff" />
  <path
     d="m 2.5286523,0.79894141 c -0.015184,0 -0.030215,-0.006805 -0.040219,-0.0197539 C 2.4245503,0.69646481 2.350156,0.62207032 2.267281,0.55808595 2.24509,0.54097265 2.240976,0.50908205 2.258141,0.48689065 c 0.017164,-0.0221914 0.049055,-0.0262539 0.071246,-0.009141 0.08973,0.0692656 0.1702695,0.14980469 0.2394336,0.23938281 0.017113,0.0222422 0.013051,0.054082 -0.00914,0.0711953 -0.00929,0.00716 -0.02016,0.0106133 -0.031027,0.0106133 z"
     id="path3826"
     inkscape:connector-curvature="0"
     style="stroke-width:0.05078125;fill:#ffffff" />
  <path
     d="m 2.0173359,0.40457422 c -0.0066,0 -0.013305,-0.00127 -0.019754,-0.004012 -0.08968,-0.0379336 -0.1841328,-0.065 -0.2806679,-0.0804375 -0.027676,-0.004418 -0.046566,-0.0304687 -0.042149,-0.0581953 0.00442,-0.0276758 0.03052,-0.0466172 0.058145,-0.0420977 0.1046601,0.016707 0.2069843,0.0460586 0.3042304,0.0871914 0.025848,0.010918 0.037934,0.0407266 0.026965,0.0665742 -0.00818,0.0193476 -0.026965,0.0309766 -0.046769,0.0309769 z"
     id="path3828"
     inkscape:connector-curvature="0"
     style="stroke-width:0.05078125;fill:#ffffff" />
  <path
     d="m 1.7248867,2.8277031 c -0.024527,0 -0.046109,-0.017824 -0.05007,-0.042758 -0.00442,-0.027727 0.014422,-0.053777 0.042148,-0.058195 0.096535,-0.015437 0.1909883,-0.042504 0.280668,-0.080437 0.025899,-0.010867 0.055656,0.00107 0.066574,0.026965 0.010918,0.025848 -0.00112,0.055656 -0.026965,0.066574 -0.097246,0.041133 -0.1995703,0.070484 -0.3042305,0.087191 -0.00279,4.57e-4 -0.00548,6.601e-4 -0.00812,6.601e-4 z"
     id="path3830"
     inkscape:connector-curvature="0"
     style="stroke-width:0.05078125;fill:#ffffff" />
  <path
     d="m 2.2987148,2.5794336 c -0.015184,0 -0.030215,-0.0068 -0.040219,-0.019754 -0.017113,-0.022242 -0.013051,-0.054082 0.00914,-0.071195 0.082773,-0.063934 0.157168,-0.1383789 0.2211016,-0.2212031 0.017062,-0.022242 0.048953,-0.026254 0.071195,-0.00919 0.022242,0.017164 0.026305,0.049055 0.00919,0.071246 -0.069215,0.089731 -0.1497539,0.1703204 -0.2393828,0.2394844 -0.00924,0.00716 -0.02016,0.010613 -0.031027,0.010613 z"
     id="path3832"
     inkscape:connector-curvature="0"
     style="stroke-width:0.05078125;fill:#ffffff" />
  <path
     d="m 2.6930312,2.068168 c -0.0066,0 -0.013305,-0.00127 -0.019754,-0.00401 -0.025848,-0.010918 -0.037934,-0.040727 -0.026965,-0.066574 0.037934,-0.08973 0.065,-0.1841328 0.080387,-0.2806172 0.00437,-0.027726 0.03052,-0.046668 0.058145,-0.042148 0.027676,0.00442 0.046566,0.030469 0.042148,0.058144 -0.016707,0.1046602 -0.046008,0.2069844 -0.087141,0.3042305 -0.00818,0.019348 -0.027016,0.030977 -0.04682,0.030977 z"
     id="path3834"
     inkscape:connector-curvature="0"
     style="stroke-width:0.05078125;fill:#ffffff" />
  <path
     d="m 0.35379297,2.068168 c -0.0198047,0 -0.0385937,-0.011629 -0.0467695,-0.030977 -0.0411328,-0.097246 -0.0704844,-0.1996211 -0.0871406,-0.3042305 -0.004418,-0.027676 0.0144219,-0.053727 0.0421484,-0.058144 0.0274219,-0.00452 0.0537773,0.014422 0.0581445,0.042148 0.0154375,0.096484 0.0424531,0.1909375 0.0803867,0.2806172 0.010918,0.025848 -0.001117,0.055656 -0.0269648,0.066574 -0.0065,0.00269 -0.0132031,0.00401 -0.0198047,0.00401 z"
     id="path3836"
     inkscape:connector-curvature="0"
     style="stroke-width:0.05078125;fill:#ffffff" />
  <path
     d="m 0.74851562,2.5797383 c -0.0108672,0 -0.0217852,-0.00345 -0.0310273,-0.010613 -0.0897305,-0.069266 -0.17026957,-0.149805 -0.23943363,-0.2393831 -0.0171133,-0.022242 -0.0130508,-0.054082 0.009141,-0.071195 0.0221914,-0.017164 0.0540313,-0.013102 0.0712461,0.00914 0.0638828,0.082723 0.13827734,0.1571172 0.22115234,0.2211016 0.0221914,0.017113 0.0263047,0.049004 0.009141,0.071195 -0.0100039,0.012949 -0.0250352,0.019754 -0.0402191,0.019755 z"
     id="path3838"
     inkscape:connector-curvature="0"
     style="stroke-width:0.05078125;fill:#ffffff" />
  <path
     d="m 1.3219883,2.8277031 c -0.00264,0 -0.00533,-2.031e-4 -0.00807,-6.601e-4 C 1.2092539,2.8103359 1.1069297,2.7809844 1.0096836,2.7398516 0.98383594,2.7289336 0.97175,2.699125 0.98271875,2.6732773 c 0.010918,-0.025898 0.0406758,-0.037832 0.0665743,-0.026965 0.08968,0.037934 0.1841328,0.065 0.2806679,0.080437 0.027676,0.00442 0.046566,0.030469 0.042149,0.058195 -0.00401,0.024934 -0.025594,0.042758 -0.050121,0.042758 z"
     id="path3840"
     inkscape:connector-curvature="0"
     style="stroke-width:0.05078125;fill:#ffffff" />
  <path
     d="m 1.0295391,0.40457422 c -0.019805,0 -0.0385938,-0.0116289 -0.0467696,-0.0309766 -0.010918,-0.0258477 0.001117,-0.0556563 0.0269649,-0.0665742 0.097246,-0.0411328 0.1995703,-0.0704844 0.3042304,-0.0871914 0.027676,-0.00452 0.053727,0.0144727 0.058145,0.0420977 0.00442,0.0277266 -0.014422,0.0537773 -0.042149,0.0581953 -0.096535,0.0154375 -0.1909882,0.0425039 -0.2806679,0.0804375 -0.0065,0.002691 -0.013152,0.004012 -0.019754,0.004012 z"
     id="path3842"
     inkscape:connector-curvature="0"
     style="stroke-width:0.05078125;fill:#ffffff" />
  <path
     d="m 0.51791797,0.79934766 c -0.0108164,0 -0.0217344,-0.003453 -0.0309766,-0.0105625 -0.0222422,-0.0171641 -0.0263047,-0.0490547 -0.009191,-0.0712461 0.0692148,-0.0897305 0.14975391,-0.17032031 0.23938281,-0.23948437 0.0221914,-0.0171133 0.0540313,-0.0131016 0.0712461,0.009141 0.0171133,0.0222422 0.0130508,0.054082 -0.009141,0.0711953 -0.0827734,0.0639336 -0.15716797,0.13837891 -0.22110156,0.22120313 -0.0100039,0.0129492 -0.0250352,0.0197539 -0.0402188,0.0197535 z"
     id="path3844"
     inkscape:connector-curvature="0"
     style="stroke-width:0.05078125;fill:#ffffff" />
  <path
     d="m 0.27005469,1.3727187 c -0.002691,0 -0.005332,-2.031e-4 -0.008074,-6.601e-4 -0.0276758,-0.00442 -0.0465664,-0.030469 -0.0421484,-0.058144 0.016707,-0.1046602 0.0460078,-0.2069844 0.0871406,-0.3042305 0.010918,-0.0258477 0.0406758,-0.0379336 0.0665742,-0.0269649 0.0258477,0.010918 0.0379336,0.0407265 0.0269648,0.0665743 -0.0379336,0.08973 -0.065,0.1841328 -0.0803867,0.2806172 -0.003961,0.025035 -0.025543,0.042809 -0.0500703,0.042809 z"
     id="path3846"
     inkscape:connector-curvature="0"
     style="stroke-width:0.05078125;fill:#ffffff" />
  <path
     d="m 1.1171875,1.7265625 c -0.00777,0 -0.015539,-0.00178 -0.022699,-0.00533 L 0.68823828,1.5181055 c -0.0172148,-0.00863 -0.028082,-0.026203 -0.028082,-0.045449 v -0.40625 c 0,-0.017621 0.009141,-0.033922 0.0240703,-0.043215 0.0149805,-0.00934 0.0337187,-0.010055 0.0494102,-0.00223 L 1.1398867,1.224082 c 0.017215,0.00863 0.028082,0.026203 0.028082,0.045449 v 0.40625 c 0,0.017621 -0.00914,0.033922 -0.02407,0.043215 -0.00818,0.00503 -0.017469,0.00757 -0.026711,0.00757 z M 0.76171875,1.4412734 1.0664062,1.5936172 V 1.3009141 L 0.76171875,1.1485703 Z"
     id="path3848"
     inkscape:connector-curvature="0"
     style="stroke-width:0.05078125;fill:#ffffff" />
  <path
     d="m 1.1171875,1.7265625 c -0.00929,0 -0.018535,-0.00254 -0.026711,-0.00757 -0.01493,-0.00929 -0.02407,-0.025594 -0.02407,-0.043215 v -0.40625 c 0,-0.019246 0.010867,-0.036816 0.028082,-0.045449 l 0.40625,-0.203125 c 0.015742,-0.00782 0.03443,-0.00711 0.04941,0.00223 0.01493,0.00929 0.02407,0.025594 0.02407,0.043215 v 0.40625 c 0,0.019246 -0.010867,0.036816 -0.028082,0.045449 l -0.40625,0.203125 c -0.00716,0.00355 -0.01493,0.00533 -0.022699,0.00533 z M 1.1679687,1.3009141 V 1.5936172 L 1.4726562,1.4412734 V 1.1485703 Z"
     id="path3850"
     inkscape:connector-curvature="0"
     style="stroke-width:0.05078125;fill:#ffffff" />
  <path
     d="m 1.1171875,1.3203125 c -0.00777,0 -0.01559,-0.00178 -0.022699,-0.00533 L 0.68823828,1.1118555 c -0.0172148,-0.00863 -0.028082,-0.026203 -0.028082,-0.045449 0,-0.019246 0.0108672,-0.036816 0.028082,-0.045449 L 1.0944883,0.81783203 c 0.014269,-0.00716 0.031129,-0.00716 0.045449,0 l 0.40625,0.20312497 c 0.017215,0.00863 0.028082,0.026203 0.028082,0.045449 0,0.019246 -0.010867,0.036816 -0.028082,0.045449 l -0.40625,0.203125 c -0.00721,0.00355 -0.014981,0.00533 -0.02275,0.00533 z M 0.82448437,1.0664062 1.1171875,1.2127578 1.4098906,1.0664062 1.1171875,0.92005469 Z"
     id="path3852"
     inkscape:connector-curvature="0"
     style="stroke-width:0.05078125;fill:#ffffff" />
  <path
     d="m 1.9296875,1.7265625 c -0.00777,0 -0.015539,-0.00178 -0.022699,-0.00533 l -0.40625,-0.203125 c -0.017215,-0.00863 -0.028082,-0.026203 -0.028082,-0.045449 v -0.40625 c 0,-0.017621 0.00914,-0.033922 0.02407,-0.043215 0.01498,-0.00934 0.033719,-0.010055 0.04941,-0.00223 l 0.40625,0.203125 c 0.017215,0.00863 0.028082,0.026203 0.028082,0.045449 v 0.40625 c 0,0.017621 -0.00914,0.033922 -0.02407,0.043215 -0.00818,0.00503 -0.017469,0.00757 -0.026711,0.00757 z M 1.5742187,1.4412734 1.8789062,1.5936172 V 1.3009141 L 1.5742187,1.1485703 Z"
     id="path3854"
     inkscape:connector-curvature="0"
     style="stroke-width:0.05078125;fill:#ffffff" />
  <path
     d="m 1.9296875,1.7265625 c -0.00929,0 -0.018535,-0.00254 -0.026711,-0.00757 -0.01493,-0.00929 -0.02407,-0.025594 -0.02407,-0.043215 v -0.40625 c 0,-0.019246 0.010867,-0.036816 0.028082,-0.045449 l 0.40625,-0.203125 c 0.015742,-0.00782 0.03443,-0.00711 0.04941,0.00223 0.01493,0.00929 0.02407,0.025594 0.02407,0.043215 v 0.40625 c 0,0.019246 -0.010867,0.036816 -0.028082,0.045449 l -0.40625,0.203125 c -0.00716,0.00355 -0.01493,0.00533 -0.022699,0.00533 z M 1.9804687,1.3009141 V 1.5936172 L 2.2851563,1.4412734 V 1.1485703 Z"
     id="path3856"
     inkscape:connector-curvature="0"
     style="stroke-width:0.05078125;fill:#ffffff" />
  <path
     d="m 1.9296875,1.3203125 c -0.00777,0 -0.01559,-0.00178 -0.022699,-0.00533 l -0.40625,-0.203125 c -0.017215,-0.00863 -0.028082,-0.026203 -0.028082,-0.045449 0,-0.019246 0.010867,-0.036816 0.028082,-0.045449 l 0.40625,-0.20312497 c 0.014269,-0.00716 0.031129,-0.00716 0.045449,0 l 0.40625,0.20312497 c 0.017215,0.00863 0.028082,0.026203 0.028082,0.045449 0,0.019246 -0.010867,0.036816 -0.028082,0.045449 l -0.40625,0.203125 c -0.00721,0.00355 -0.014981,0.00533 -0.02275,0.00533 z M 1.6369844,1.0664062 1.9296875,1.2127578 2.2223906,1.0664062 1.9296875,0.92005469 Z"
     id="path3858"
     inkscape:connector-curvature="0"
     style="stroke-width:0.05078125;fill:#ffffff" />
  <path
     d="m 1.5234375,2.3359375 c -0.00777,0 -0.015539,-0.00178 -0.022699,-0.00533 l -0.40625,-0.203125 c -0.017215,-0.00863 -0.028082,-0.026203 -0.028082,-0.045449 V 1.6757812 c 0,-0.017621 0.00914,-0.033922 0.02407,-0.043215 0.01498,-0.00934 0.033668,-0.010055 0.04941,-0.00223 l 0.40625,0.203125 c 0.017215,0.00863 0.028082,0.026203 0.028082,0.045449 v 0.4062501 c 0,0.017621 -0.00914,0.033922 -0.02407,0.043215 -0.00818,0.00503 -0.017469,0.00757 -0.026711,0.00757 z M 1.1679687,2.0506484 1.4726562,2.2029922 V 1.9102891 L 1.1679687,1.7579453 Z"
     id="path3860"
     inkscape:connector-curvature="0"
     style="stroke-width:0.05078125;fill:#ffffff" />
  <path
     d="m 1.5234375,2.3359375 c -0.00929,0 -0.018535,-0.00254 -0.026711,-0.00757 -0.01493,-0.00929 -0.02407,-0.025594 -0.02407,-0.043215 V 1.8789062 c 0,-0.019246 0.010867,-0.036816 0.028082,-0.045449 l 0.40625,-0.203125 c 0.015742,-0.00782 0.03443,-0.00711 0.04941,0.00223 0.01493,0.00929 0.02407,0.025594 0.02407,0.043215 v 0.4062501 c 0,0.019246 -0.010867,0.036816 -0.028082,0.045449 l -0.40625,0.203125 c -0.00716,0.00355 -0.01493,0.00533 -0.022699,0.00533 z M 1.5742187,1.9102891 V 2.2029922 L 1.8789062,2.0506484 V 1.7579453 Z"
     id="path3862"
     inkscape:connector-curvature="0"
     style="stroke-width:0.05078125;fill:#ffffff" />
  <path
     d="m 1.5234375,1.9296875 c -0.00777,0 -0.01559,-0.00178 -0.022699,-0.00533 l -0.40625,-0.203125 c -0.017215,-0.00863 -0.028082,-0.026203 -0.028082,-0.045449 0,-0.019246 0.010867,-0.036816 0.028082,-0.045449 l 0.40625,-0.203125 c 0.014269,-0.00716 0.031129,-0.00716 0.045449,0 l 0.40625,0.203125 c 0.017215,0.00863 0.028082,0.026203 0.028082,0.045449 0,0.019246 -0.010867,0.036816 -0.028082,0.045449 l -0.40625,0.203125 c -0.00721,0.00355 -0.014981,0.00533 -0.02275,0.00533 z M 1.2307344,1.6757812 1.5234375,1.8221328 1.8161406,1.6757812 1.5234375,1.5294297 Z"
     id="path3864"
     inkscape:connector-curvature="0"
     style="stroke-width:0.05078125;fill:#ffffff" />
</svg>
