<svg xmlns="http://www.w3.org/2000/svg" width="13.847" height="18.003" viewBox="0 0 13.847 18.003">
    <g>
        <path fill="#687c97" d="M6.921 18a3 3 0 0 1-2.83-2H2.5a2.5 2.5 0 0 1-2.285-3.515l.706-1.591V8a6.011 6.011 0 0 1 4-5.659V2a2 2 0 0 1 4 0v.341a6.014 6.014 0 0 1 4 5.659v2.894l.707 1.59A2.5 2.5 0 0 1 11.344 16H9.752a3.008 3.008 0 0 1-2.831 2zm-1.733-2a2 2 0 0 0 3.466 0zM6.921 3a5.006 5.006 0 0 0-5 5v3l-.043.2-.75 1.688A1.5 1.5 0 0 0 2.5 15h8.845a1.5 1.5 0 0 0 1.371-2.111l-.75-1.687-.043-.2V8a5.006 5.006 0 0 0-5.002-5zm0-1a6.074 6.074 0 0 1 1 .083V2a1 1 0 0 0-2 0v.083a6.091 6.091 0 0 1 1-.083z" transform="translate(-5.077 -3) translate(5.079 3)"/>
    </g>
</svg>
