<svg xmlns="http://www.w3.org/2000/svg" width="26" height="26" viewBox="0 0 26 26">
    <defs>
        <style>
            .cls-1{fill:#c6c9cf}
        </style>
    </defs>
    <g id="Settings-Icon">
        <path id="Shape" d="M12.988 26c-.4 0-.8-.018-1.192-.054a1.339 1.339 0 0 1-1.196-1.129l-.3-1.954a10.209 10.209 0 0 1-2.375-.985l-.418.307-1.176.863a1.325 1.325 0 0 1-.79.26 1.341 1.341 0 0 1-.845-.3 13.278 13.278 0 0 1-1.707-1.7 1.341 1.341 0 0 1-.044-1.643l1.171-1.591a10.236 10.236 0 0 1-.984-2.376l-.35-.053-1.6-.247a1.334 1.334 0 0 1-1.125-1.191 13.245 13.245 0 0 1 0-2.411A1.34 1.34 0 0 1 1.183 10.6l1.955-.3a10.222 10.222 0 0 1 .984-2.375l-.428-.582-.01-.013-.729-.993A1.336 1.336 0 0 1 2.993 4.7 13.278 13.278 0 0 1 4.7 2.994a1.347 1.347 0 0 1 .851-.3 1.324 1.324 0 0 1 .792.261l1.588 1.166a10.278 10.278 0 0 1 2.376-.985l.07-.458.23-1.5A1.332 1.332 0 0 1 11.792.057a13.021 13.021 0 0 1 2.411-.004A1.341 1.341 0 0 1 15.4 1.184l.3 1.953a10.279 10.279 0 0 1 2.376.985l.421-.31 1.172-.86a1.335 1.335 0 0 1 1.635.042 13.379 13.379 0 0 1 1.707 1.7 1.343 1.343 0 0 1 .044 1.643l-1.177 1.594a10.188 10.188 0 0 1 .985 2.375l.581.089 1.374.211a1.333 1.333 0 0 1 1.126 1.186 13.246 13.246 0 0 1 0 2.411 1.339 1.339 0 0 1-1.13 1.193l-1.954.3a10.2 10.2 0 0 1-.985 2.376l.421.573.749 1.021a1.333 1.333 0 0 1-.043 1.635 13.263 13.263 0 0 1-1.7 1.707 1.35 1.35 0 0 1-.851.3 1.325 1.325 0 0 1-.791-.26l-1.592-1.172a10.212 10.212 0 0 1-2.376.985l-.048.319-.251 1.636a1.333 1.333 0 0 1-1.186 1.126c-.407.039-.822.058-1.219.058zm-5.082-5.014a.405.405 0 0 1 .211.059 9.376 9.376 0 0 0 2.647 1.1.4.4 0 0 1 .305.333l.337 2.219a.525.525 0 0 0 .466.443 12.489 12.489 0 0 0 2.256-.003.522.522 0 0 0 .462-.44c.133-.856.338-2.205.34-2.219a.4.4 0 0 1 .305-.334 9.382 9.382 0 0 0 2.647-1.1.407.407 0 0 1 .452.02l1.808 1.33a.519.519 0 0 0 .311.1.532.532 0 0 0 .333-.118 12.472 12.472 0 0 0 1.593-1.6.523.523 0 0 0 .014-.639l-1.328-1.808a.4.4 0 0 1-.02-.452 9.4 9.4 0 0 0 1.1-2.647.405.405 0 0 1 .334-.305l2.219-.338a.523.523 0 0 0 .443-.466 12.325 12.325 0 0 0 0-2.255.52.52 0 0 0-.44-.462l-2.22-.34a.407.407 0 0 1-.333-.305 9.417 9.417 0 0 0-1.1-2.648.4.4 0 0 1 .02-.451L22.4 5.857a.527.527 0 0 0-.016-.644 12.52 12.52 0 0 0-1.6-1.592.518.518 0 0 0-.327-.116.525.525 0 0 0-.312.1l-1.808 1.328a.4.4 0 0 1-.241.079.408.408 0 0 1-.211-.059 9.411 9.411 0 0 0-2.647-1.1.4.4 0 0 1-.305-.333l-.338-2.219a.526.526 0 0 0-.467-.444c-.371-.033-.747-.05-1.118-.05s-.766.023-1.14.058a.52.52 0 0 0-.461.44l-.34 2.219a.4.4 0 0 1-.305.333 9.4 9.4 0 0 0-2.647 1.1.408.408 0 0 1-.211.059.4.4 0 0 1-.241-.079L5.857 3.6a.523.523 0 0 0-.643.016 12.356 12.356 0 0 0-1.593 1.6.52.52 0 0 0-.014.638c.493.675 1.271 1.731 1.325 1.805a.4.4 0 0 1 .023.455 9.417 9.417 0 0 0-1.1 2.648.407.407 0 0 1-.333.305l-2.219.337a.526.526 0 0 0-.444.467 12.332 12.332 0 0 0 0 2.255.52.52 0 0 0 .44.461c.862.134 2.219.341 2.219.341a.405.405 0 0 1 .334.305 9.4 9.4 0 0 0 1.1 2.647.4.4 0 0 1-.02.452L3.6 20.143a.524.524 0 0 0 .016.644 12.47 12.47 0 0 0 1.6 1.593.517.517 0 0 0 .327.116.526.526 0 0 0 .311-.1c.7-.516 1.809-1.329 1.809-1.329a.4.4 0 0 1 .243-.081z" class="cls-1"/>
        <path id="Shape-2" d="M4.063 8.125a4.063 4.063 0 1 1 4.062-4.062 4.067 4.067 0 0 1-4.062 4.062zm0-7.313a3.25 3.25 0 1 0 3.25 3.25A3.254 3.254 0 0 0 4.063.813z" class="cls-1" data-name="Shape" transform="translate(9 9)"/>
        <path id="Shape-3" d="M4.059.353A.4.4 0 0 0 3.6 0 4.382 4.382 0 0 0 .006 3.59a.406.406 0 1 0 .8.133A3.506 3.506 0 0 1 3.711.809a.406.406 0 0 0 .348-.456z" class="cls-1" data-name="Shape" transform="translate(6 7)"/>
    </g>
</svg>
