<svg xmlns="http://www.w3.org/2000/svg" id="Statistics-Icon" width="26" height="21.938" viewBox="0 0 26 21.938">
    <defs>
        <style>
            .cls-1{fill:#fff}
        </style>
    </defs>
    <path id="Shape" d="M24.375 21.938H1.625A1.627 1.627 0 0 1 0 20.312V1.625A1.627 1.627 0 0 1 1.625 0h22.75A1.627 1.627 0 0 1 26 1.625v18.687a1.627 1.627 0 0 1-1.625 1.626zM.813 4.469v15.843a.814.814 0 0 0 .813.813h22.749a.814.814 0 0 0 .813-.813V4.469zM1.625.813a.814.814 0 0 0-.813.813v2.03h24.375V1.625a.814.814 0 0 0-.813-.813z" class="cls-1"/>
    <path id="Shape-2" d="M.711 1.422a.711.711 0 1 1 .711-.711.712.712 0 0 1-.711.711zm0-1.016a.3.3 0 1 0 .3.305.305.305 0 0 0-.3-.305z" class="cls-1" data-name="Shape" transform="translate(1.727 1.625)"/>
    <path id="Shape-3" d="M.711 1.422a.711.711 0 1 1 .711-.711.712.712 0 0 1-.711.711zm0-1.016a.3.3 0 1 0 .3.305.305.305 0 0 0-.3-.305z" class="cls-1" data-name="Shape" transform="translate(5.789 1.625)"/>
    <path id="Shape-4" d="M.711 1.422a.711.711 0 1 1 .711-.711.712.712 0 0 1-.711.711zm0-1.016a.3.3 0 1 0 .3.305.305.305 0 0 0-.3-.305z" class="cls-1" data-name="Shape" transform="translate(3.758 1.625)"/>
    <path id="Shape-5" d="M5.79 10.556a1.413 1.413 0 0 1-1.274-2.043L2.322 6.576a1.4 1.4 0 0 1-.9.33 1.422 1.422 0 1 1 1.422-1.421 1.365 1.365 0 0 1-.072.425l.025.013a.2.2 0 0 1 .043.026l2.227 1.967a1.4 1.4 0 0 1 .723-.2 1.424 1.424 0 0 1 .262.027L7.363 4.9a1.406 1.406 0 0 1-.456-1.039 1.423 1.423 0 0 1 1.421-1.424 1.405 1.405 0 0 1 1.139.58l2.785-1.193a1.376 1.376 0 0 1-.064-.4 1.422 1.422 0 1 1 1.422 1.42 1.4 1.4 0 0 1-.9-.332L9.743 3.783a.232.232 0 0 0 0 .035.309.309 0 0 1 0 .041 1.424 1.424 0 0 1-1.415 1.422 1.443 1.443 0 0 1-.236-.023L6.774 8.113a1.407 1.407 0 0 1 .437 1.021 1.424 1.424 0 0 1-1.421 1.422zm0-2.031a.609.609 0 1 0 .609.609.61.61 0 0 0-.609-.609zm-4.368-3.65a.609.609 0 1 0 .609.609.61.61 0 0 0-.609-.609zM8.328 3.25a.609.609 0 1 0 .61.609.61.61 0 0 0-.61-.609zM13.61.813a.609.609 0 1 0 .609.609.61.61 0 0 0-.609-.609z" class="cls-1" data-name="Shape" transform="translate(5.078 8.125)"/>
</svg>
