<svg xmlns="http://www.w3.org/2000/svg" id="icon_styles" width="21.873" height="26" viewBox="0 0 21.873 26">
    <defs>
        <style>
            .cls-1{fill:#fff}.cls-2{fill:none;stroke:#fff}
        </style>
    </defs>
    <g id="Document-Icon">
        <path id="Shape" d="M19.866 26H6.547a1.99 1.99 0 0 1-2.007-1.967v-.922H2.087A2.066 2.066 0 0 1 0 21.071V2.04A2.066 2.066 0 0 1 2.087 0h13.984a2.066 2.066 0 0 1 2.087 2.04v1.693h.026a.249.249 0 0 1 .069-.013h1.612a1.99 1.99 0 0 1 2.007 1.967v18.346A1.99 1.99 0 0 1 19.866 26zm-14.5-2.889v.922a1.164 1.164 0 0 0 1.183 1.142h13.317a1.164 1.164 0 0 0 1.182-1.142V5.682a1.164 1.164 0 0 0-1.182-1.142h-1.612a.261.261 0 0 1-.069-.012l-.026-.007v16.55a2.066 2.066 0 0 1-2.087 2.04zM2.087.825A1.24 1.24 0 0 0 .825 2.04v19.031a1.24 1.24 0 0 0 1.262 1.215h13.984a1.24 1.24 0 0 0 1.262-1.215V2.04A1.24 1.24 0 0 0 16.071.825z" class="cls-1"/>
        <path id="Path_138" d="M12.987 5.962l-9 12.186s9.287-2.724 9.206.17-5.435 1.191-5.435 1.191" class="cls-2" data-name="Path 138" transform="translate(1 -2)"/>
    </g>
    <path id="Path_139" d="M9.656-1.891h.719l-9.937 13.5.862-2.14z" class="cls-1" data-name="Path 139" transform="translate(2.968 5.5)"/>
    <path id="Path_140" d="M1.094 3.172L3.391.125l.531-.344L1.2 3.438z" class="cls-1" data-name="Path 140" transform="translate(7.968 4.5)"/>
</svg>
