<svg xmlns="http://www.w3.org/2000/svg" width="99" height="184" viewBox="0 0 99 184">
    <defs>
        <style>
            .cls-1{fill:#868686}.cls-2{fill:#fff}
        </style>
    </defs>
    <g id="Tabs" transform="translate(-555 -301)">
        <g id="Side_Menu" data-name="Side Menu" transform="translate(122)">
            <rect id="Rectangle_43" width="99" height="184" class="cls-1" data-name="Rectangle 43" rx="8" transform="translate(433 301)"/>
        </g>
        <path id="Subtraction_3" d="M-1955 24h-97V0h97v24zm-19-9v2h12v-2zm-18 0v2h12v-2zm-18 0v2h12v-2zm-18 0v2h12v-2zm-18 0v2h12v-2zm78-11a4.505 4.505 0 0 0-4.5 4.5 4.5 4.5 0 0 0 4.5 4.5 4.5 4.5 0 0 0 4.5-4.5A4.5 4.5 0 0 0-1968 4zm-18 0a4.506 4.506 0 0 0-4.5 4.5 4.5 4.5 0 0 0 4.5 4.5 4.5 4.5 0 0 0 4.5-4.5A4.505 4.505 0 0 0-1986 4zm-18 0a4.505 4.505 0 0 0-4.5 4.5 4.5 4.5 0 0 0 4.5 4.5 4.5 4.5 0 0 0 4.5-4.5A4.5 4.5 0 0 0-2004 4zm-18 0a4.506 4.506 0 0 0-4.5 4.5 4.5 4.5 0 0 0 4.5 4.5 4.5 4.5 0 0 0 4.5-4.5A4.505 4.505 0 0 0-2022 4zm-18 0a4.506 4.506 0 0 0-4.5 4.5 4.5 4.5 0 0 0 4.5 4.5 4.5 4.5 0 0 0 4.5-4.5A4.505 4.505 0 0 0-2040 4z" class="cls-2" data-name="Subtraction 3" transform="translate(2608 452)"/>
    </g>
</svg>
