<svg xmlns="http://www.w3.org/2000/svg" width="23" height="23" viewBox="0 0 23 23">
    <path id="Icon_open-dashboard" fill="#0989cc"
          d="M11.5 0A11.5 11.5 0 1 0 23 11.5 11.534 11.534 0 0 0 11.5 0zm0 2.875A8.625 8.625 0 1 1 2.875 11.5 8.613 8.613 0 0 1 11.5 2.875zm0 2.875a1.438 1.438 0 1 0 1.437 1.437A1.424 1.424 0 0 0 11.5 5.75zM6.727 8.625a1.437 1.437 0 0 0-.546 2.415L8.8 13.656a2.919 2.919 0 0 0-.172.719A2.875 2.875 0 1 0 11.5 11.5a2.919 2.919 0 0 0-.719.172L8.165 9.056A1.437 1.437 0 0 0 6.9 8.6a1.437 1.437 0 0 0-.173 0zm9.085 0a1.438 1.438 0 1 0 1.438 1.438 1.424 1.424 0 0 0-1.438-1.438z"
          data-name="Icon open-dashboard"/>
</svg>
