<svg xmlns="http://www.w3.org/2000/svg" width="343" height="726" viewBox="0 0 343 726">
  <path id="phone" fill-rule="evenodd"
        d="M305.879.117H37.643A37.415 37.415 0 0 0 .261 37.481v651.273a37.415 37.415 0 0 0 37.382 37.364h268.236a37.415 37.415 0 0 0 37.382-37.364V37.481A37.415 37.415 0 0 0 305.879.117zm30.364 688.637a30.357 30.357 0 0 1-30.364 30.346H37.643a30.356 30.356 0 0 1-30.364-30.346V37.481a30.356 30.356 0 0 1 30.364-30.35h38.938a3.91 3.91 0 0 1 3.911 3.909v1.66a20.082 20.082 0 0 0 20.087 20.077h142.767A20.082 20.082 0 0 0 263.433 12.7v-1.66a3.91 3.91 0 0 1 3.911-3.909h38.536a30.357 30.357 0 0 1 30.364 30.349z"
        transform="translate(-.261 -.117)"/>
</svg>
