<svg xmlns="http://www.w3.org/2000/svg" width="60" height="60" viewBox="0 0 60 60">
  <defs>
    <filter id="Контур_218" width="60" height="60" x="0" y="0" filterUnits="userSpaceOnUse">
      <feOffset dy="5"/>
      <feGaussianBlur result="blur" stdDeviation="5.5"/>
      <feFlood flood-opacity=".161"/>
      <feComposite in2="blur" operator="in"/>
      <feComposite in="SourceGraphic"/>
    </filter>
  </defs>
  <g filter="url(#Контур_218)">
    <g id="Контур_218-2" fill="#fff" fill-rule="evenodd" stroke="none" data-name="Контур 218">
      <path
        d="M104.235-37.5l-9.86-9.54a5.985 5.985 0 0 1-1.875-4.3v-8.518A3.317 3.317 0 0 1 95.967-63h19.067a3.317 3.317 0 0 1 3.467 3.144v8.518a5.985 5.985 0 0 1-1.875 4.3l-9.86 9.54a1.861 1.861 0 0 1-2.45.072q-.042-.034-.081-.074z"
        transform="rotate(180 67.75 -12.5)"/>
      <path fill="rgba(0,0,0,0.1)"
            d="M105.5-37c.462 0 .923-.167 1.264-.497l9.86-9.54c1.206-1.165 1.876-2.703 1.876-4.3v-8.519c0-1.736-1.552-3.144-3.467-3.144H95.967c-1.915 0-3.467 1.408-3.467 3.144v8.519c0 1.597.67 3.135 1.875 4.3l9.86 9.54c.026.025.052.049.08.072.334.284.76.425 1.185.425m0 .5c-.56 0-1.097-.193-1.51-.544-.034-.03-.069-.061-.102-.093l-9.86-9.54C92.72-47.942 92-49.597 92-51.337v-8.519c0-2.01 1.78-3.644 3.967-3.644h19.066c2.188 0 3.967 1.635 3.967 3.644v8.519c0 1.74-.72 3.395-2.028 4.66l-9.86 9.54c-.425.41-.997.637-1.612.637z"
            transform="rotate(180 67.75 -12.5)"/>
    </g>
  </g>
</svg>
