<svg xmlns="http://www.w3.org/2000/svg" id="Cloud-Icon" width="26" height="22.449" viewBox="0 0 26 22.449">
    <defs>
        <style>
            .cls-1{fill:#fff}
        </style>
    </defs>
    <path id="Shape" d="M19.822 4.723c-.194 0-.388.009-.582.027A7.524 7.524 0 0 0 4.754 6.835a5.129 5.129 0 0 0-.125 10.22.411.411 0 0 0 .138.024h1.56a.406.406 0 0 0 0-.813h-1.2a4.316 4.316 0 1 1 .006-8.633.406.406 0 0 0 .406-.39 6.711 6.711 0 0 1 13.047-1.919.409.409 0 0 0 .443.269 5.47 5.47 0 0 1 .793-.058 5.366 5.366 0 0 1 0 10.732l-.011.033a.4.4 0 0 0-.161-.033h-1.778a.406.406 0 0 0 0 .813h1.777a.405.405 0 0 0 .161-.033l.011.033a6.178 6.178 0 0 0 0-12.357z" class="cls-1"/>
    <path id="Shape-2" d="M4.648 2.933a.406.406 0 0 0 .287-.694l-2-2-.121-.12a.406.406 0 0 0-.574 0l-.116.116-2 2a.406.406 0 0 0 .574.574l1.423-1.422v7.418h.813V1.387L4.36 2.814a.4.4 0 0 0 .288.119z" class="cls-1" data-name="Shape" transform="translate(12.921 10.495)"/>
    <path id="Shape-3" d="M4.36 5.991L2.933 7.418V0h-.812v7.418L.693 5.991a.406.406 0 0 0-.574.574l2 2 .115.115a.406.406 0 0 0 .574 0l.115-.115 2-2a.406.406 0 0 0-.574-.574z" class="cls-1" data-name="Shape" transform="translate(6.822 13.643)"/>
</svg>
