<svg xmlns="http://www.w3.org/2000/svg" id="Email-Icons" width="25.214" height="18.909" viewBox="0 0 25.214 18.909">
    <defs>
        <style>
            .cls-1{fill:#fff}
        </style>
    </defs>
    <path id="Mail" d="M22.851 18.909H2.363A2.366 2.366 0 0 1 0 16.546V2.363A2.366 2.366 0 0 1 2.363 0h20.488a2.366 2.366 0 0 1 2.363 2.363v14.183a2.366 2.366 0 0 1-2.363 2.363zM9 9.081L.915 17.165a1.576 1.576 0 0 0 1.448.957h20.488a1.576 1.576 0 0 0 1.448-.957l-8-8L14 10.636a2.521 2.521 0 0 1-2.776-.041L9 9.081zm15.427-5.088l-7.453 4.75 7.453 7.457zM.788 3.5v12.7l7.558-7.563zM2.363.788A1.578 1.578 0 0 0 .788 2.363v.185l10.882 7.4a1.718 1.718 0 0 0 .975.3 1.743 1.743 0 0 0 .935-.273l10.847-6.916v-.7A1.578 1.578 0 0 0 22.851.788z" class="cls-1"/>
</svg>
