<svg xmlns="http://www.w3.org/2000/svg" width="23.001" height="22.999" viewBox="0 0 23.001 22.999">
  <path id="lang_icon" fill="#0989cc"
        d="M-2374.5 23a11.424 11.424 0 0 1-8.131-3.368A11.423 11.423 0 0 1-2386 11.5a11.421 11.421 0 0 1 3.369-8.131A11.424 11.424 0 0 1-2374.5 0a11.424 11.424 0 0 1 8.131 3.368A11.421 11.421 0 0 1-2363 11.5a11.423 11.423 0 0 1-3.369 8.132A11.424 11.424 0 0 1-2374.5 23zm-.008-20a8.505 8.505 0 0 0-8.492 8.5 8.506 8.506 0 0 0 8.492 8.5 8.514 8.514 0 0 0 8.508-8.5 8.513 8.513 0 0 0-8.508-8.5zm.008 15.267a12 12 0 0 1-1.623-3.366h3.248a11.991 11.991 0 0 1-1.623 3.366zm2.2-.341a13.314 13.314 0 0 0 1.172-3.024h2.507a6.816 6.816 0 0 1-3.678 3.025zm-4.4 0a6.787 6.787 0 0 1-3.678-3.025h2.507a13.321 13.321 0 0 0 1.172 3.024zm8.781-4.725h-2.872a14.405 14.405 0 0 0 .118-1.7 14.252 14.252 0 0 0-.118-1.7h2.872a7 7 0 0 1 .222 1.7 7.009 7.009 0 0 1-.222 1.7zm-4.59 0h-3.978a12.511 12.511 0 0 1-.137-1.7 12.086 12.086 0 0 1 .137-1.7h3.978a12.093 12.093 0 0 1 .136 1.7 12.515 12.515 0 0 1-.136 1.7zm-5.7 0h-2.872a7.006 7.006 0 0 1-.222-1.7 7.01 7.01 0 0 1 .222-1.7h2.872a13.886 13.886 0 0 0-.118 1.7 13.942 13.942 0 0 0 .118 1.7zm9.589-5.1h-2.507a13.353 13.353 0 0 0-1.173-3.026 6.818 6.818 0 0 1 3.679 3.025zm-4.259 0h-3.248a11.983 11.983 0 0 1 1.624-3.366 11.962 11.962 0 0 1 1.623 3.364zm-5 0h-2.507a6.8 6.8 0 0 1 3.68-3.026 13.374 13.374 0 0 0-1.173 3.025z"
        transform="translate(2386 -.001)"/>
</svg>
