<svg xmlns="http://www.w3.org/2000/svg" width="12" height="12.001" viewBox="0 0 12 12.001">
  <path id="Контур_270" fill="gray" fill-rule="evenodd"
        d="M15.783-8.916L19-5.7l-.7.7-3.217-3.216A4.929 4.929 0 0 1 11.95-7.1 4.95 4.95 0 0 1 7-12.05 4.95 4.95 0 0 1 11.95-17a4.95 4.95 0 0 1 4.95 4.95 4.93 4.93 0 0 1-1.117 3.134zm-3.833.827a3.96 3.96 0 0 0 3.96-3.96 3.96 3.96 0 0 0-3.96-3.96 3.96 3.96 0 0 0-3.96 3.96 3.96 3.96 0 0 0 3.96 3.96z"
        data-name="Контур 270" transform="translate(-7 17)"/>
</svg>
