<svg xmlns="http://www.w3.org/2000/svg" id="Statistics-Icon" width="36" height="31" viewBox="0 0 36 31">
  <defs>
    <style>
      .cls-1{fill:#b5b5b5}
    </style>
  </defs>
  <path id="Shape"
        d="M33.749 31H2.251A2.277 2.277 0 0 1 0 28.7V2.3A2.277 2.277 0 0 1 2.251 0h31.5A2.277 2.277 0 0 1 36 2.3v26.4a2.277 2.277 0 0 1-2.251 2.3zM1.125 6.314V28.7a1.139 1.139 0 0 0 1.126 1.148h31.5a1.139 1.139 0 0 0 1.124-1.148V6.314zM2.25 1.148a1.223 1.223 0 0 0-1.125 1.3V5.7h33.75V2.448a1.223 1.223 0 0 0-1.125-1.3z"
        class="cls-1"/>
  <path id="Shape-2"
        d="M9.642 17.556a2.349 2.349 0 0 1-2.121-3.4l-3.654-3.219a2.333 2.333 0 0 1-1.5.549 2.365 2.365 0 1 1 2.369-2.364 2.268 2.268 0 0 1-.12.706l.042.022a.338.338 0 0 1 .072.043l3.708 3.271a2.339 2.339 0 0 1 1.2-.338 2.375 2.375 0 0 1 .436.045l2.184-4.725a2.337 2.337 0 0 1-.76-1.727 2.368 2.368 0 0 1 2.367-2.365 2.342 2.342 0 0 1 1.9.964L20.4 3.033a2.285 2.285 0 0 1-.106-.668 2.367 2.367 0 1 1 2.37 2.365 2.34 2.34 0 0 1-1.5-.552l-4.94 2.113a.386.386 0 0 0 .006.058.513.513 0 0 1 .006.069 2.369 2.369 0 0 1-2.368 2.365 2.407 2.407 0 0 1-.393-.039l-2.194 4.748a2.339 2.339 0 0 1 .728 1.7 2.369 2.369 0 0 1-2.367 2.364zm0-3.378a1.013 1.013 0 1 0 1.015 1.013 1.015 1.015 0 0 0-1.015-1.013zm-7.274-6.07a1.013 1.013 0 1 0 1.015 1.014 1.015 1.015 0 0 0-1.015-1.014zm11.5-2.7a1.013 1.013 0 1 0 1.016 1.013A1.015 1.015 0 0 0 13.868 5.4zm8.8-4.053a1.013 1.013 0 1 0 1.015 1.013 1.016 1.016 0 0 0-1.019-1.016z"
        class="cls-1" data-name="Shape" transform="translate(5.078 10.188)"/>
</svg>
