<svg xmlns="http://www.w3.org/2000/svg" id="Cloud-Icon" width="36" height="32" viewBox="0 0 36 32">
  <defs>
    <style>
      .cls-1{fill:#b5b5b5}
    </style>
  </defs>
  <path id="Shape"
        d="M27.445 7.364a7.666 7.666 0 0 0-.806.043C25.074 2.956 21.238 0 16.955 0 11.521 0 7.061 4.636 6.582 10.658 2.908 10.959 0 14.421 0 18.634c0 4.146 2.817 7.566 6.409 7.959a.513.513 0 0 0 .192.038h2.16a.638.638 0 0 0 0-1.267H7.1c-3.3 0-5.977-3.019-5.977-6.73S3.806 11.9 7.11 11.9a.6.6 0 0 0 .562-.607c.2-5.624 4.28-10.029 9.283-10.029 3.957 0 7.486 2.827 8.78 7.035a.565.565 0 0 0 .614.419 6.742 6.742 0 0 1 1.1-.09c4.1 0 7.43 3.753 7.43 8.367s-3.333 8.367-7.43 8.367l-.016.052a.507.507 0 0 0-.223-.052h-2.464a.638.638 0 0 0 0 1.267h2.461a.508.508 0 0 0 .223-.052l.016.052C32.162 26.631 36 22.31 36 17s-3.838-9.636-8.555-9.636z"
        class="cls-1"/>
  <path id="Shape-2"
        d="M4.648 2.933a.406.406 0 0 0 .287-.694l-2-2-.121-.12a.406.406 0 0 0-.574 0l-.116.116-2 2a.406.406 0 0 0 .574.574l1.423-1.422v7.418h.813V1.387L4.36 2.814a.4.4 0 0 0 .288.119z"
        class="cls-1" data-name="Shape" transform="translate(19.089 20.046)"/>
  <path id="Shape-3"
        d="M4.36 5.991L2.933 7.418V0h-.812v7.418L.693 5.991a.406.406 0 0 0-.574.574l2 2 .115.115a.406.406 0 0 0 .574 0l.115-.115 2-2a.406.406 0 0 0-.574-.574z"
        class="cls-1" data-name="Shape" transform="translate(10.079 23.195)"/>
</svg>
