<svg xmlns="http://www.w3.org/2000/svg" width="36" height="27.702" viewBox="0 0 36 27.702">
    <path id="Контур_147" fill="#b5b5b5"
          d="M39.369 10.406a.509.509 0 0 0-.45-.364l-28.2-2.727a.868.868 0 0 1-.649-.407A8.815 8.815 0 0 0 9.018 5.3c-.667-.816-1.918-.79-4.225-.807a1.261 1.261 0 0 0-1.411 1.221 1.237 1.237 0 0 0 1.35 1.221 11.5 11.5 0 0 1 2.251.165c.407.121.736.788.857 1.368a.032.032 0 0 0 .009.026c.017.1.173.883.173.892L11.485 27.7a6.732 6.732 0 0 0 1.255 3.091 3.455 3.455 0 0 0 2.848 1.4h20.483a1.231 1.231 0 0 0 1.247-1.16 1.206 1.206 0 0 0-1.212-1.264H15.571a1.006 1.006 0 0 1-.719-.242 3.885 3.885 0 0 1-1-2.251l-.372-2.052a.047.047 0 0 1 .035-.052l24.04-4.069a.506.506 0 0 0 .424-.45l1.385-10.025a.494.494 0 0 0 .005-.22z"
          data-name="Контур 147" transform="translate(-3.382 -4.493)"/>
</svg>
