<svg xmlns="http://www.w3.org/2000/svg" width="22.999" height="23" viewBox="0 0 22.999 23">
  <path id="exit_icon" fill="#b5b5b5"
        d="M-1978.5 23a11.426 11.426 0 0 1-8.132-3.368A11.425 11.425 0 0 1-1990 11.5 11.513 11.513 0 0 1-1978.5 0a11.421 11.421 0 0 1 8.131 3.369A11.428 11.428 0 0 1-1967 11.5a11.431 11.431 0 0 1-3.367 8.132A11.424 11.424 0 0 1-1978.5 23zm0-21a1.5 1.5 0 0 0-1.453 1.124A8.518 8.518 0 0 0-1984.975 6a8.5 8.5 0 0 0-2.025 5.5 8.51 8.51 0 0 0 8.5 8.5 8.509 8.509 0 0 0 8.5-8.5 8.5 8.5 0 0 0-2.025-5.5 8.516 8.516 0 0 0-5.022-2.875A1.5 1.5 0 0 0-1978.5 2zm0 16a6.508 6.508 0 0 1-6.5-6.5 6.428 6.428 0 0 1 1.425-4.062A6.53 6.53 0 0 1-1980 5.174V11.5a1.5 1.5 0 0 0 1.5 1.5 1.5 1.5 0 0 0 1.5-1.5V5.174a6.529 6.529 0 0 1 3.575 2.264A6.429 6.429 0 0 1-1972 11.5a6.507 6.507 0 0 1-6.5 6.5z"
        transform="translate(1990)"/>
</svg>
