<svg xmlns="http://www.w3.org/2000/svg" id="Group_List_icon" width="99" height="184" data-name="Group List_icon"
     viewBox="0 0 99 184">
  <defs>
    <style>
      .cls-2{fill:#ecedef}
    </style>
  </defs>
  <g id="Group_List" data-name="Group List" transform="translate(-433 -301)">
    <rect id="Прямоугольник_43" width="99" height="184" fill="#868686" data-name="Прямоугольник 43" rx="8"
          transform="translate(433 301)"/>
    <path id="Вычитание_6"
          d="M-1893-338h-97v-26h97v26zm-81-21a8.009 8.009 0 0 0-8 8 8.009 8.009 0 0 0 8 8 8.009 8.009 0 0 0 8-8 8.009 8.009 0 0 0-8-8zm67.157 3.258a.994.994 0 0 0-.707.293 1 1 0 0 0 0 1.415l3.536 3.535-3.535 3.536a.991.991 0 0 0-.293.706.994.994 0 0 0 .293.708.993.993 0 0 0 .707.293.994.994 0 0 0 .707-.293l4.243-4.243a.965.965 0 0 0 .127-.154 1 1 0 0 0 0-1.105.982.982 0 0 0-.127-.155l-4.243-4.243a.994.994 0 0 0-.708-.294zm-23.213 7.578a.828.828 0 0 0-.674.306 1.251 1.251 0 0 0-.25.814 1.148 1.148 0 0 0 .259.8.928.928 0 0 0 .722.285 1.934 1.934 0 0 0 .336-.028 1.559 1.559 0 0 0 .332-.107v-.176a1.909 1.909 0 0 1-.349.109 1.761 1.761 0 0 1-.319.026.723.723 0 0 1-.573-.23 1.009 1.009 0 0 1-.2-.669h1.529v-.156a1.084 1.084 0 0 0-.217-.711.728.728 0 0 0-.596-.263zm-2.939-.472l-.1.481-.314.087v.113h.314v1.372a.7.7 0 0 0 .134.473.531.531 0 0 0 .415.15 1.021 1.021 0 0 0 .324-.047v-.157a1.465 1.465 0 0 1-.32.031.311.311 0 0 1-.269-.117.615.615 0 0 1-.086-.362v-1.344h.624v-.167h-.624v-.514zm-2.245 0l-.1.481-.315.087v.113h.315v1.372a.7.7 0 0 0 .133.473.531.531 0 0 0 .415.15 1.023 1.023 0 0 0 .325-.047v-.157a1.476 1.476 0 0 1-.32.031.314.314 0 0 1-.27-.117.622.622 0 0 1-.086-.362v-1.344h.623v-.167h-.623v-.514zm-2.31 2.317h.017a.733.733 0 0 0 .287.266.889.889 0 0 0 .409.094.82.82 0 0 0 .667-.287 1.255 1.255 0 0 0 .238-.816 1.29 1.29 0 0 0-.226-.82.814.814 0 0 0-.67-.28.87.87 0 0 0-.411.09.779.779 0 0 0-.292.281h-.013l.006-.166c0-.089.007-.189.007-.317v-.763h-.193V-346h.121l.055-.32zm-2.559-1.8v1.386c0 .515.244.776.724.776a.8.8 0 0 0 .736-.332h.012l.035.293h.165v-2.123h-.192v1.172a.9.9 0 0 1-.179.623.73.73 0 0 1-.557.192.547.547 0 0 1-.419-.146.679.679 0 0 1-.134-.466v-1.374zm-2.031 1.822v.21a1.475 1.475 0 0 0 .676.13 1.06 1.06 0 0 0 .615-.153.508.508 0 0 0 .217-.439.465.465 0 0 0-.065-.247.622.622 0 0 0-.2-.189 2.339 2.339 0 0 0-.418-.186 1.623 1.623 0 0 1-.462-.222.327.327 0 0 1-.118-.266.264.264 0 0 1 .152-.239.841.841 0 0 1 .412-.086 1.527 1.527 0 0 1 .58.13l.073-.176a1.7 1.7 0 0 0-.653-.129.974.974 0 0 0-.56.139.438.438 0 0 0-.2.377.475.475 0 0 0 .065.255.624.624 0 0 0 .194.188 2.513 2.513 0 0 0 .447.2 1.429 1.429 0 0 1 .427.214.34.34 0 0 1 .13.27.318.318 0 0 1-.164.278.887.887 0 0 1-.477.1 1.492 1.492 0 0 1-.676-.16zm-2.082-2.335l-.1.481-.314.087v.113h.314v1.372a.7.7 0 0 0 .134.473.531.531 0 0 0 .415.15 1.021 1.021 0 0 0 .324-.047v-.157a1.465 1.465 0 0 1-.32.031.311.311 0 0 1-.269-.117.616.616 0 0 1-.086-.362v-1.344h.624v-.167h-.624v-.514zm-3.493.472a.827.827 0 0 0-.673.306 1.25 1.25 0 0 0-.25.814 1.148 1.148 0 0 0 .259.8.926.926 0 0 0 .721.285 1.942 1.942 0 0 0 .337-.028 1.569 1.569 0 0 0 .332-.107v-.176a1.9 1.9 0 0 1-.349.109 1.77 1.77 0 0 1-.32.026.724.724 0 0 1-.573-.23 1.014 1.014 0 0 1-.2-.669h1.529v-.156a1.084 1.084 0 0 0-.217-.711.732.732 0 0 0-.596-.267zm-2.035-.472l-.1.481-.315.087v.113h.315v1.372a.7.7 0 0 0 .133.473.531.531 0 0 0 .415.15 1.011 1.011 0 0 0 .325-.047v-.157a1.477 1.477 0 0 1-.32.031.314.314 0 0 1-.27-.117.622.622 0 0 1-.086-.362v-1.344h.623v-.167h-.623v-.514zm-2.539.472a.827.827 0 0 0-.674.306 1.25 1.25 0 0 0-.249.814 1.148 1.148 0 0 0 .258.8.93.93 0 0 0 .722.285 1.934 1.934 0 0 0 .336-.028 1.559 1.559 0 0 0 .332-.107v-.176a1.88 1.88 0 0 1-.348.109 1.766 1.766 0 0 1-.319.026.722.722 0 0 1-.573-.23 1.013 1.013 0 0 1-.2-.669h1.529v-.156a1.089 1.089 0 0 0-.216-.711.732.732 0 0 0-.598-.267zm-5.855 0a.87.87 0 0 0-.691.29 1.2 1.2 0 0 0-.252.81 1.417 1.417 0 0 0 .113.582.867.867 0 0 0 .326.386.905.905 0 0 0 .492.135.872.872 0 0 0 .695-.292 1.21 1.21 0 0 0 .252-.812 1.212 1.212 0 0 0-.248-.806.856.856 0 0 0-.687-.297zm-3.139 1.889v.2a2.208 2.208 0 0 0 .8.115 1.092 1.092 0 0 0 .7-.209.689.689 0 0 0 .263-.567.666.666 0 0 0-.077-.333.717.717 0 0 0-.245-.246 2.455 2.455 0 0 0-.5-.224 2.528 2.528 0 0 1-.449-.193.534.534 0 0 1-.188-.183.518.518 0 0 1-.058-.26.476.476 0 0 1 .187-.4.8.8 0 0 1 .5-.146 1.784 1.784 0 0 1 .68.148l.072-.171a1.889 1.889 0 0 0-.755-.153 1 1 0 0 0-.646.2.643.643 0 0 0-.25.522.642.642 0 0 0 .167.466 1.562 1.562 0 0 0 .6.325 2.781 2.781 0 0 1 .453.19.625.625 0 0 1 .223.194.494.494 0 0 1 .068.268.514.514 0 0 1-.206.423.889.889 0 0 1-.558.161 2.046 2.046 0 0 1-.782-.131zm29.522-2.764V-346h.193v-3.039zm-2.244.916V-346h.193v-2.123zm-11.678 1.175l.668.947h.224l-.781-1.093.729-1.031h-.213l-.627.895-.633-.895h-.222l.74 1.031-.769 1.093h.213l.671-.947zm-8.777-1.041a.461.461 0 0 1 .371.143.692.692 0 0 1 .121.453V-346h.191v-1.389a.848.848 0 0 0-.174-.59.686.686 0 0 0-.521-.185.8.8 0 0 0-.4.1.724.724 0 0 0-.278.279h-.008a.611.611 0 0 0-.644-.377.742.742 0 0 0-.357.087.609.609 0 0 0-.25.245h-.012l-.041-.291h-.16V-346h.193v-1.173a1.015 1.015 0 0 1 .153-.622.582.582 0 0 1 .486-.194c.327 0 .492.181.492.537V-346h.2v-1.245a.849.849 0 0 1 .157-.564.607.607 0 0 1 .48-.18zm20.551-.912c-.082 0-.123.063-.123.187s.042.19.123.19a.107.107 0 0 0 .094-.051.24.24 0 0 0 .034-.139.233.233 0 0 0-.034-.139.109.109 0 0 0-.095-.051zm-.727-7.45a2.348 2.348 0 0 0-1.147.275 1.89 1.89 0 0 0-.768.78 2.456 2.456 0 0 0-.268 1.159 2.285 2.285 0 0 0 .541 1.622 2.044 2.044 0 0 0 1.554.572 3.564 3.564 0 0 0 1.4-.264v-1.954h-1.579v.281h1.274v1.506a2.687 2.687 0 0 1-1 .167 1.85 1.85 0 0 1-1.386-.488 2.025 2.025 0 0 1-.472-1.454 1.975 1.975 0 0 1 .5-1.411 1.77 1.77 0 0 1 1.343-.523 2.736 2.736 0 0 1 1.155.258l.119-.27a2.967 2.967 0 0 0-1.267-.259zm-18.554.067v2.759a1.581 1.581 0 0 0 .418 1.165 1.577 1.577 0 0 0 1.162.418 1.646 1.646 0 0 0 1.193-.416 1.542 1.542 0 0 0 .428-1.155v-2.771h-.3v2.8a1.28 1.28 0 0 1-.337.939 1.286 1.286 0 0 1-.949.338 1.31 1.31 0 0 1-.969-.344 1.31 1.31 0 0 1-.343-.963v-2.771zm-2.844-.067a1.777 1.777 0 0 0-1.4.588 2.369 2.369 0 0 0-.515 1.609 2.413 2.413 0 0 0 .51 1.619 1.759 1.759 0 0 0 1.4.593 1.765 1.765 0 0 0 1.407-.593 2.407 2.407 0 0 0 .509-1.613 2.406 2.406 0 0 0-.507-1.613 1.76 1.76 0 0 0-1.406-.593zm23.782.067v4.28h2.341v-.275h-2.042v-1.837h1.928v-.275h-1.928v-1.62h2.042v-.275zm-7.617 2.771h1.74l.595 1.512h.338l-1.687-4.3h-.191l-1.723 4.3h.331l.6-1.511zm-3.832-2.771v4.28h.3v-1.769h.662a1.908 1.908 0 0 0 1.2-.331 1.144 1.144 0 0 0 .422-.952c0-.816-.515-1.23-1.53-1.23zm-4.825 2.417h1.063l1.105 1.867h.357l-1.164-1.951a1.27 1.27 0 0 0 .69-.425 1.162 1.162 0 0 0 .227-.726 1.055 1.055 0 0 0-.381-.887 1.931 1.931 0 0 0-1.178-.294h-1.019V-352h.3v-1.866zm-12.973-2.417l1.432 2.651V-352h.308v-1.655l1.426-2.628h-.322l-1.254 2.344-1.248-2.344h-.342zm24.662 10.15a.639.639 0 0 1-.526-.209 1.111 1.111 0 0 1-.169-.689v-.033a1.2 1.2 0 0 1 .163-.709.632.632 0 0 1 .536-.215c.462 0 .7.309.7.92a1.176 1.176 0 0 1-.176.693.609.609 0 0 1-.529.239zm-21.31 0a.655.655 0 0 1-.544-.246 1.085 1.085 0 0 1-.193-.682 1.085 1.085 0 0 1 .191-.683.654.654 0 0 1 .542-.241.665.665 0 0 1 .546.242 1.071 1.071 0 0 1 .194.682 1.081 1.081 0 0 1-.193.682.655.655 0 0 1-.544.24zm28.695-1.071h-1.312a.95.95 0 0 1 .217-.582.638.638 0 0 1 .492-.2.529.529 0 0 1 .443.208.926.926 0 0 1 .16.576zm-17.658 0h-1.312a.951.951 0 0 1 .217-.582.636.636 0 0 1 .491-.2.532.532 0 0 1 .444.208.927.927 0 0 1 .16.576zm-4.574 0H-1953a.955.955 0 0 1 .217-.582.64.64 0 0 1 .492-.2.532.532 0 0 1 .444.208.931.931 0 0 1 .16.576zm-4.357-5.015a1.44 1.44 0 0 1-1.178-.5 2.207 2.207 0 0 1-.41-1.422 2.161 2.161 0 0 1 .414-1.415 1.455 1.455 0 0 1 1.18-.5 1.446 1.446 0 0 1 1.176.494 2.183 2.183 0 0 1 .409 1.419 2.209 2.209 0 0 1-.409 1.427 1.448 1.448 0 0 1-1.183.491zm17.813-1.559h-1.533l.6-1.538a4.894 4.894 0 0 0 .173-.51c.065.2.125.379.175.5l.583 1.543zm-4.585-.247h-.589v-1.986h.709a1.529 1.529 0 0 1 .943.239.875.875 0 0 1 .305.733.9.9 0 0 1-.323.775 1.79 1.79 0 0 1-1.047.233zm-4.9-.1h-.817v-1.89h.708a1.607 1.607 0 0 1 .956.223.841.841 0 0 1 .292.712.867.867 0 0 1-.3.713 1.308 1.308 0 0 1-.836.24z"
          class="cls-2" data-name="Вычитание 6" transform="translate(2424 675)"/>
    <path id="Вычитание_7"
          d="M-1893-338h-97v-26h97v26zm-81-21a8.009 8.009 0 0 0-8 8 8.009 8.009 0 0 0 8 8 8.009 8.009 0 0 0 8-8 8.009 8.009 0 0 0-8-8zm67.157 3.258a.994.994 0 0 0-.707.293 1 1 0 0 0 0 1.415l3.536 3.535-3.535 3.536a.991.991 0 0 0-.293.706.994.994 0 0 0 .293.708.993.993 0 0 0 .707.293.994.994 0 0 0 .707-.293l4.243-4.243a.965.965 0 0 0 .127-.154 1 1 0 0 0 0-1.105.982.982 0 0 0-.127-.155l-4.243-4.243a.994.994 0 0 0-.708-.294zm-23.213 7.578a.828.828 0 0 0-.674.306 1.251 1.251 0 0 0-.25.814 1.148 1.148 0 0 0 .259.8.928.928 0 0 0 .722.285 1.934 1.934 0 0 0 .336-.028 1.559 1.559 0 0 0 .332-.107v-.176a1.909 1.909 0 0 1-.349.109 1.761 1.761 0 0 1-.319.026.723.723 0 0 1-.573-.23 1.009 1.009 0 0 1-.2-.669h1.529v-.156a1.084 1.084 0 0 0-.217-.711.728.728 0 0 0-.596-.263zm-2.939-.472l-.1.481-.314.087v.113h.314v1.372a.7.7 0 0 0 .134.473.531.531 0 0 0 .415.15 1.021 1.021 0 0 0 .324-.047v-.157a1.465 1.465 0 0 1-.32.031.311.311 0 0 1-.269-.117.615.615 0 0 1-.086-.362v-1.344h.624v-.167h-.624v-.514zm-2.245 0l-.1.481-.315.087v.113h.315v1.372a.7.7 0 0 0 .133.473.531.531 0 0 0 .415.15 1.023 1.023 0 0 0 .325-.047v-.157a1.476 1.476 0 0 1-.32.031.314.314 0 0 1-.27-.117.622.622 0 0 1-.086-.362v-1.344h.623v-.167h-.623v-.514zm-2.31 2.317h.017a.733.733 0 0 0 .287.266.889.889 0 0 0 .409.094.82.82 0 0 0 .667-.287 1.255 1.255 0 0 0 .238-.816 1.29 1.29 0 0 0-.226-.82.814.814 0 0 0-.67-.28.87.87 0 0 0-.411.09.779.779 0 0 0-.292.281h-.013l.006-.166c0-.089.007-.189.007-.317v-.763h-.193V-346h.121l.055-.32zm-2.559-1.8v1.386c0 .515.244.776.724.776a.8.8 0 0 0 .736-.332h.012l.035.293h.165v-2.123h-.192v1.172a.9.9 0 0 1-.179.623.73.73 0 0 1-.557.192.547.547 0 0 1-.419-.146.679.679 0 0 1-.134-.466v-1.374zm-2.031 1.822v.21a1.475 1.475 0 0 0 .676.13 1.06 1.06 0 0 0 .615-.153.508.508 0 0 0 .217-.439.465.465 0 0 0-.065-.247.622.622 0 0 0-.2-.189 2.339 2.339 0 0 0-.418-.186 1.623 1.623 0 0 1-.462-.222.327.327 0 0 1-.118-.266.264.264 0 0 1 .152-.239.841.841 0 0 1 .412-.086 1.527 1.527 0 0 1 .58.13l.073-.176a1.7 1.7 0 0 0-.653-.129.974.974 0 0 0-.56.139.438.438 0 0 0-.2.377.475.475 0 0 0 .065.255.624.624 0 0 0 .194.188 2.513 2.513 0 0 0 .447.2 1.429 1.429 0 0 1 .427.214.34.34 0 0 1 .13.27.318.318 0 0 1-.164.278.887.887 0 0 1-.477.1 1.492 1.492 0 0 1-.676-.16zm-2.082-2.335l-.1.481-.314.087v.113h.314v1.372a.7.7 0 0 0 .134.473.531.531 0 0 0 .415.15 1.021 1.021 0 0 0 .324-.047v-.157a1.465 1.465 0 0 1-.32.031.311.311 0 0 1-.269-.117.616.616 0 0 1-.086-.362v-1.344h.624v-.167h-.624v-.514zm-3.493.472a.827.827 0 0 0-.673.306 1.25 1.25 0 0 0-.25.814 1.148 1.148 0 0 0 .259.8.926.926 0 0 0 .721.285 1.942 1.942 0 0 0 .337-.028 1.569 1.569 0 0 0 .332-.107v-.176a1.9 1.9 0 0 1-.349.109 1.77 1.77 0 0 1-.32.026.724.724 0 0 1-.573-.23 1.014 1.014 0 0 1-.2-.669h1.529v-.156a1.084 1.084 0 0 0-.217-.711.732.732 0 0 0-.596-.267zm-2.035-.472l-.1.481-.315.087v.113h.315v1.372a.7.7 0 0 0 .133.473.531.531 0 0 0 .415.15 1.011 1.011 0 0 0 .325-.047v-.157a1.477 1.477 0 0 1-.32.031.314.314 0 0 1-.27-.117.622.622 0 0 1-.086-.362v-1.344h.623v-.167h-.623v-.514zm-2.539.472a.827.827 0 0 0-.674.306 1.25 1.25 0 0 0-.249.814 1.148 1.148 0 0 0 .258.8.93.93 0 0 0 .722.285 1.934 1.934 0 0 0 .336-.028 1.559 1.559 0 0 0 .332-.107v-.176a1.88 1.88 0 0 1-.348.109 1.766 1.766 0 0 1-.319.026.722.722 0 0 1-.573-.23 1.013 1.013 0 0 1-.2-.669h1.529v-.156a1.089 1.089 0 0 0-.216-.711.732.732 0 0 0-.598-.267zm-5.855 0a.87.87 0 0 0-.691.29 1.2 1.2 0 0 0-.252.81 1.417 1.417 0 0 0 .113.582.867.867 0 0 0 .326.386.905.905 0 0 0 .492.135.872.872 0 0 0 .695-.292 1.21 1.21 0 0 0 .252-.812 1.212 1.212 0 0 0-.248-.806.856.856 0 0 0-.687-.297zm-3.139 1.889v.2a2.208 2.208 0 0 0 .8.115 1.092 1.092 0 0 0 .7-.209.689.689 0 0 0 .263-.567.666.666 0 0 0-.077-.333.717.717 0 0 0-.245-.246 2.455 2.455 0 0 0-.5-.224 2.528 2.528 0 0 1-.449-.193.534.534 0 0 1-.188-.183.518.518 0 0 1-.058-.26.476.476 0 0 1 .187-.4.8.8 0 0 1 .5-.146 1.784 1.784 0 0 1 .68.148l.072-.171a1.889 1.889 0 0 0-.755-.153 1 1 0 0 0-.646.2.643.643 0 0 0-.25.522.642.642 0 0 0 .167.466 1.562 1.562 0 0 0 .6.325 2.781 2.781 0 0 1 .453.19.625.625 0 0 1 .223.194.494.494 0 0 1 .068.268.514.514 0 0 1-.206.423.889.889 0 0 1-.558.161 2.046 2.046 0 0 1-.782-.131zm29.522-2.764V-346h.193v-3.039zm-2.244.916V-346h.193v-2.123zm-11.678 1.175l.668.947h.224l-.781-1.093.729-1.031h-.213l-.627.895-.633-.895h-.222l.74 1.031-.769 1.093h.213l.671-.947zm-8.777-1.041a.461.461 0 0 1 .371.143.692.692 0 0 1 .121.453V-346h.191v-1.389a.848.848 0 0 0-.174-.59.686.686 0 0 0-.521-.185.8.8 0 0 0-.4.1.724.724 0 0 0-.278.279h-.008a.611.611 0 0 0-.644-.377.742.742 0 0 0-.357.087.609.609 0 0 0-.25.245h-.012l-.041-.291h-.16V-346h.193v-1.173a1.015 1.015 0 0 1 .153-.622.582.582 0 0 1 .486-.194c.327 0 .492.181.492.537V-346h.2v-1.245a.849.849 0 0 1 .157-.564.607.607 0 0 1 .48-.18zm20.551-.912c-.082 0-.123.063-.123.187s.042.19.123.19a.107.107 0 0 0 .094-.051.24.24 0 0 0 .034-.139.233.233 0 0 0-.034-.139.109.109 0 0 0-.095-.051zm-.727-7.45a2.348 2.348 0 0 0-1.147.275 1.89 1.89 0 0 0-.768.78 2.456 2.456 0 0 0-.268 1.159 2.285 2.285 0 0 0 .541 1.622 2.044 2.044 0 0 0 1.554.572 3.564 3.564 0 0 0 1.4-.264v-1.954h-1.579v.281h1.274v1.506a2.687 2.687 0 0 1-1 .167 1.85 1.85 0 0 1-1.386-.488 2.025 2.025 0 0 1-.472-1.454 1.975 1.975 0 0 1 .5-1.411 1.77 1.77 0 0 1 1.343-.523 2.736 2.736 0 0 1 1.155.258l.119-.27a2.967 2.967 0 0 0-1.267-.259zm-18.554.067v2.759a1.581 1.581 0 0 0 .418 1.165 1.577 1.577 0 0 0 1.162.418 1.646 1.646 0 0 0 1.193-.416 1.542 1.542 0 0 0 .428-1.155v-2.771h-.3v2.8a1.28 1.28 0 0 1-.337.939 1.286 1.286 0 0 1-.949.338 1.31 1.31 0 0 1-.969-.344 1.31 1.31 0 0 1-.343-.963v-2.771zm-2.844-.067a1.777 1.777 0 0 0-1.4.588 2.369 2.369 0 0 0-.515 1.609 2.413 2.413 0 0 0 .51 1.619 1.759 1.759 0 0 0 1.4.593 1.765 1.765 0 0 0 1.407-.593 2.407 2.407 0 0 0 .509-1.613 2.406 2.406 0 0 0-.507-1.613 1.76 1.76 0 0 0-1.406-.593zm23.782.067v4.28h2.341v-.275h-2.042v-1.837h1.928v-.275h-1.928v-1.62h2.042v-.275zm-7.617 2.771h1.74l.595 1.512h.338l-1.687-4.3h-.191l-1.723 4.3h.331l.6-1.511zm-3.832-2.771v4.28h.3v-1.769h.662a1.908 1.908 0 0 0 1.2-.331 1.144 1.144 0 0 0 .422-.952c0-.816-.515-1.23-1.53-1.23zm-4.825 2.417h1.063l1.105 1.867h.357l-1.164-1.951a1.27 1.27 0 0 0 .69-.425 1.162 1.162 0 0 0 .227-.726 1.055 1.055 0 0 0-.381-.887 1.931 1.931 0 0 0-1.178-.294h-1.019V-352h.3v-1.866zm-12.973-2.417l1.432 2.651V-352h.308v-1.655l1.426-2.628h-.322l-1.254 2.344-1.248-2.344h-.342zm24.662 10.15a.639.639 0 0 1-.526-.209 1.111 1.111 0 0 1-.169-.689v-.033a1.2 1.2 0 0 1 .163-.709.632.632 0 0 1 .536-.215c.462 0 .7.309.7.92a1.176 1.176 0 0 1-.176.693.609.609 0 0 1-.529.239zm-21.31 0a.655.655 0 0 1-.544-.246 1.085 1.085 0 0 1-.193-.682 1.085 1.085 0 0 1 .191-.683.654.654 0 0 1 .542-.241.665.665 0 0 1 .546.242 1.071 1.071 0 0 1 .194.682 1.081 1.081 0 0 1-.193.682.655.655 0 0 1-.544.24zm28.695-1.071h-1.312a.95.95 0 0 1 .217-.582.638.638 0 0 1 .492-.2.529.529 0 0 1 .443.208.926.926 0 0 1 .16.576zm-17.658 0h-1.312a.951.951 0 0 1 .217-.582.636.636 0 0 1 .491-.2.532.532 0 0 1 .444.208.927.927 0 0 1 .16.576zm-4.574 0H-1953a.955.955 0 0 1 .217-.582.64.64 0 0 1 .492-.2.532.532 0 0 1 .444.208.931.931 0 0 1 .16.576zm-4.357-5.015a1.44 1.44 0 0 1-1.178-.5 2.207 2.207 0 0 1-.41-1.422 2.161 2.161 0 0 1 .414-1.415 1.455 1.455 0 0 1 1.18-.5 1.446 1.446 0 0 1 1.176.494 2.183 2.183 0 0 1 .409 1.419 2.209 2.209 0 0 1-.409 1.427 1.448 1.448 0 0 1-1.183.491zm17.813-1.559h-1.533l.6-1.538a4.894 4.894 0 0 0 .173-.51c.065.2.125.379.175.5l.583 1.543zm-4.585-.247h-.589v-1.986h.709a1.529 1.529 0 0 1 .943.239.875.875 0 0 1 .305.733.9.9 0 0 1-.323.775 1.79 1.79 0 0 1-1.047.233zm-4.9-.1h-.817v-1.89h.708a1.607 1.607 0 0 1 .956.223.841.841 0 0 1 .292.712.867.867 0 0 1-.3.713 1.308 1.308 0 0 1-.836.24z"
          class="cls-2" data-name="Вычитание 7" transform="translate(2424 703)"/>
    <path id="Вычитание_8"
          d="M-1893-338h-97v-26h97v26zm-81-21a8.009 8.009 0 0 0-8 8 8.009 8.009 0 0 0 8 8 8.009 8.009 0 0 0 8-8 8.009 8.009 0 0 0-8-8zm67.157 3.258a.994.994 0 0 0-.707.293 1 1 0 0 0 0 1.415l3.536 3.535-3.535 3.536a.991.991 0 0 0-.293.706.994.994 0 0 0 .293.708.993.993 0 0 0 .707.293.994.994 0 0 0 .707-.293l4.243-4.243a.965.965 0 0 0 .127-.154 1 1 0 0 0 0-1.105.982.982 0 0 0-.127-.155l-4.243-4.243a.994.994 0 0 0-.708-.294zm-23.213 7.578a.828.828 0 0 0-.674.306 1.251 1.251 0 0 0-.25.814 1.148 1.148 0 0 0 .259.8.928.928 0 0 0 .722.285 1.934 1.934 0 0 0 .336-.028 1.559 1.559 0 0 0 .332-.107v-.176a1.909 1.909 0 0 1-.349.109 1.761 1.761 0 0 1-.319.026.723.723 0 0 1-.573-.23 1.009 1.009 0 0 1-.2-.669h1.529v-.156a1.084 1.084 0 0 0-.217-.711.728.728 0 0 0-.596-.263zm-2.939-.472l-.1.481-.314.087v.113h.314v1.372a.7.7 0 0 0 .134.473.531.531 0 0 0 .415.15 1.021 1.021 0 0 0 .324-.047v-.157a1.465 1.465 0 0 1-.32.031.311.311 0 0 1-.269-.117.615.615 0 0 1-.086-.362v-1.344h.624v-.167h-.624v-.514zm-2.245 0l-.1.481-.315.087v.113h.315v1.372a.7.7 0 0 0 .133.473.531.531 0 0 0 .415.15 1.023 1.023 0 0 0 .325-.047v-.157a1.476 1.476 0 0 1-.32.031.314.314 0 0 1-.27-.117.622.622 0 0 1-.086-.362v-1.344h.623v-.167h-.623v-.514zm-2.31 2.317h.017a.733.733 0 0 0 .287.266.889.889 0 0 0 .409.094.82.82 0 0 0 .667-.287 1.255 1.255 0 0 0 .238-.816 1.29 1.29 0 0 0-.226-.82.814.814 0 0 0-.67-.28.87.87 0 0 0-.411.09.779.779 0 0 0-.292.281h-.013l.006-.166c0-.089.007-.189.007-.317v-.763h-.193V-346h.121l.055-.32zm-2.559-1.8v1.386c0 .515.244.776.724.776a.8.8 0 0 0 .736-.332h.012l.035.293h.165v-2.123h-.192v1.172a.9.9 0 0 1-.179.623.73.73 0 0 1-.557.192.547.547 0 0 1-.419-.146.679.679 0 0 1-.134-.466v-1.374zm-2.031 1.822v.21a1.475 1.475 0 0 0 .676.13 1.06 1.06 0 0 0 .615-.153.508.508 0 0 0 .217-.439.465.465 0 0 0-.065-.247.622.622 0 0 0-.2-.189 2.339 2.339 0 0 0-.418-.186 1.623 1.623 0 0 1-.462-.222.327.327 0 0 1-.118-.266.264.264 0 0 1 .152-.239.841.841 0 0 1 .412-.086 1.527 1.527 0 0 1 .58.13l.073-.176a1.7 1.7 0 0 0-.653-.129.974.974 0 0 0-.56.139.438.438 0 0 0-.2.377.475.475 0 0 0 .065.255.624.624 0 0 0 .194.188 2.513 2.513 0 0 0 .447.2 1.429 1.429 0 0 1 .427.214.34.34 0 0 1 .13.27.318.318 0 0 1-.164.278.887.887 0 0 1-.477.1 1.492 1.492 0 0 1-.676-.16zm-2.082-2.335l-.1.481-.314.087v.113h.314v1.372a.7.7 0 0 0 .134.473.531.531 0 0 0 .415.15 1.021 1.021 0 0 0 .324-.047v-.157a1.465 1.465 0 0 1-.32.031.311.311 0 0 1-.269-.117.616.616 0 0 1-.086-.362v-1.344h.624v-.167h-.624v-.514zm-3.493.472a.827.827 0 0 0-.673.306 1.25 1.25 0 0 0-.25.814 1.148 1.148 0 0 0 .259.8.926.926 0 0 0 .721.285 1.942 1.942 0 0 0 .337-.028 1.569 1.569 0 0 0 .332-.107v-.176a1.9 1.9 0 0 1-.349.109 1.77 1.77 0 0 1-.32.026.724.724 0 0 1-.573-.23 1.014 1.014 0 0 1-.2-.669h1.529v-.156a1.084 1.084 0 0 0-.217-.711.732.732 0 0 0-.596-.267zm-2.035-.472l-.1.481-.315.087v.113h.315v1.372a.7.7 0 0 0 .133.473.531.531 0 0 0 .415.15 1.011 1.011 0 0 0 .325-.047v-.157a1.477 1.477 0 0 1-.32.031.314.314 0 0 1-.27-.117.622.622 0 0 1-.086-.362v-1.344h.623v-.167h-.623v-.514zm-2.539.472a.827.827 0 0 0-.674.306 1.25 1.25 0 0 0-.249.814 1.148 1.148 0 0 0 .258.8.93.93 0 0 0 .722.285 1.934 1.934 0 0 0 .336-.028 1.559 1.559 0 0 0 .332-.107v-.176a1.88 1.88 0 0 1-.348.109 1.766 1.766 0 0 1-.319.026.722.722 0 0 1-.573-.23 1.013 1.013 0 0 1-.2-.669h1.529v-.156a1.089 1.089 0 0 0-.216-.711.732.732 0 0 0-.598-.267zm-5.855 0a.87.87 0 0 0-.691.29 1.2 1.2 0 0 0-.252.81 1.417 1.417 0 0 0 .113.582.867.867 0 0 0 .326.386.905.905 0 0 0 .492.135.872.872 0 0 0 .695-.292 1.21 1.21 0 0 0 .252-.812 1.212 1.212 0 0 0-.248-.806.856.856 0 0 0-.687-.297zm-3.139 1.889v.2a2.208 2.208 0 0 0 .8.115 1.092 1.092 0 0 0 .7-.209.689.689 0 0 0 .263-.567.666.666 0 0 0-.077-.333.717.717 0 0 0-.245-.246 2.455 2.455 0 0 0-.5-.224 2.528 2.528 0 0 1-.449-.193.534.534 0 0 1-.188-.183.518.518 0 0 1-.058-.26.476.476 0 0 1 .187-.4.8.8 0 0 1 .5-.146 1.784 1.784 0 0 1 .68.148l.072-.171a1.889 1.889 0 0 0-.755-.153 1 1 0 0 0-.646.2.643.643 0 0 0-.25.522.642.642 0 0 0 .167.466 1.562 1.562 0 0 0 .6.325 2.781 2.781 0 0 1 .453.19.625.625 0 0 1 .223.194.494.494 0 0 1 .068.268.514.514 0 0 1-.206.423.889.889 0 0 1-.558.161 2.046 2.046 0 0 1-.782-.131zm29.522-2.764V-346h.193v-3.039zm-2.244.916V-346h.193v-2.123zm-11.678 1.175l.668.947h.224l-.781-1.093.729-1.031h-.213l-.627.895-.633-.895h-.222l.74 1.031-.769 1.093h.213l.671-.947zm-8.777-1.041a.461.461 0 0 1 .371.143.692.692 0 0 1 .121.453V-346h.191v-1.389a.848.848 0 0 0-.174-.59.686.686 0 0 0-.521-.185.8.8 0 0 0-.4.1.724.724 0 0 0-.278.279h-.008a.611.611 0 0 0-.644-.377.742.742 0 0 0-.357.087.609.609 0 0 0-.25.245h-.012l-.041-.291h-.16V-346h.193v-1.173a1.015 1.015 0 0 1 .153-.622.582.582 0 0 1 .486-.194c.327 0 .492.181.492.537V-346h.2v-1.245a.849.849 0 0 1 .157-.564.607.607 0 0 1 .48-.18zm20.551-.912c-.082 0-.123.063-.123.187s.042.19.123.19a.107.107 0 0 0 .094-.051.24.24 0 0 0 .034-.139.233.233 0 0 0-.034-.139.109.109 0 0 0-.095-.051zm-.727-7.45a2.348 2.348 0 0 0-1.147.275 1.89 1.89 0 0 0-.768.78 2.456 2.456 0 0 0-.268 1.159 2.285 2.285 0 0 0 .541 1.622 2.044 2.044 0 0 0 1.554.572 3.564 3.564 0 0 0 1.4-.264v-1.954h-1.579v.281h1.274v1.506a2.687 2.687 0 0 1-1 .167 1.85 1.85 0 0 1-1.386-.488 2.025 2.025 0 0 1-.472-1.454 1.975 1.975 0 0 1 .5-1.411 1.77 1.77 0 0 1 1.343-.523 2.736 2.736 0 0 1 1.155.258l.119-.27a2.967 2.967 0 0 0-1.267-.259zm-18.554.067v2.759a1.581 1.581 0 0 0 .418 1.165 1.577 1.577 0 0 0 1.162.418 1.646 1.646 0 0 0 1.193-.416 1.542 1.542 0 0 0 .428-1.155v-2.771h-.3v2.8a1.28 1.28 0 0 1-.337.939 1.286 1.286 0 0 1-.949.338 1.31 1.31 0 0 1-.969-.344 1.31 1.31 0 0 1-.343-.963v-2.771zm-2.844-.067a1.777 1.777 0 0 0-1.4.588 2.369 2.369 0 0 0-.515 1.609 2.413 2.413 0 0 0 .51 1.619 1.759 1.759 0 0 0 1.4.593 1.765 1.765 0 0 0 1.407-.593 2.407 2.407 0 0 0 .509-1.613 2.406 2.406 0 0 0-.507-1.613 1.76 1.76 0 0 0-1.406-.593zm23.782.067v4.28h2.341v-.275h-2.042v-1.837h1.928v-.275h-1.928v-1.62h2.042v-.275zm-7.617 2.771h1.74l.595 1.512h.338l-1.687-4.3h-.191l-1.723 4.3h.331l.6-1.511zm-3.832-2.771v4.28h.3v-1.769h.662a1.908 1.908 0 0 0 1.2-.331 1.144 1.144 0 0 0 .422-.952c0-.816-.515-1.23-1.53-1.23zm-4.825 2.417h1.063l1.105 1.867h.357l-1.164-1.951a1.27 1.27 0 0 0 .69-.425 1.162 1.162 0 0 0 .227-.726 1.055 1.055 0 0 0-.381-.887 1.931 1.931 0 0 0-1.178-.294h-1.019V-352h.3v-1.866zm-12.973-2.417l1.432 2.651V-352h.308v-1.655l1.426-2.628h-.322l-1.254 2.344-1.248-2.344h-.342zm24.662 10.15a.639.639 0 0 1-.526-.209 1.111 1.111 0 0 1-.169-.689v-.033a1.2 1.2 0 0 1 .163-.709.632.632 0 0 1 .536-.215c.462 0 .7.309.7.92a1.176 1.176 0 0 1-.176.693.609.609 0 0 1-.529.239zm-21.31 0a.655.655 0 0 1-.544-.246 1.085 1.085 0 0 1-.193-.682 1.085 1.085 0 0 1 .191-.683.654.654 0 0 1 .542-.241.665.665 0 0 1 .546.242 1.071 1.071 0 0 1 .194.682 1.081 1.081 0 0 1-.193.682.655.655 0 0 1-.544.24zm28.695-1.071h-1.312a.95.95 0 0 1 .217-.582.638.638 0 0 1 .492-.2.529.529 0 0 1 .443.208.926.926 0 0 1 .16.576zm-17.658 0h-1.312a.951.951 0 0 1 .217-.582.636.636 0 0 1 .491-.2.532.532 0 0 1 .444.208.927.927 0 0 1 .16.576zm-4.574 0H-1953a.955.955 0 0 1 .217-.582.64.64 0 0 1 .492-.2.532.532 0 0 1 .444.208.931.931 0 0 1 .16.576zm-4.357-5.015a1.44 1.44 0 0 1-1.178-.5 2.207 2.207 0 0 1-.41-1.422 2.161 2.161 0 0 1 .414-1.415 1.455 1.455 0 0 1 1.18-.5 1.446 1.446 0 0 1 1.176.494 2.183 2.183 0 0 1 .409 1.419 2.209 2.209 0 0 1-.409 1.427 1.448 1.448 0 0 1-1.183.491zm17.813-1.559h-1.533l.6-1.538a4.894 4.894 0 0 0 .173-.51c.065.2.125.379.175.5l.583 1.543zm-4.585-.247h-.589v-1.986h.709a1.529 1.529 0 0 1 .943.239.875.875 0 0 1 .305.733.9.9 0 0 1-.323.775 1.79 1.79 0 0 1-1.047.233zm-4.9-.1h-.817v-1.89h.708a1.607 1.607 0 0 1 .956.223.841.841 0 0 1 .292.712.867.867 0 0 1-.3.713 1.308 1.308 0 0 1-.836.24z"
          class="cls-2" data-name="Вычитание 8" transform="translate(2424 731)"/>
    <path id="Вычитание_9"
          d="M-1893-338h-97v-26h97v26zm-81-21a8.009 8.009 0 0 0-8 8 8.009 8.009 0 0 0 8 8 8.009 8.009 0 0 0 8-8 8.009 8.009 0 0 0-8-8zm67.157 3.258a.994.994 0 0 0-.707.293 1 1 0 0 0 0 1.415l3.536 3.535-3.535 3.536a.991.991 0 0 0-.293.706.994.994 0 0 0 .293.708.993.993 0 0 0 .707.293.994.994 0 0 0 .707-.293l4.243-4.243a.965.965 0 0 0 .127-.154 1 1 0 0 0 0-1.105.982.982 0 0 0-.127-.155l-4.243-4.243a.994.994 0 0 0-.708-.294zm-23.213 7.578a.828.828 0 0 0-.674.306 1.251 1.251 0 0 0-.25.814 1.148 1.148 0 0 0 .259.8.928.928 0 0 0 .722.285 1.934 1.934 0 0 0 .336-.028 1.559 1.559 0 0 0 .332-.107v-.176a1.909 1.909 0 0 1-.349.109 1.761 1.761 0 0 1-.319.026.723.723 0 0 1-.573-.23 1.009 1.009 0 0 1-.2-.669h1.529v-.156a1.084 1.084 0 0 0-.217-.711.728.728 0 0 0-.596-.263zm-2.939-.472l-.1.481-.314.087v.113h.314v1.372a.7.7 0 0 0 .134.473.531.531 0 0 0 .415.15 1.021 1.021 0 0 0 .324-.047v-.157a1.465 1.465 0 0 1-.32.031.311.311 0 0 1-.269-.117.615.615 0 0 1-.086-.362v-1.344h.624v-.167h-.624v-.514zm-2.245 0l-.1.481-.315.087v.113h.315v1.372a.7.7 0 0 0 .133.473.531.531 0 0 0 .415.15 1.023 1.023 0 0 0 .325-.047v-.157a1.476 1.476 0 0 1-.32.031.314.314 0 0 1-.27-.117.622.622 0 0 1-.086-.362v-1.344h.623v-.167h-.623v-.514zm-2.31 2.317h.017a.733.733 0 0 0 .287.266.889.889 0 0 0 .409.094.82.82 0 0 0 .667-.287 1.255 1.255 0 0 0 .238-.816 1.29 1.29 0 0 0-.226-.82.814.814 0 0 0-.67-.28.87.87 0 0 0-.411.09.779.779 0 0 0-.292.281h-.013l.006-.166c0-.089.007-.189.007-.317v-.763h-.193V-346h.121l.055-.32zm-2.559-1.8v1.386c0 .515.244.776.724.776a.8.8 0 0 0 .736-.332h.012l.035.293h.165v-2.123h-.192v1.172a.9.9 0 0 1-.179.623.73.73 0 0 1-.557.192.547.547 0 0 1-.419-.146.679.679 0 0 1-.134-.466v-1.374zm-2.031 1.822v.21a1.475 1.475 0 0 0 .676.13 1.06 1.06 0 0 0 .615-.153.508.508 0 0 0 .217-.439.465.465 0 0 0-.065-.247.622.622 0 0 0-.2-.189 2.339 2.339 0 0 0-.418-.186 1.623 1.623 0 0 1-.462-.222.327.327 0 0 1-.118-.266.264.264 0 0 1 .152-.239.841.841 0 0 1 .412-.086 1.527 1.527 0 0 1 .58.13l.073-.176a1.7 1.7 0 0 0-.653-.129.974.974 0 0 0-.56.139.438.438 0 0 0-.2.377.475.475 0 0 0 .065.255.624.624 0 0 0 .194.188 2.513 2.513 0 0 0 .447.2 1.429 1.429 0 0 1 .427.214.34.34 0 0 1 .13.27.318.318 0 0 1-.164.278.887.887 0 0 1-.477.1 1.492 1.492 0 0 1-.676-.16zm-2.082-2.335l-.1.481-.314.087v.113h.314v1.372a.7.7 0 0 0 .134.473.531.531 0 0 0 .415.15 1.021 1.021 0 0 0 .324-.047v-.157a1.465 1.465 0 0 1-.32.031.311.311 0 0 1-.269-.117.616.616 0 0 1-.086-.362v-1.344h.624v-.167h-.624v-.514zm-3.493.472a.827.827 0 0 0-.673.306 1.25 1.25 0 0 0-.25.814 1.148 1.148 0 0 0 .259.8.926.926 0 0 0 .721.285 1.942 1.942 0 0 0 .337-.028 1.569 1.569 0 0 0 .332-.107v-.176a1.9 1.9 0 0 1-.349.109 1.77 1.77 0 0 1-.32.026.724.724 0 0 1-.573-.23 1.014 1.014 0 0 1-.2-.669h1.529v-.156a1.084 1.084 0 0 0-.217-.711.732.732 0 0 0-.596-.267zm-2.035-.472l-.1.481-.315.087v.113h.315v1.372a.7.7 0 0 0 .133.473.531.531 0 0 0 .415.15 1.011 1.011 0 0 0 .325-.047v-.157a1.477 1.477 0 0 1-.32.031.314.314 0 0 1-.27-.117.622.622 0 0 1-.086-.362v-1.344h.623v-.167h-.623v-.514zm-2.539.472a.827.827 0 0 0-.674.306 1.25 1.25 0 0 0-.249.814 1.148 1.148 0 0 0 .258.8.93.93 0 0 0 .722.285 1.934 1.934 0 0 0 .336-.028 1.559 1.559 0 0 0 .332-.107v-.176a1.88 1.88 0 0 1-.348.109 1.766 1.766 0 0 1-.319.026.722.722 0 0 1-.573-.23 1.013 1.013 0 0 1-.2-.669h1.529v-.156a1.089 1.089 0 0 0-.216-.711.732.732 0 0 0-.598-.267zm-5.855 0a.87.87 0 0 0-.691.29 1.2 1.2 0 0 0-.252.81 1.417 1.417 0 0 0 .113.582.867.867 0 0 0 .326.386.905.905 0 0 0 .492.135.872.872 0 0 0 .695-.292 1.21 1.21 0 0 0 .252-.812 1.212 1.212 0 0 0-.248-.806.856.856 0 0 0-.687-.297zm-3.139 1.889v.2a2.208 2.208 0 0 0 .8.115 1.092 1.092 0 0 0 .7-.209.689.689 0 0 0 .263-.567.666.666 0 0 0-.077-.333.717.717 0 0 0-.245-.246 2.455 2.455 0 0 0-.5-.224 2.528 2.528 0 0 1-.449-.193.534.534 0 0 1-.188-.183.518.518 0 0 1-.058-.26.476.476 0 0 1 .187-.4.8.8 0 0 1 .5-.146 1.784 1.784 0 0 1 .68.148l.072-.171a1.889 1.889 0 0 0-.755-.153 1 1 0 0 0-.646.2.643.643 0 0 0-.25.522.642.642 0 0 0 .167.466 1.562 1.562 0 0 0 .6.325 2.781 2.781 0 0 1 .453.19.625.625 0 0 1 .223.194.494.494 0 0 1 .068.268.514.514 0 0 1-.206.423.889.889 0 0 1-.558.161 2.046 2.046 0 0 1-.782-.131zm29.522-2.764V-346h.193v-3.039zm-2.244.916V-346h.193v-2.123zm-11.678 1.175l.668.947h.224l-.781-1.093.729-1.031h-.213l-.627.895-.633-.895h-.222l.74 1.031-.769 1.093h.213l.671-.947zm-8.777-1.041a.461.461 0 0 1 .371.143.692.692 0 0 1 .121.453V-346h.191v-1.389a.848.848 0 0 0-.174-.59.686.686 0 0 0-.521-.185.8.8 0 0 0-.4.1.724.724 0 0 0-.278.279h-.008a.611.611 0 0 0-.644-.377.742.742 0 0 0-.357.087.609.609 0 0 0-.25.245h-.012l-.041-.291h-.16V-346h.193v-1.173a1.015 1.015 0 0 1 .153-.622.582.582 0 0 1 .486-.194c.327 0 .492.181.492.537V-346h.2v-1.245a.849.849 0 0 1 .157-.564.607.607 0 0 1 .48-.18zm20.551-.912c-.082 0-.123.063-.123.187s.042.19.123.19a.107.107 0 0 0 .094-.051.24.24 0 0 0 .034-.139.233.233 0 0 0-.034-.139.109.109 0 0 0-.095-.051zm-.727-7.45a2.348 2.348 0 0 0-1.147.275 1.89 1.89 0 0 0-.768.78 2.456 2.456 0 0 0-.268 1.159 2.285 2.285 0 0 0 .541 1.622 2.044 2.044 0 0 0 1.554.572 3.564 3.564 0 0 0 1.4-.264v-1.954h-1.579v.281h1.274v1.506a2.687 2.687 0 0 1-1 .167 1.85 1.85 0 0 1-1.386-.488 2.025 2.025 0 0 1-.472-1.454 1.975 1.975 0 0 1 .5-1.411 1.77 1.77 0 0 1 1.343-.523 2.736 2.736 0 0 1 1.155.258l.119-.27a2.967 2.967 0 0 0-1.267-.259zm-18.554.067v2.759a1.581 1.581 0 0 0 .418 1.165 1.577 1.577 0 0 0 1.162.418 1.646 1.646 0 0 0 1.193-.416 1.542 1.542 0 0 0 .428-1.155v-2.771h-.3v2.8a1.28 1.28 0 0 1-.337.939 1.286 1.286 0 0 1-.949.338 1.31 1.31 0 0 1-.969-.344 1.31 1.31 0 0 1-.343-.963v-2.771zm-2.844-.067a1.777 1.777 0 0 0-1.4.588 2.369 2.369 0 0 0-.515 1.609 2.413 2.413 0 0 0 .51 1.619 1.759 1.759 0 0 0 1.4.593 1.765 1.765 0 0 0 1.407-.593 2.407 2.407 0 0 0 .509-1.613 2.406 2.406 0 0 0-.507-1.613 1.76 1.76 0 0 0-1.406-.593zm23.782.067v4.28h2.341v-.275h-2.042v-1.837h1.928v-.275h-1.928v-1.62h2.042v-.275zm-7.617 2.771h1.74l.595 1.512h.338l-1.687-4.3h-.191l-1.723 4.3h.331l.6-1.511zm-3.832-2.771v4.28h.3v-1.769h.662a1.908 1.908 0 0 0 1.2-.331 1.144 1.144 0 0 0 .422-.952c0-.816-.515-1.23-1.53-1.23zm-4.825 2.417h1.063l1.105 1.867h.357l-1.164-1.951a1.27 1.27 0 0 0 .69-.425 1.162 1.162 0 0 0 .227-.726 1.055 1.055 0 0 0-.381-.887 1.931 1.931 0 0 0-1.178-.294h-1.019V-352h.3v-1.866zm-12.973-2.417l1.432 2.651V-352h.308v-1.655l1.426-2.628h-.322l-1.254 2.344-1.248-2.344h-.342zm24.662 10.15a.639.639 0 0 1-.526-.209 1.111 1.111 0 0 1-.169-.689v-.033a1.2 1.2 0 0 1 .163-.709.632.632 0 0 1 .536-.215c.462 0 .7.309.7.92a1.176 1.176 0 0 1-.176.693.609.609 0 0 1-.529.239zm-21.31 0a.655.655 0 0 1-.544-.246 1.085 1.085 0 0 1-.193-.682 1.085 1.085 0 0 1 .191-.683.654.654 0 0 1 .542-.241.665.665 0 0 1 .546.242 1.071 1.071 0 0 1 .194.682 1.081 1.081 0 0 1-.193.682.655.655 0 0 1-.544.24zm28.695-1.071h-1.312a.95.95 0 0 1 .217-.582.638.638 0 0 1 .492-.2.529.529 0 0 1 .443.208.926.926 0 0 1 .16.576zm-17.658 0h-1.312a.951.951 0 0 1 .217-.582.636.636 0 0 1 .491-.2.532.532 0 0 1 .444.208.927.927 0 0 1 .16.576zm-4.574 0H-1953a.955.955 0 0 1 .217-.582.64.64 0 0 1 .492-.2.532.532 0 0 1 .444.208.931.931 0 0 1 .16.576zm-4.357-5.015a1.44 1.44 0 0 1-1.178-.5 2.207 2.207 0 0 1-.41-1.422 2.161 2.161 0 0 1 .414-1.415 1.455 1.455 0 0 1 1.18-.5 1.446 1.446 0 0 1 1.176.494 2.183 2.183 0 0 1 .409 1.419 2.209 2.209 0 0 1-.409 1.427 1.448 1.448 0 0 1-1.183.491zm17.813-1.559h-1.533l.6-1.538a4.894 4.894 0 0 0 .173-.51c.065.2.125.379.175.5l.583 1.543zm-4.585-.247h-.589v-1.986h.709a1.529 1.529 0 0 1 .943.239.875.875 0 0 1 .305.733.9.9 0 0 1-.323.775 1.79 1.79 0 0 1-1.047.233zm-4.9-.1h-.817v-1.89h.708a1.607 1.607 0 0 1 .956.223.841.841 0 0 1 .292.712.867.867 0 0 1-.3.713 1.308 1.308 0 0 1-.836.24z"
          class="cls-2" data-name="Вычитание 9" transform="translate(2424 759)"/>
    <path id="Вычитание_10"
          d="M-1893-338h-97v-26h97v26zm-81-21a8.009 8.009 0 0 0-8 8 8.009 8.009 0 0 0 8 8 8.009 8.009 0 0 0 8-8 8.009 8.009 0 0 0-8-8zm67.157 3.258a.994.994 0 0 0-.707.293 1 1 0 0 0 0 1.415l3.536 3.535-3.535 3.536a.991.991 0 0 0-.293.706.994.994 0 0 0 .293.708.993.993 0 0 0 .707.293.994.994 0 0 0 .707-.293l4.243-4.243a.965.965 0 0 0 .127-.154 1 1 0 0 0 0-1.105.982.982 0 0 0-.127-.155l-4.243-4.243a.994.994 0 0 0-.708-.294zm-23.213 7.578a.828.828 0 0 0-.674.306 1.251 1.251 0 0 0-.25.814 1.148 1.148 0 0 0 .259.8.928.928 0 0 0 .722.285 1.934 1.934 0 0 0 .336-.028 1.559 1.559 0 0 0 .332-.107v-.176a1.909 1.909 0 0 1-.349.109 1.761 1.761 0 0 1-.319.026.723.723 0 0 1-.573-.23 1.009 1.009 0 0 1-.2-.669h1.529v-.156a1.084 1.084 0 0 0-.217-.711.728.728 0 0 0-.596-.263zm-2.939-.472l-.1.481-.314.087v.113h.314v1.372a.7.7 0 0 0 .134.473.531.531 0 0 0 .415.15 1.021 1.021 0 0 0 .324-.047v-.157a1.465 1.465 0 0 1-.32.031.311.311 0 0 1-.269-.117.615.615 0 0 1-.086-.362v-1.344h.624v-.167h-.624v-.514zm-2.245 0l-.1.481-.315.087v.113h.315v1.372a.7.7 0 0 0 .133.473.531.531 0 0 0 .415.15 1.023 1.023 0 0 0 .325-.047v-.157a1.476 1.476 0 0 1-.32.031.314.314 0 0 1-.27-.117.622.622 0 0 1-.086-.362v-1.344h.623v-.167h-.623v-.514zm-2.31 2.317h.017a.733.733 0 0 0 .287.266.889.889 0 0 0 .409.094.82.82 0 0 0 .667-.287 1.255 1.255 0 0 0 .238-.816 1.29 1.29 0 0 0-.226-.82.814.814 0 0 0-.67-.28.87.87 0 0 0-.411.09.779.779 0 0 0-.292.281h-.013l.006-.166c0-.089.007-.189.007-.317v-.763h-.193V-346h.121l.055-.32zm-2.559-1.8v1.386c0 .515.244.776.724.776a.8.8 0 0 0 .736-.332h.012l.035.293h.165v-2.123h-.192v1.172a.9.9 0 0 1-.179.623.73.73 0 0 1-.557.192.547.547 0 0 1-.419-.146.679.679 0 0 1-.134-.466v-1.374zm-2.031 1.822v.21a1.475 1.475 0 0 0 .676.13 1.06 1.06 0 0 0 .615-.153.508.508 0 0 0 .217-.439.465.465 0 0 0-.065-.247.622.622 0 0 0-.2-.189 2.339 2.339 0 0 0-.418-.186 1.623 1.623 0 0 1-.462-.222.327.327 0 0 1-.118-.266.264.264 0 0 1 .152-.239.841.841 0 0 1 .412-.086 1.527 1.527 0 0 1 .58.13l.073-.176a1.7 1.7 0 0 0-.653-.129.974.974 0 0 0-.56.139.438.438 0 0 0-.2.377.475.475 0 0 0 .065.255.624.624 0 0 0 .194.188 2.513 2.513 0 0 0 .447.2 1.429 1.429 0 0 1 .427.214.34.34 0 0 1 .13.27.318.318 0 0 1-.164.278.887.887 0 0 1-.477.1 1.492 1.492 0 0 1-.676-.16zm-2.082-2.335l-.1.481-.314.087v.113h.314v1.372a.7.7 0 0 0 .134.473.531.531 0 0 0 .415.15 1.021 1.021 0 0 0 .324-.047v-.157a1.465 1.465 0 0 1-.32.031.311.311 0 0 1-.269-.117.616.616 0 0 1-.086-.362v-1.344h.624v-.167h-.624v-.514zm-3.493.472a.827.827 0 0 0-.673.306 1.25 1.25 0 0 0-.25.814 1.148 1.148 0 0 0 .259.8.926.926 0 0 0 .721.285 1.942 1.942 0 0 0 .337-.028 1.569 1.569 0 0 0 .332-.107v-.176a1.9 1.9 0 0 1-.349.109 1.77 1.77 0 0 1-.32.026.724.724 0 0 1-.573-.23 1.014 1.014 0 0 1-.2-.669h1.529v-.156a1.084 1.084 0 0 0-.217-.711.732.732 0 0 0-.596-.267zm-2.035-.472l-.1.481-.315.087v.113h.315v1.372a.7.7 0 0 0 .133.473.531.531 0 0 0 .415.15 1.011 1.011 0 0 0 .325-.047v-.157a1.477 1.477 0 0 1-.32.031.314.314 0 0 1-.27-.117.622.622 0 0 1-.086-.362v-1.344h.623v-.167h-.623v-.514zm-2.539.472a.827.827 0 0 0-.674.306 1.25 1.25 0 0 0-.249.814 1.148 1.148 0 0 0 .258.8.93.93 0 0 0 .722.285 1.934 1.934 0 0 0 .336-.028 1.559 1.559 0 0 0 .332-.107v-.176a1.88 1.88 0 0 1-.348.109 1.766 1.766 0 0 1-.319.026.722.722 0 0 1-.573-.23 1.013 1.013 0 0 1-.2-.669h1.529v-.156a1.089 1.089 0 0 0-.216-.711.732.732 0 0 0-.598-.267zm-5.855 0a.87.87 0 0 0-.691.29 1.2 1.2 0 0 0-.252.81 1.417 1.417 0 0 0 .113.582.867.867 0 0 0 .326.386.905.905 0 0 0 .492.135.872.872 0 0 0 .695-.292 1.21 1.21 0 0 0 .252-.812 1.212 1.212 0 0 0-.248-.806.856.856 0 0 0-.687-.297zm-3.139 1.889v.2a2.208 2.208 0 0 0 .8.115 1.092 1.092 0 0 0 .7-.209.689.689 0 0 0 .263-.567.666.666 0 0 0-.077-.333.717.717 0 0 0-.245-.246 2.455 2.455 0 0 0-.5-.224 2.528 2.528 0 0 1-.449-.193.534.534 0 0 1-.188-.183.518.518 0 0 1-.058-.26.476.476 0 0 1 .187-.4.8.8 0 0 1 .5-.146 1.784 1.784 0 0 1 .68.148l.072-.171a1.889 1.889 0 0 0-.755-.153 1 1 0 0 0-.646.2.643.643 0 0 0-.25.522.642.642 0 0 0 .167.466 1.562 1.562 0 0 0 .6.325 2.781 2.781 0 0 1 .453.19.625.625 0 0 1 .223.194.494.494 0 0 1 .068.268.514.514 0 0 1-.206.423.889.889 0 0 1-.558.161 2.046 2.046 0 0 1-.782-.131zm29.522-2.764V-346h.193v-3.039zm-2.244.916V-346h.193v-2.123zm-11.678 1.175l.668.947h.224l-.781-1.093.729-1.031h-.213l-.627.895-.633-.895h-.222l.74 1.031-.769 1.093h.213l.671-.947zm-8.777-1.041a.461.461 0 0 1 .371.143.692.692 0 0 1 .121.453V-346h.191v-1.389a.848.848 0 0 0-.174-.59.686.686 0 0 0-.521-.185.8.8 0 0 0-.4.1.724.724 0 0 0-.278.279h-.008a.611.611 0 0 0-.644-.377.742.742 0 0 0-.357.087.609.609 0 0 0-.25.245h-.012l-.041-.291h-.16V-346h.193v-1.173a1.015 1.015 0 0 1 .153-.622.582.582 0 0 1 .486-.194c.327 0 .492.181.492.537V-346h.2v-1.245a.849.849 0 0 1 .157-.564.607.607 0 0 1 .48-.18zm20.551-.912c-.082 0-.123.063-.123.187s.042.19.123.19a.107.107 0 0 0 .094-.051.24.24 0 0 0 .034-.139.233.233 0 0 0-.034-.139.109.109 0 0 0-.095-.051zm-.727-7.45a2.348 2.348 0 0 0-1.147.275 1.89 1.89 0 0 0-.768.78 2.456 2.456 0 0 0-.268 1.159 2.285 2.285 0 0 0 .541 1.622 2.044 2.044 0 0 0 1.554.572 3.564 3.564 0 0 0 1.4-.264v-1.954h-1.579v.281h1.274v1.506a2.687 2.687 0 0 1-1 .167 1.85 1.85 0 0 1-1.386-.488 2.025 2.025 0 0 1-.472-1.454 1.975 1.975 0 0 1 .5-1.411 1.77 1.77 0 0 1 1.343-.523 2.736 2.736 0 0 1 1.155.258l.119-.27a2.967 2.967 0 0 0-1.267-.259zm-18.554.067v2.759a1.581 1.581 0 0 0 .418 1.165 1.577 1.577 0 0 0 1.162.418 1.646 1.646 0 0 0 1.193-.416 1.542 1.542 0 0 0 .428-1.155v-2.771h-.3v2.8a1.28 1.28 0 0 1-.337.939 1.286 1.286 0 0 1-.949.338 1.31 1.31 0 0 1-.969-.344 1.31 1.31 0 0 1-.343-.963v-2.771zm-2.844-.067a1.777 1.777 0 0 0-1.4.588 2.369 2.369 0 0 0-.515 1.609 2.413 2.413 0 0 0 .51 1.619 1.759 1.759 0 0 0 1.4.593 1.765 1.765 0 0 0 1.407-.593 2.407 2.407 0 0 0 .509-1.613 2.406 2.406 0 0 0-.507-1.613 1.76 1.76 0 0 0-1.406-.593zm23.782.067v4.28h2.341v-.275h-2.042v-1.837h1.928v-.275h-1.928v-1.62h2.042v-.275zm-7.617 2.771h1.74l.595 1.512h.338l-1.687-4.3h-.191l-1.723 4.3h.331l.6-1.511zm-3.832-2.771v4.28h.3v-1.769h.662a1.908 1.908 0 0 0 1.2-.331 1.144 1.144 0 0 0 .422-.952c0-.816-.515-1.23-1.53-1.23zm-4.825 2.417h1.063l1.105 1.867h.357l-1.164-1.951a1.27 1.27 0 0 0 .69-.425 1.162 1.162 0 0 0 .227-.726 1.055 1.055 0 0 0-.381-.887 1.931 1.931 0 0 0-1.178-.294h-1.019V-352h.3v-1.866zm-12.973-2.417l1.432 2.651V-352h.308v-1.655l1.426-2.628h-.322l-1.254 2.344-1.248-2.344h-.342zm24.662 10.15a.639.639 0 0 1-.526-.209 1.111 1.111 0 0 1-.169-.689v-.033a1.2 1.2 0 0 1 .163-.709.632.632 0 0 1 .536-.215c.462 0 .7.309.7.92a1.176 1.176 0 0 1-.176.693.609.609 0 0 1-.529.239zm-21.31 0a.655.655 0 0 1-.544-.246 1.085 1.085 0 0 1-.193-.682 1.085 1.085 0 0 1 .191-.683.654.654 0 0 1 .542-.241.665.665 0 0 1 .546.242 1.071 1.071 0 0 1 .194.682 1.081 1.081 0 0 1-.193.682.655.655 0 0 1-.544.24zm28.695-1.071h-1.312a.95.95 0 0 1 .217-.582.638.638 0 0 1 .492-.2.529.529 0 0 1 .443.208.926.926 0 0 1 .16.576zm-17.658 0h-1.312a.951.951 0 0 1 .217-.582.636.636 0 0 1 .491-.2.532.532 0 0 1 .444.208.927.927 0 0 1 .16.576zm-4.574 0H-1953a.955.955 0 0 1 .217-.582.64.64 0 0 1 .492-.2.532.532 0 0 1 .444.208.931.931 0 0 1 .16.576zm-4.357-5.015a1.44 1.44 0 0 1-1.178-.5 2.207 2.207 0 0 1-.41-1.422 2.161 2.161 0 0 1 .414-1.415 1.455 1.455 0 0 1 1.18-.5 1.446 1.446 0 0 1 1.176.494 2.183 2.183 0 0 1 .409 1.419 2.209 2.209 0 0 1-.409 1.427 1.448 1.448 0 0 1-1.183.491zm17.813-1.559h-1.533l.6-1.538a4.894 4.894 0 0 0 .173-.51c.065.2.125.379.175.5l.583 1.543zm-4.585-.247h-.589v-1.986h.709a1.529 1.529 0 0 1 .943.239.875.875 0 0 1 .305.733.9.9 0 0 1-.323.775 1.79 1.79 0 0 1-1.047.233zm-4.9-.1h-.817v-1.89h.708a1.607 1.607 0 0 1 .956.223.841.841 0 0 1 .292.712.867.867 0 0 1-.3.713 1.308 1.308 0 0 1-.836.24z"
          class="cls-2" data-name="Вычитание 10" transform="translate(2424 787)"/>
    <path id="Вычитание_11"
          d="M-1893-338h-97v-26h97v26zm-81-21a8.009 8.009 0 0 0-8 8 8.009 8.009 0 0 0 8 8 8.009 8.009 0 0 0 8-8 8.009 8.009 0 0 0-8-8zm67.157 3.258a.994.994 0 0 0-.707.293 1 1 0 0 0 0 1.415l3.536 3.535-3.535 3.536a.991.991 0 0 0-.293.706.994.994 0 0 0 .293.708.993.993 0 0 0 .707.293.994.994 0 0 0 .707-.293l4.243-4.243a.965.965 0 0 0 .127-.154 1 1 0 0 0 0-1.105.982.982 0 0 0-.127-.155l-4.243-4.243a.994.994 0 0 0-.708-.294zm-23.213 7.578a.828.828 0 0 0-.674.306 1.251 1.251 0 0 0-.25.814 1.148 1.148 0 0 0 .259.8.928.928 0 0 0 .722.285 1.934 1.934 0 0 0 .336-.028 1.559 1.559 0 0 0 .332-.107v-.176a1.909 1.909 0 0 1-.349.109 1.761 1.761 0 0 1-.319.026.723.723 0 0 1-.573-.23 1.009 1.009 0 0 1-.2-.669h1.529v-.156a1.084 1.084 0 0 0-.217-.711.728.728 0 0 0-.596-.263zm-2.939-.472l-.1.481-.314.087v.113h.314v1.372a.7.7 0 0 0 .134.473.531.531 0 0 0 .415.15 1.021 1.021 0 0 0 .324-.047v-.157a1.465 1.465 0 0 1-.32.031.311.311 0 0 1-.269-.117.615.615 0 0 1-.086-.362v-1.344h.624v-.167h-.624v-.514zm-2.245 0l-.1.481-.315.087v.113h.315v1.372a.7.7 0 0 0 .133.473.531.531 0 0 0 .415.15 1.023 1.023 0 0 0 .325-.047v-.157a1.476 1.476 0 0 1-.32.031.314.314 0 0 1-.27-.117.622.622 0 0 1-.086-.362v-1.344h.623v-.167h-.623v-.514zm-2.31 2.317h.017a.733.733 0 0 0 .287.266.889.889 0 0 0 .409.094.82.82 0 0 0 .667-.287 1.255 1.255 0 0 0 .238-.816 1.29 1.29 0 0 0-.226-.82.814.814 0 0 0-.67-.28.87.87 0 0 0-.411.09.779.779 0 0 0-.292.281h-.013l.006-.166c0-.089.007-.189.007-.317v-.763h-.193V-346h.121l.055-.32zm-2.559-1.8v1.386c0 .515.244.776.724.776a.8.8 0 0 0 .736-.332h.012l.035.293h.165v-2.123h-.192v1.172a.9.9 0 0 1-.179.623.73.73 0 0 1-.557.192.547.547 0 0 1-.419-.146.679.679 0 0 1-.134-.466v-1.374zm-2.031 1.822v.21a1.475 1.475 0 0 0 .676.13 1.06 1.06 0 0 0 .615-.153.508.508 0 0 0 .217-.439.465.465 0 0 0-.065-.247.622.622 0 0 0-.2-.189 2.339 2.339 0 0 0-.418-.186 1.623 1.623 0 0 1-.462-.222.327.327 0 0 1-.118-.266.264.264 0 0 1 .152-.239.841.841 0 0 1 .412-.086 1.527 1.527 0 0 1 .58.13l.073-.176a1.7 1.7 0 0 0-.653-.129.974.974 0 0 0-.56.139.438.438 0 0 0-.2.377.475.475 0 0 0 .065.255.624.624 0 0 0 .194.188 2.513 2.513 0 0 0 .447.2 1.429 1.429 0 0 1 .427.214.34.34 0 0 1 .13.27.318.318 0 0 1-.164.278.887.887 0 0 1-.477.1 1.492 1.492 0 0 1-.676-.16zm-2.082-2.335l-.1.481-.314.087v.113h.314v1.372a.7.7 0 0 0 .134.473.531.531 0 0 0 .415.15 1.021 1.021 0 0 0 .324-.047v-.157a1.465 1.465 0 0 1-.32.031.311.311 0 0 1-.269-.117.616.616 0 0 1-.086-.362v-1.344h.624v-.167h-.624v-.514zm-3.493.472a.827.827 0 0 0-.673.306 1.25 1.25 0 0 0-.25.814 1.148 1.148 0 0 0 .259.8.926.926 0 0 0 .721.285 1.942 1.942 0 0 0 .337-.028 1.569 1.569 0 0 0 .332-.107v-.176a1.9 1.9 0 0 1-.349.109 1.77 1.77 0 0 1-.32.026.724.724 0 0 1-.573-.23 1.014 1.014 0 0 1-.2-.669h1.529v-.156a1.084 1.084 0 0 0-.217-.711.732.732 0 0 0-.596-.267zm-2.035-.472l-.1.481-.315.087v.113h.315v1.372a.7.7 0 0 0 .133.473.531.531 0 0 0 .415.15 1.011 1.011 0 0 0 .325-.047v-.157a1.477 1.477 0 0 1-.32.031.314.314 0 0 1-.27-.117.622.622 0 0 1-.086-.362v-1.344h.623v-.167h-.623v-.514zm-2.539.472a.827.827 0 0 0-.674.306 1.25 1.25 0 0 0-.249.814 1.148 1.148 0 0 0 .258.8.93.93 0 0 0 .722.285 1.934 1.934 0 0 0 .336-.028 1.559 1.559 0 0 0 .332-.107v-.176a1.88 1.88 0 0 1-.348.109 1.766 1.766 0 0 1-.319.026.722.722 0 0 1-.573-.23 1.013 1.013 0 0 1-.2-.669h1.529v-.156a1.089 1.089 0 0 0-.216-.711.732.732 0 0 0-.598-.267zm-5.855 0a.87.87 0 0 0-.691.29 1.2 1.2 0 0 0-.252.81 1.417 1.417 0 0 0 .113.582.867.867 0 0 0 .326.386.905.905 0 0 0 .492.135.872.872 0 0 0 .695-.292 1.21 1.21 0 0 0 .252-.812 1.212 1.212 0 0 0-.248-.806.856.856 0 0 0-.687-.297zm-3.139 1.889v.2a2.208 2.208 0 0 0 .8.115 1.092 1.092 0 0 0 .7-.209.689.689 0 0 0 .263-.567.666.666 0 0 0-.077-.333.717.717 0 0 0-.245-.246 2.455 2.455 0 0 0-.5-.224 2.528 2.528 0 0 1-.449-.193.534.534 0 0 1-.188-.183.518.518 0 0 1-.058-.26.476.476 0 0 1 .187-.4.8.8 0 0 1 .5-.146 1.784 1.784 0 0 1 .68.148l.072-.171a1.889 1.889 0 0 0-.755-.153 1 1 0 0 0-.646.2.643.643 0 0 0-.25.522.642.642 0 0 0 .167.466 1.562 1.562 0 0 0 .6.325 2.781 2.781 0 0 1 .453.19.625.625 0 0 1 .223.194.494.494 0 0 1 .068.268.514.514 0 0 1-.206.423.889.889 0 0 1-.558.161 2.046 2.046 0 0 1-.782-.131zm29.522-2.764V-346h.193v-3.039zm-2.244.916V-346h.193v-2.123zm-11.678 1.175l.668.947h.224l-.781-1.093.729-1.031h-.213l-.627.895-.633-.895h-.222l.74 1.031-.769 1.093h.213l.671-.947zm-8.777-1.041a.461.461 0 0 1 .371.143.692.692 0 0 1 .121.453V-346h.191v-1.389a.848.848 0 0 0-.174-.59.686.686 0 0 0-.521-.185.8.8 0 0 0-.4.1.724.724 0 0 0-.278.279h-.008a.611.611 0 0 0-.644-.377.742.742 0 0 0-.357.087.609.609 0 0 0-.25.245h-.012l-.041-.291h-.16V-346h.193v-1.173a1.015 1.015 0 0 1 .153-.622.582.582 0 0 1 .486-.194c.327 0 .492.181.492.537V-346h.2v-1.245a.849.849 0 0 1 .157-.564.607.607 0 0 1 .48-.18zm20.551-.912c-.082 0-.123.063-.123.187s.042.19.123.19a.107.107 0 0 0 .094-.051.24.24 0 0 0 .034-.139.233.233 0 0 0-.034-.139.109.109 0 0 0-.095-.051zm-.727-7.45a2.348 2.348 0 0 0-1.147.275 1.89 1.89 0 0 0-.768.78 2.456 2.456 0 0 0-.268 1.159 2.285 2.285 0 0 0 .541 1.622 2.044 2.044 0 0 0 1.554.572 3.564 3.564 0 0 0 1.4-.264v-1.954h-1.579v.281h1.274v1.506a2.687 2.687 0 0 1-1 .167 1.85 1.85 0 0 1-1.386-.488 2.025 2.025 0 0 1-.472-1.454 1.975 1.975 0 0 1 .5-1.411 1.77 1.77 0 0 1 1.343-.523 2.736 2.736 0 0 1 1.155.258l.119-.27a2.967 2.967 0 0 0-1.267-.259zm-18.554.067v2.759a1.581 1.581 0 0 0 .418 1.165 1.577 1.577 0 0 0 1.162.418 1.646 1.646 0 0 0 1.193-.416 1.542 1.542 0 0 0 .428-1.155v-2.771h-.3v2.8a1.28 1.28 0 0 1-.337.939 1.286 1.286 0 0 1-.949.338 1.31 1.31 0 0 1-.969-.344 1.31 1.31 0 0 1-.343-.963v-2.771zm-2.844-.067a1.777 1.777 0 0 0-1.4.588 2.369 2.369 0 0 0-.515 1.609 2.413 2.413 0 0 0 .51 1.619 1.759 1.759 0 0 0 1.4.593 1.765 1.765 0 0 0 1.407-.593 2.407 2.407 0 0 0 .509-1.613 2.406 2.406 0 0 0-.507-1.613 1.76 1.76 0 0 0-1.406-.593zm23.782.067v4.28h2.341v-.275h-2.042v-1.837h1.928v-.275h-1.928v-1.62h2.042v-.275zm-7.617 2.771h1.74l.595 1.512h.338l-1.687-4.3h-.191l-1.723 4.3h.331l.6-1.511zm-3.832-2.771v4.28h.3v-1.769h.662a1.908 1.908 0 0 0 1.2-.331 1.144 1.144 0 0 0 .422-.952c0-.816-.515-1.23-1.53-1.23zm-4.825 2.417h1.063l1.105 1.867h.357l-1.164-1.951a1.27 1.27 0 0 0 .69-.425 1.162 1.162 0 0 0 .227-.726 1.055 1.055 0 0 0-.381-.887 1.931 1.931 0 0 0-1.178-.294h-1.019V-352h.3v-1.866zm-12.973-2.417l1.432 2.651V-352h.308v-1.655l1.426-2.628h-.322l-1.254 2.344-1.248-2.344h-.342zm24.662 10.15a.639.639 0 0 1-.526-.209 1.111 1.111 0 0 1-.169-.689v-.033a1.2 1.2 0 0 1 .163-.709.632.632 0 0 1 .536-.215c.462 0 .7.309.7.92a1.176 1.176 0 0 1-.176.693.609.609 0 0 1-.529.239zm-21.31 0a.655.655 0 0 1-.544-.246 1.085 1.085 0 0 1-.193-.682 1.085 1.085 0 0 1 .191-.683.654.654 0 0 1 .542-.241.665.665 0 0 1 .546.242 1.071 1.071 0 0 1 .194.682 1.081 1.081 0 0 1-.193.682.655.655 0 0 1-.544.24zm28.695-1.071h-1.312a.95.95 0 0 1 .217-.582.638.638 0 0 1 .492-.2.529.529 0 0 1 .443.208.926.926 0 0 1 .16.576zm-17.658 0h-1.312a.951.951 0 0 1 .217-.582.636.636 0 0 1 .491-.2.532.532 0 0 1 .444.208.927.927 0 0 1 .16.576zm-4.574 0H-1953a.955.955 0 0 1 .217-.582.64.64 0 0 1 .492-.2.532.532 0 0 1 .444.208.931.931 0 0 1 .16.576zm-4.357-5.015a1.44 1.44 0 0 1-1.178-.5 2.207 2.207 0 0 1-.41-1.422 2.161 2.161 0 0 1 .414-1.415 1.455 1.455 0 0 1 1.18-.5 1.446 1.446 0 0 1 1.176.494 2.183 2.183 0 0 1 .409 1.419 2.209 2.209 0 0 1-.409 1.427 1.448 1.448 0 0 1-1.183.491zm17.813-1.559h-1.533l.6-1.538a4.894 4.894 0 0 0 .173-.51c.065.2.125.379.175.5l.583 1.543zm-4.585-.247h-.589v-1.986h.709a1.529 1.529 0 0 1 .943.239.875.875 0 0 1 .305.733.9.9 0 0 1-.323.775 1.79 1.79 0 0 1-1.047.233zm-4.9-.1h-.817v-1.89h.708a1.607 1.607 0 0 1 .956.223.841.841 0 0 1 .292.712.867.867 0 0 1-.3.713 1.308 1.308 0 0 1-.836.24z"
          class="cls-2" data-name="Вычитание 11" transform="translate(2424 815)"/>
  </g>
</svg>
