<svg xmlns="http://www.w3.org/2000/svg" id="Group_Grid_icon" width="99" height="184" data-name="Group Grid_icon"
     viewBox="0 0 99 184">
    <defs>
        <style>
            .cls-2{fill:#ecedef}
        </style>
    </defs>
    <g id="Group_List" data-name="Group List" transform="translate(-433 -665)">
        <g id="Group_List-2" data-name="Group List" transform="translate(0 364)">
            <rect id="Прямоугольник_43" width="99" height="184" fill="#868686" data-name="Прямоугольник 43" rx="8"
                  transform="translate(433 301)"/>
            <path id="Вычитание_6"
                  d="M-1942-307h-48v-57h48v57zm-8.3-5.165a.827.827 0 0 0-.673.306 1.25 1.25 0 0 0-.25.814 1.148 1.148 0 0 0 .259.8.926.926 0 0 0 .721.285 1.853 1.853 0 0 0 .337-.029 1.511 1.511 0 0 0 .332-.106v-.175a1.906 1.906 0 0 1-.349.109 1.766 1.766 0 0 1-.32.026.725.725 0 0 1-.573-.23 1.013 1.013 0 0 1-.2-.669h1.529v-.156a1.084 1.084 0 0 0-.217-.711.732.732 0 0 0-.596-.263zm-2.939-.473l-.1.481-.315.087v.113h.315v1.372a.7.7 0 0 0 .134.473.531.531 0 0 0 .415.15 1.021 1.021 0 0 0 .324-.047v-.157a1.466 1.466 0 0 1-.32.031.311.311 0 0 1-.269-.117.616.616 0 0 1-.086-.362v-1.344h.623v-.167h-.623v-.514zm-2.244 0l-.1.481-.314.087v.113h.314v1.372a.7.7 0 0 0 .134.473.531.531 0 0 0 .415.15 1.021 1.021 0 0 0 .324-.047v-.157a1.462 1.462 0 0 1-.32.031.31.31 0 0 1-.27-.117.608.608 0 0 1-.086-.362v-1.344h.623v-.167h-.623v-.514zm-2.31 2.317h.017a.724.724 0 0 0 .287.266.888.888 0 0 0 .409.094.82.82 0 0 0 .667-.287 1.255 1.255 0 0 0 .237-.816 1.292 1.292 0 0 0-.225-.82.815.815 0 0 0-.671-.28.868.868 0 0 0-.41.09.778.778 0 0 0-.292.281h-.014l.005-.166c.005-.1.008-.2.008-.317v-.763h-.193V-310h.121l.055-.32zm-2.559-1.8v1.386c0 .515.244.776.724.776a.8.8 0 0 0 .736-.332h.012l.035.293h.164v-2.123h-.191v1.172a.9.9 0 0 1-.179.623.73.73 0 0 1-.557.192.547.547 0 0 1-.418-.146.675.675 0 0 1-.135-.466v-1.374zm-2.031 1.822v.21a1.475 1.475 0 0 0 .676.13 1.06 1.06 0 0 0 .615-.153.508.508 0 0 0 .217-.439.457.457 0 0 0-.066-.247.611.611 0 0 0-.2-.189 2.326 2.326 0 0 0-.417-.186 1.615 1.615 0 0 1-.462-.222.331.331 0 0 1-.119-.266.264.264 0 0 1 .153-.238.841.841 0 0 1 .412-.086 1.525 1.525 0 0 1 .58.13l.072-.176a1.686 1.686 0 0 0-.652-.129.975.975 0 0 0-.56.139.439.439 0 0 0-.2.377.474.474 0 0 0 .066.255.624.624 0 0 0 .195.188 2.479 2.479 0 0 0 .447.2 1.431 1.431 0 0 1 .427.214.341.341 0 0 1 .13.27.318.318 0 0 1-.163.278.879.879 0 0 1-.477.1 1.492 1.492 0 0 1-.676-.16zm-2.083-2.335l-.1.481-.314.087v.113h.314v1.372a.7.7 0 0 0 .134.473.531.531 0 0 0 .415.15 1.021 1.021 0 0 0 .324-.047v-.157a1.464 1.464 0 0 1-.32.031.311.311 0 0 1-.269-.117.615.615 0 0 1-.086-.362v-1.344h.623v-.167h-.623v-.514zm-3.492.473a.826.826 0 0 0-.673.306 1.246 1.246 0 0 0-.25.814 1.152 1.152 0 0 0 .258.8.93.93 0 0 0 .722.285 1.831 1.831 0 0 0 .336-.029 1.5 1.5 0 0 0 .332-.106v-.175a1.883 1.883 0 0 1-.348.109 1.766 1.766 0 0 1-.319.026.723.723 0 0 1-.573-.23 1.013 1.013 0 0 1-.2-.669h1.53v-.156a1.089 1.089 0 0 0-.217-.711.732.732 0 0 0-.596-.267zm-2.035-.473l-.1.481-.314.087v.113h.314v1.372a.7.7 0 0 0 .134.473.531.531 0 0 0 .415.15 1.02 1.02 0 0 0 .324-.047v-.157a1.459 1.459 0 0 1-.319.031.314.314 0 0 1-.27-.117.608.608 0 0 1-.085-.362v-1.344h.623v-.167h-.623v-.514zm-2.539.473a.828.828 0 0 0-.674.306 1.25 1.25 0 0 0-.25.814 1.148 1.148 0 0 0 .259.8.928.928 0 0 0 .722.285 1.848 1.848 0 0 0 .336-.029 1.482 1.482 0 0 0 .332-.106v-.175a1.887 1.887 0 0 1-.348.109 1.765 1.765 0 0 1-.319.026.722.722 0 0 1-.573-.23 1.013 1.013 0 0 1-.2-.669h1.529v-.156a1.084 1.084 0 0 0-.217-.711.729.729 0 0 0-.595-.267zm-5.855 0a.873.873 0 0 0-.692.29 1.2 1.2 0 0 0-.252.81 1.416 1.416 0 0 0 .113.582.868.868 0 0 0 .327.386.905.905 0 0 0 .492.135.872.872 0 0 0 .695-.292 1.209 1.209 0 0 0 .252-.812 1.208 1.208 0 0 0-.249-.806.853.853 0 0 0-.684-.296zm-3.139 1.889v.2a2.206 2.206 0 0 0 .8.115 1.1 1.1 0 0 0 .7-.209.689.689 0 0 0 .263-.567.675.675 0 0 0-.077-.333.718.718 0 0 0-.245-.246 2.5 2.5 0 0 0-.5-.224 2.529 2.529 0 0 1-.449-.193.527.527 0 0 1-.188-.183.518.518 0 0 1-.058-.26.476.476 0 0 1 .187-.4.8.8 0 0 1 .5-.146 1.783 1.783 0 0 1 .679.148l.072-.171a1.9 1.9 0 0 0-.756-.153 1 1 0 0 0-.645.2.643.643 0 0 0-.251.522.65.65 0 0 0 .167.466 1.557 1.557 0 0 0 .6.325 2.777 2.777 0 0 1 .453.19.62.62 0 0 1 .222.194.481.481 0 0 1 .068.268.512.512 0 0 1-.206.423.885.885 0 0 1-.557.161 2.045 2.045 0 0 1-.778-.13zm29.522-2.764V-310h.193v-3.039zm-2.245.916v2.12h.193v-2.123zm-11.677 1.175l.667.947h.225l-.781-1.093.728-1.031h-.212l-.627.895-.633-.895h-.222l.74 1.031-.77 1.093h.213l.671-.947zm-8.777-1.041a.462.462 0 0 1 .371.143.693.693 0 0 1 .121.453v1.39h.192v-1.389a.848.848 0 0 0-.174-.59.685.685 0 0 0-.521-.185.8.8 0 0 0-.4.1.712.712 0 0 0-.278.279h-.008a.613.613 0 0 0-.644-.377.741.741 0 0 0-.357.087.608.608 0 0 0-.25.245h-.012l-.041-.291h-.16V-310h.193v-1.173a1.022 1.022 0 0 1 .152-.622.583.583 0 0 1 .487-.194c.327 0 .492.181.492.537V-310h.2v-1.245a.849.849 0 0 1 .156-.564.607.607 0 0 1 .484-.18zm20.551-.912c-.082 0-.123.063-.123.187s.042.19.123.19a.107.107 0 0 0 .094-.051.247.247 0 0 0 .034-.139.242.242 0 0 0-.034-.139.109.109 0 0 0-.093-.05zm-.462-7.45a2.349 2.349 0 0 0-1.148.275 1.89 1.89 0 0 0-.768.78 2.455 2.455 0 0 0-.268 1.159 2.285 2.285 0 0 0 .541 1.622 2.043 2.043 0 0 0 1.554.572 3.565 3.565 0 0 0 1.4-.264v-1.954h-1.579v.281h1.274v1.506a2.687 2.687 0 0 1-1 .167 1.85 1.85 0 0 1-1.386-.488 2.023 2.023 0 0 1-.472-1.454 1.978 1.978 0 0 1 .5-1.411 1.774 1.774 0 0 1 1.344-.523 2.734 2.734 0 0 1 1.155.258l.12-.27a2.968 2.968 0 0 0-1.266-.258zm-18.554.067v2.759a1.581 1.581 0 0 0 .418 1.165 1.577 1.577 0 0 0 1.162.418 1.647 1.647 0 0 0 1.193-.416 1.542 1.542 0 0 0 .427-1.155v-2.771h-.3v2.8a1.28 1.28 0 0 1-.337.939 1.286 1.286 0 0 1-.949.338 1.315 1.315 0 0 1-.97-.344 1.314 1.314 0 0 1-.342-.963v-2.771zm-2.845-.067a1.773 1.773 0 0 0-1.4.588 2.369 2.369 0 0 0-.515 1.609 2.413 2.413 0 0 0 .51 1.619 1.759 1.759 0 0 0 1.4.593 1.763 1.763 0 0 0 1.406-.593 2.4 2.4 0 0 0 .51-1.613 2.406 2.406 0 0 0-.507-1.613 1.761 1.761 0 0 0-1.403-.592zm23.783.067V-316h2.341v-.275h-2.042v-1.837h1.931v-.275h-1.928v-1.62h2.042v-.275zm-7.617 2.771h1.74l.595 1.512h.337l-1.687-4.3h-.19l-1.723 4.3h.331l.6-1.511zm-3.832-2.771V-316h.3v-1.769h.662a1.908 1.908 0 0 0 1.2-.331 1.144 1.144 0 0 0 .421-.952c0-.816-.514-1.23-1.529-1.23zm-4.825 2.417h1.063l1.1 1.867h.358l-1.164-1.951a1.271 1.271 0 0 0 .69-.425 1.162 1.162 0 0 0 .227-.726 1.055 1.055 0 0 0-.381-.887 1.931 1.931 0 0 0-1.178-.294h-1.019v4.28h.3v-1.866zm-12.973-2.417l1.432 2.651v1.63h.308v-1.655l1.427-2.628h-.322l-1.254 2.344-1.248-2.344h-.342zM-1985.5-361v37h39v-37zm28.421 50.867a.639.639 0 0 1-.526-.209 1.11 1.11 0 0 1-.169-.689v-.033a1.2 1.2 0 0 1 .162-.709.633.633 0 0 1 .537-.215c.462 0 .7.309.7.92a1.17 1.17 0 0 1-.176.693.606.606 0 0 1-.528.242zm-21.311 0a.655.655 0 0 1-.544-.246 1.08 1.08 0 0 1-.193-.682 1.085 1.085 0 0 1 .191-.683.654.654 0 0 1 .542-.241.664.664 0 0 1 .546.242 1.076 1.076 0 0 1 .193.682 1.085 1.085 0 0 1-.192.682.655.655 0 0 1-.543.243zm28.7-1.071h-1.312a.951.951 0 0 1 .217-.582.636.636 0 0 1 .491-.2.532.532 0 0 1 .444.208.926.926 0 0 1 .16.576zm-17.658 0h-1.313a.961.961 0 0 1 .217-.582.64.64 0 0 1 .492-.2.532.532 0 0 1 .444.208.927.927 0 0 1 .16.576zm-4.575 0h-1.312a.951.951 0 0 1 .217-.582.637.637 0 0 1 .492-.2.529.529 0 0 1 .443.208.926.926 0 0 1 .16.576zm-4.091-5.015a1.44 1.44 0 0 1-1.178-.5 2.206 2.206 0 0 1-.409-1.422 2.161 2.161 0 0 1 .414-1.415 1.454 1.454 0 0 1 1.179-.5 1.444 1.444 0 0 1 1.176.494 2.178 2.178 0 0 1 .409 1.419 2.2 2.2 0 0 1-.409 1.427 1.445 1.445 0 0 1-1.186.494zm17.813-1.559h-1.533l.6-1.538a4.645 4.645 0 0 0 .174-.51c.061.193.122.372.176.5l.583 1.543zm-4.586-.247h-.589v-1.986h.709a1.529 1.529 0 0 1 .943.239.875.875 0 0 1 .3.733.9.9 0 0 1-.322.775 1.79 1.79 0 0 1-1.044.236zm-4.9-.1h-.817v-1.89h.708a1.606 1.606 0 0 1 .956.223.841.841 0 0 1 .293.712.867.867 0 0 1-.3.713 1.309 1.309 0 0 1-.838.243z"
                  class="cls-2" data-name="Вычитание 6" transform="translate(2424 675)"/>
            <path id="Вычитание_14"
                  d="M-1942-307h-48v-57h48v57zm-8.3-5.165a.827.827 0 0 0-.673.306 1.25 1.25 0 0 0-.25.814 1.148 1.148 0 0 0 .259.8.926.926 0 0 0 .721.285 1.853 1.853 0 0 0 .337-.029 1.511 1.511 0 0 0 .332-.106v-.175a1.906 1.906 0 0 1-.349.109 1.766 1.766 0 0 1-.32.026.725.725 0 0 1-.573-.23 1.013 1.013 0 0 1-.2-.669h1.529v-.156a1.084 1.084 0 0 0-.217-.711.732.732 0 0 0-.596-.263zm-2.939-.473l-.1.481-.315.087v.113h.315v1.372a.7.7 0 0 0 .134.473.531.531 0 0 0 .415.15 1.021 1.021 0 0 0 .324-.047v-.157a1.466 1.466 0 0 1-.32.031.311.311 0 0 1-.269-.117.616.616 0 0 1-.086-.362v-1.344h.623v-.167h-.623v-.514zm-2.244 0l-.1.481-.314.087v.113h.314v1.372a.7.7 0 0 0 .134.473.531.531 0 0 0 .415.15 1.021 1.021 0 0 0 .324-.047v-.157a1.462 1.462 0 0 1-.32.031.31.31 0 0 1-.27-.117.608.608 0 0 1-.086-.362v-1.344h.623v-.167h-.623v-.514zm-2.31 2.317h.017a.724.724 0 0 0 .287.266.888.888 0 0 0 .409.094.82.82 0 0 0 .667-.287 1.255 1.255 0 0 0 .237-.816 1.292 1.292 0 0 0-.225-.82.815.815 0 0 0-.671-.28.868.868 0 0 0-.41.09.778.778 0 0 0-.292.281h-.014l.005-.166c.005-.1.008-.2.008-.317v-.763h-.193V-310h.121l.055-.32zm-2.559-1.8v1.386c0 .515.244.776.724.776a.8.8 0 0 0 .736-.332h.012l.035.293h.164v-2.123h-.191v1.172a.9.9 0 0 1-.179.623.73.73 0 0 1-.557.192.547.547 0 0 1-.418-.146.675.675 0 0 1-.135-.466v-1.374zm-2.031 1.822v.21a1.475 1.475 0 0 0 .676.13 1.06 1.06 0 0 0 .615-.153.508.508 0 0 0 .217-.439.457.457 0 0 0-.066-.247.611.611 0 0 0-.2-.189 2.326 2.326 0 0 0-.417-.186 1.615 1.615 0 0 1-.462-.222.331.331 0 0 1-.119-.266.264.264 0 0 1 .153-.238.841.841 0 0 1 .412-.086 1.525 1.525 0 0 1 .58.13l.072-.176a1.686 1.686 0 0 0-.652-.129.975.975 0 0 0-.56.139.439.439 0 0 0-.2.377.474.474 0 0 0 .066.255.624.624 0 0 0 .195.188 2.479 2.479 0 0 0 .447.2 1.431 1.431 0 0 1 .427.214.341.341 0 0 1 .13.27.318.318 0 0 1-.163.278.879.879 0 0 1-.477.1 1.492 1.492 0 0 1-.676-.16zm-2.083-2.335l-.1.481-.314.087v.113h.314v1.372a.7.7 0 0 0 .134.473.531.531 0 0 0 .415.15 1.021 1.021 0 0 0 .324-.047v-.157a1.464 1.464 0 0 1-.32.031.311.311 0 0 1-.269-.117.615.615 0 0 1-.086-.362v-1.344h.623v-.167h-.623v-.514zm-3.492.473a.826.826 0 0 0-.673.306 1.246 1.246 0 0 0-.25.814 1.152 1.152 0 0 0 .258.8.93.93 0 0 0 .722.285 1.831 1.831 0 0 0 .336-.029 1.5 1.5 0 0 0 .332-.106v-.175a1.883 1.883 0 0 1-.348.109 1.766 1.766 0 0 1-.319.026.723.723 0 0 1-.573-.23 1.013 1.013 0 0 1-.2-.669h1.53v-.156a1.089 1.089 0 0 0-.217-.711.732.732 0 0 0-.596-.267zm-2.035-.473l-.1.481-.314.087v.113h.314v1.372a.7.7 0 0 0 .134.473.531.531 0 0 0 .415.15 1.02 1.02 0 0 0 .324-.047v-.157a1.459 1.459 0 0 1-.319.031.314.314 0 0 1-.27-.117.608.608 0 0 1-.085-.362v-1.344h.623v-.167h-.623v-.514zm-2.539.473a.828.828 0 0 0-.674.306 1.25 1.25 0 0 0-.25.814 1.148 1.148 0 0 0 .259.8.928.928 0 0 0 .722.285 1.848 1.848 0 0 0 .336-.029 1.482 1.482 0 0 0 .332-.106v-.175a1.887 1.887 0 0 1-.348.109 1.765 1.765 0 0 1-.319.026.722.722 0 0 1-.573-.23 1.013 1.013 0 0 1-.2-.669h1.529v-.156a1.084 1.084 0 0 0-.217-.711.729.729 0 0 0-.595-.267zm-5.855 0a.873.873 0 0 0-.692.29 1.2 1.2 0 0 0-.252.81 1.416 1.416 0 0 0 .113.582.868.868 0 0 0 .327.386.905.905 0 0 0 .492.135.872.872 0 0 0 .695-.292 1.209 1.209 0 0 0 .252-.812 1.208 1.208 0 0 0-.249-.806.853.853 0 0 0-.684-.296zm-3.139 1.889v.2a2.206 2.206 0 0 0 .8.115 1.1 1.1 0 0 0 .7-.209.689.689 0 0 0 .263-.567.675.675 0 0 0-.077-.333.718.718 0 0 0-.245-.246 2.5 2.5 0 0 0-.5-.224 2.529 2.529 0 0 1-.449-.193.527.527 0 0 1-.188-.183.518.518 0 0 1-.058-.26.476.476 0 0 1 .187-.4.8.8 0 0 1 .5-.146 1.783 1.783 0 0 1 .679.148l.072-.171a1.9 1.9 0 0 0-.756-.153 1 1 0 0 0-.645.2.643.643 0 0 0-.251.522.65.65 0 0 0 .167.466 1.557 1.557 0 0 0 .6.325 2.777 2.777 0 0 1 .453.19.62.62 0 0 1 .222.194.481.481 0 0 1 .068.268.512.512 0 0 1-.206.423.885.885 0 0 1-.557.161 2.045 2.045 0 0 1-.778-.13zm29.522-2.764V-310h.193v-3.039zm-2.245.916v2.12h.193v-2.123zm-11.677 1.175l.667.947h.225l-.781-1.093.728-1.031h-.212l-.627.895-.633-.895h-.222l.74 1.031-.77 1.093h.213l.671-.947zm-8.777-1.041a.462.462 0 0 1 .371.143.693.693 0 0 1 .121.453v1.39h.192v-1.389a.848.848 0 0 0-.174-.59.685.685 0 0 0-.521-.185.8.8 0 0 0-.4.1.712.712 0 0 0-.278.279h-.008a.613.613 0 0 0-.644-.377.741.741 0 0 0-.357.087.608.608 0 0 0-.25.245h-.012l-.041-.291h-.16V-310h.193v-1.173a1.022 1.022 0 0 1 .152-.622.583.583 0 0 1 .487-.194c.327 0 .492.181.492.537V-310h.2v-1.245a.849.849 0 0 1 .156-.564.607.607 0 0 1 .484-.18zm20.551-.912c-.082 0-.123.063-.123.187s.042.19.123.19a.107.107 0 0 0 .094-.051.247.247 0 0 0 .034-.139.242.242 0 0 0-.034-.139.109.109 0 0 0-.093-.05zm-.462-7.45a2.349 2.349 0 0 0-1.148.275 1.89 1.89 0 0 0-.768.78 2.455 2.455 0 0 0-.268 1.159 2.285 2.285 0 0 0 .541 1.622 2.043 2.043 0 0 0 1.554.572 3.565 3.565 0 0 0 1.4-.264v-1.954h-1.579v.281h1.274v1.506a2.687 2.687 0 0 1-1 .167 1.85 1.85 0 0 1-1.386-.488 2.023 2.023 0 0 1-.472-1.454 1.978 1.978 0 0 1 .5-1.411 1.774 1.774 0 0 1 1.344-.523 2.734 2.734 0 0 1 1.155.258l.12-.27a2.968 2.968 0 0 0-1.266-.258zm-18.554.067v2.759a1.581 1.581 0 0 0 .418 1.165 1.577 1.577 0 0 0 1.162.418 1.647 1.647 0 0 0 1.193-.416 1.542 1.542 0 0 0 .427-1.155v-2.771h-.3v2.8a1.28 1.28 0 0 1-.337.939 1.286 1.286 0 0 1-.949.338 1.315 1.315 0 0 1-.97-.344 1.314 1.314 0 0 1-.342-.963v-2.771zm-2.845-.067a1.773 1.773 0 0 0-1.4.588 2.369 2.369 0 0 0-.515 1.609 2.413 2.413 0 0 0 .51 1.619 1.759 1.759 0 0 0 1.4.593 1.763 1.763 0 0 0 1.406-.593 2.4 2.4 0 0 0 .51-1.613 2.406 2.406 0 0 0-.507-1.613 1.761 1.761 0 0 0-1.403-.592zm23.783.067V-316h2.341v-.275h-2.042v-1.837h1.931v-.275h-1.928v-1.62h2.042v-.275zm-7.617 2.771h1.74l.595 1.512h.337l-1.687-4.3h-.19l-1.723 4.3h.331l.6-1.511zm-3.832-2.771V-316h.3v-1.769h.662a1.908 1.908 0 0 0 1.2-.331 1.144 1.144 0 0 0 .421-.952c0-.816-.514-1.23-1.529-1.23zm-4.825 2.417h1.063l1.1 1.867h.358l-1.164-1.951a1.271 1.271 0 0 0 .69-.425 1.162 1.162 0 0 0 .227-.726 1.055 1.055 0 0 0-.381-.887 1.931 1.931 0 0 0-1.178-.294h-1.019v4.28h.3v-1.866zm-12.973-2.417l1.432 2.651v1.63h.308v-1.655l1.427-2.628h-.322l-1.254 2.344-1.248-2.344h-.342zM-1985.5-361v37h39v-37zm28.421 50.867a.639.639 0 0 1-.526-.209 1.11 1.11 0 0 1-.169-.689v-.033a1.2 1.2 0 0 1 .162-.709.633.633 0 0 1 .537-.215c.462 0 .7.309.7.92a1.17 1.17 0 0 1-.176.693.606.606 0 0 1-.528.242zm-21.311 0a.655.655 0 0 1-.544-.246 1.08 1.08 0 0 1-.193-.682 1.085 1.085 0 0 1 .191-.683.654.654 0 0 1 .542-.241.664.664 0 0 1 .546.242 1.076 1.076 0 0 1 .193.682 1.085 1.085 0 0 1-.192.682.655.655 0 0 1-.543.243zm28.7-1.071h-1.312a.951.951 0 0 1 .217-.582.636.636 0 0 1 .491-.2.532.532 0 0 1 .444.208.926.926 0 0 1 .16.576zm-17.658 0h-1.313a.961.961 0 0 1 .217-.582.64.64 0 0 1 .492-.2.532.532 0 0 1 .444.208.927.927 0 0 1 .16.576zm-4.575 0h-1.312a.951.951 0 0 1 .217-.582.637.637 0 0 1 .492-.2.529.529 0 0 1 .443.208.926.926 0 0 1 .16.576zm-4.091-5.015a1.44 1.44 0 0 1-1.178-.5 2.206 2.206 0 0 1-.409-1.422 2.161 2.161 0 0 1 .414-1.415 1.454 1.454 0 0 1 1.179-.5 1.444 1.444 0 0 1 1.176.494 2.178 2.178 0 0 1 .409 1.419 2.2 2.2 0 0 1-.409 1.427 1.445 1.445 0 0 1-1.186.494zm17.813-1.559h-1.533l.6-1.538a4.645 4.645 0 0 0 .174-.51c.061.193.122.372.176.5l.583 1.543zm-4.586-.247h-.589v-1.986h.709a1.529 1.529 0 0 1 .943.239.875.875 0 0 1 .3.733.9.9 0 0 1-.322.775 1.79 1.79 0 0 1-1.044.236zm-4.9-.1h-.817v-1.89h.708a1.606 1.606 0 0 1 .956.223.841.841 0 0 1 .293.712.867.867 0 0 1-.3.713 1.309 1.309 0 0 1-.838.243z"
                  class="cls-2" data-name="Вычитание 14" transform="translate(2424 734)"/>
            <path id="Вычитание_12"
                  d="M-1942-307h-48v-57h48v57zm-8.3-5.165a.827.827 0 0 0-.673.306 1.25 1.25 0 0 0-.25.814 1.148 1.148 0 0 0 .259.8.926.926 0 0 0 .721.285 1.853 1.853 0 0 0 .337-.029 1.511 1.511 0 0 0 .332-.106v-.175a1.906 1.906 0 0 1-.349.109 1.766 1.766 0 0 1-.32.026.725.725 0 0 1-.573-.23 1.013 1.013 0 0 1-.2-.669h1.529v-.156a1.084 1.084 0 0 0-.217-.711.732.732 0 0 0-.596-.263zm-2.939-.473l-.1.481-.315.087v.113h.315v1.372a.7.7 0 0 0 .134.473.531.531 0 0 0 .415.15 1.021 1.021 0 0 0 .324-.047v-.157a1.466 1.466 0 0 1-.32.031.311.311 0 0 1-.269-.117.616.616 0 0 1-.086-.362v-1.344h.623v-.167h-.623v-.514zm-2.244 0l-.1.481-.314.087v.113h.314v1.372a.7.7 0 0 0 .134.473.531.531 0 0 0 .415.15 1.021 1.021 0 0 0 .324-.047v-.157a1.462 1.462 0 0 1-.32.031.31.31 0 0 1-.27-.117.608.608 0 0 1-.086-.362v-1.344h.623v-.167h-.623v-.514zm-2.31 2.317h.017a.724.724 0 0 0 .287.266.888.888 0 0 0 .409.094.82.82 0 0 0 .667-.287 1.255 1.255 0 0 0 .237-.816 1.292 1.292 0 0 0-.225-.82.815.815 0 0 0-.671-.28.868.868 0 0 0-.41.09.778.778 0 0 0-.292.281h-.014l.005-.166c.005-.1.008-.2.008-.317v-.763h-.193V-310h.121l.055-.32zm-2.559-1.8v1.386c0 .515.244.776.724.776a.8.8 0 0 0 .736-.332h.012l.035.293h.164v-2.123h-.191v1.172a.9.9 0 0 1-.179.623.73.73 0 0 1-.557.192.547.547 0 0 1-.418-.146.675.675 0 0 1-.135-.466v-1.374zm-2.031 1.822v.21a1.475 1.475 0 0 0 .676.13 1.06 1.06 0 0 0 .615-.153.508.508 0 0 0 .217-.439.457.457 0 0 0-.066-.247.611.611 0 0 0-.2-.189 2.326 2.326 0 0 0-.417-.186 1.615 1.615 0 0 1-.462-.222.331.331 0 0 1-.119-.266.264.264 0 0 1 .153-.238.841.841 0 0 1 .412-.086 1.525 1.525 0 0 1 .58.13l.072-.176a1.686 1.686 0 0 0-.652-.129.975.975 0 0 0-.56.139.439.439 0 0 0-.2.377.474.474 0 0 0 .066.255.624.624 0 0 0 .195.188 2.479 2.479 0 0 0 .447.2 1.431 1.431 0 0 1 .427.214.341.341 0 0 1 .13.27.318.318 0 0 1-.163.278.879.879 0 0 1-.477.1 1.492 1.492 0 0 1-.676-.16zm-2.083-2.335l-.1.481-.314.087v.113h.314v1.372a.7.7 0 0 0 .134.473.531.531 0 0 0 .415.15 1.021 1.021 0 0 0 .324-.047v-.157a1.464 1.464 0 0 1-.32.031.311.311 0 0 1-.269-.117.615.615 0 0 1-.086-.362v-1.344h.623v-.167h-.623v-.514zm-3.492.473a.826.826 0 0 0-.673.306 1.246 1.246 0 0 0-.25.814 1.152 1.152 0 0 0 .258.8.93.93 0 0 0 .722.285 1.831 1.831 0 0 0 .336-.029 1.5 1.5 0 0 0 .332-.106v-.175a1.883 1.883 0 0 1-.348.109 1.766 1.766 0 0 1-.319.026.723.723 0 0 1-.573-.23 1.013 1.013 0 0 1-.2-.669h1.53v-.156a1.089 1.089 0 0 0-.217-.711.732.732 0 0 0-.596-.267zm-2.035-.473l-.1.481-.314.087v.113h.314v1.372a.7.7 0 0 0 .134.473.531.531 0 0 0 .415.15 1.02 1.02 0 0 0 .324-.047v-.157a1.459 1.459 0 0 1-.319.031.314.314 0 0 1-.27-.117.608.608 0 0 1-.085-.362v-1.344h.623v-.167h-.623v-.514zm-2.539.473a.828.828 0 0 0-.674.306 1.25 1.25 0 0 0-.25.814 1.148 1.148 0 0 0 .259.8.928.928 0 0 0 .722.285 1.848 1.848 0 0 0 .336-.029 1.482 1.482 0 0 0 .332-.106v-.175a1.887 1.887 0 0 1-.348.109 1.765 1.765 0 0 1-.319.026.722.722 0 0 1-.573-.23 1.013 1.013 0 0 1-.2-.669h1.529v-.156a1.084 1.084 0 0 0-.217-.711.729.729 0 0 0-.595-.267zm-5.855 0a.873.873 0 0 0-.692.29 1.2 1.2 0 0 0-.252.81 1.416 1.416 0 0 0 .113.582.868.868 0 0 0 .327.386.905.905 0 0 0 .492.135.872.872 0 0 0 .695-.292 1.209 1.209 0 0 0 .252-.812 1.208 1.208 0 0 0-.249-.806.853.853 0 0 0-.684-.296zm-3.139 1.889v.2a2.206 2.206 0 0 0 .8.115 1.1 1.1 0 0 0 .7-.209.689.689 0 0 0 .263-.567.675.675 0 0 0-.077-.333.718.718 0 0 0-.245-.246 2.5 2.5 0 0 0-.5-.224 2.529 2.529 0 0 1-.449-.193.527.527 0 0 1-.188-.183.518.518 0 0 1-.058-.26.476.476 0 0 1 .187-.4.8.8 0 0 1 .5-.146 1.783 1.783 0 0 1 .679.148l.072-.171a1.9 1.9 0 0 0-.756-.153 1 1 0 0 0-.645.2.643.643 0 0 0-.251.522.65.65 0 0 0 .167.466 1.557 1.557 0 0 0 .6.325 2.777 2.777 0 0 1 .453.19.62.62 0 0 1 .222.194.481.481 0 0 1 .068.268.512.512 0 0 1-.206.423.885.885 0 0 1-.557.161 2.045 2.045 0 0 1-.778-.13zm29.522-2.764V-310h.193v-3.039zm-2.245.916v2.12h.193v-2.123zm-11.677 1.175l.667.947h.225l-.781-1.093.728-1.031h-.212l-.627.895-.633-.895h-.222l.74 1.031-.77 1.093h.213l.671-.947zm-8.777-1.041a.462.462 0 0 1 .371.143.693.693 0 0 1 .121.453v1.39h.192v-1.389a.848.848 0 0 0-.174-.59.685.685 0 0 0-.521-.185.8.8 0 0 0-.4.1.712.712 0 0 0-.278.279h-.008a.613.613 0 0 0-.644-.377.741.741 0 0 0-.357.087.608.608 0 0 0-.25.245h-.012l-.041-.291h-.16V-310h.193v-1.173a1.022 1.022 0 0 1 .152-.622.583.583 0 0 1 .487-.194c.327 0 .492.181.492.537V-310h.2v-1.245a.849.849 0 0 1 .156-.564.607.607 0 0 1 .484-.18zm20.551-.912c-.082 0-.123.063-.123.187s.042.19.123.19a.107.107 0 0 0 .094-.051.247.247 0 0 0 .034-.139.242.242 0 0 0-.034-.139.109.109 0 0 0-.093-.05zm-.462-7.45a2.349 2.349 0 0 0-1.148.275 1.89 1.89 0 0 0-.768.78 2.455 2.455 0 0 0-.268 1.159 2.285 2.285 0 0 0 .541 1.622 2.043 2.043 0 0 0 1.554.572 3.565 3.565 0 0 0 1.4-.264v-1.954h-1.579v.281h1.274v1.506a2.687 2.687 0 0 1-1 .167 1.85 1.85 0 0 1-1.386-.488 2.023 2.023 0 0 1-.472-1.454 1.978 1.978 0 0 1 .5-1.411 1.774 1.774 0 0 1 1.344-.523 2.734 2.734 0 0 1 1.155.258l.12-.27a2.968 2.968 0 0 0-1.266-.258zm-18.554.067v2.759a1.581 1.581 0 0 0 .418 1.165 1.577 1.577 0 0 0 1.162.418 1.647 1.647 0 0 0 1.193-.416 1.542 1.542 0 0 0 .427-1.155v-2.771h-.3v2.8a1.28 1.28 0 0 1-.337.939 1.286 1.286 0 0 1-.949.338 1.315 1.315 0 0 1-.97-.344 1.314 1.314 0 0 1-.342-.963v-2.771zm-2.845-.067a1.773 1.773 0 0 0-1.4.588 2.369 2.369 0 0 0-.515 1.609 2.413 2.413 0 0 0 .51 1.619 1.759 1.759 0 0 0 1.4.593 1.763 1.763 0 0 0 1.406-.593 2.4 2.4 0 0 0 .51-1.613 2.406 2.406 0 0 0-.507-1.613 1.761 1.761 0 0 0-1.403-.592zm23.783.067V-316h2.341v-.275h-2.042v-1.837h1.931v-.275h-1.928v-1.62h2.042v-.275zm-7.617 2.771h1.74l.595 1.512h.337l-1.687-4.3h-.19l-1.723 4.3h.331l.6-1.511zm-3.832-2.771V-316h.3v-1.769h.662a1.908 1.908 0 0 0 1.2-.331 1.144 1.144 0 0 0 .421-.952c0-.816-.514-1.23-1.529-1.23zm-4.825 2.417h1.063l1.1 1.867h.358l-1.164-1.951a1.271 1.271 0 0 0 .69-.425 1.162 1.162 0 0 0 .227-.726 1.055 1.055 0 0 0-.381-.887 1.931 1.931 0 0 0-1.178-.294h-1.019v4.28h.3v-1.866zm-12.973-2.417l1.432 2.651v1.63h.308v-1.655l1.427-2.628h-.322l-1.254 2.344-1.248-2.344h-.342zM-1985.5-361v37h39v-37zm28.421 50.867a.639.639 0 0 1-.526-.209 1.11 1.11 0 0 1-.169-.689v-.033a1.2 1.2 0 0 1 .162-.709.633.633 0 0 1 .537-.215c.462 0 .7.309.7.92a1.17 1.17 0 0 1-.176.693.606.606 0 0 1-.528.242zm-21.311 0a.655.655 0 0 1-.544-.246 1.08 1.08 0 0 1-.193-.682 1.085 1.085 0 0 1 .191-.683.654.654 0 0 1 .542-.241.664.664 0 0 1 .546.242 1.076 1.076 0 0 1 .193.682 1.085 1.085 0 0 1-.192.682.655.655 0 0 1-.543.243zm28.7-1.071h-1.312a.951.951 0 0 1 .217-.582.636.636 0 0 1 .491-.2.532.532 0 0 1 .444.208.926.926 0 0 1 .16.576zm-17.658 0h-1.313a.961.961 0 0 1 .217-.582.64.64 0 0 1 .492-.2.532.532 0 0 1 .444.208.927.927 0 0 1 .16.576zm-4.575 0h-1.312a.951.951 0 0 1 .217-.582.637.637 0 0 1 .492-.2.529.529 0 0 1 .443.208.926.926 0 0 1 .16.576zm-4.091-5.015a1.44 1.44 0 0 1-1.178-.5 2.206 2.206 0 0 1-.409-1.422 2.161 2.161 0 0 1 .414-1.415 1.454 1.454 0 0 1 1.179-.5 1.444 1.444 0 0 1 1.176.494 2.178 2.178 0 0 1 .409 1.419 2.2 2.2 0 0 1-.409 1.427 1.445 1.445 0 0 1-1.186.494zm17.813-1.559h-1.533l.6-1.538a4.645 4.645 0 0 0 .174-.51c.061.193.122.372.176.5l.583 1.543zm-4.586-.247h-.589v-1.986h.709a1.529 1.529 0 0 1 .943.239.875.875 0 0 1 .3.733.9.9 0 0 1-.322.775 1.79 1.79 0 0 1-1.044.236zm-4.9-.1h-.817v-1.89h.708a1.606 1.606 0 0 1 .956.223.841.841 0 0 1 .293.712.867.867 0 0 1-.3.713 1.309 1.309 0 0 1-.838.243z"
                  class="cls-2" data-name="Вычитание 12" transform="translate(2473 675)"/>
            <path id="Вычитание_13"
                  d="M-1942-307h-48v-57h48v57zm-8.3-5.165a.827.827 0 0 0-.673.306 1.25 1.25 0 0 0-.25.814 1.148 1.148 0 0 0 .259.8.926.926 0 0 0 .721.285 1.853 1.853 0 0 0 .337-.029 1.511 1.511 0 0 0 .332-.106v-.175a1.906 1.906 0 0 1-.349.109 1.766 1.766 0 0 1-.32.026.725.725 0 0 1-.573-.23 1.013 1.013 0 0 1-.2-.669h1.529v-.156a1.084 1.084 0 0 0-.217-.711.732.732 0 0 0-.596-.263zm-2.939-.473l-.1.481-.315.087v.113h.315v1.372a.7.7 0 0 0 .134.473.531.531 0 0 0 .415.15 1.021 1.021 0 0 0 .324-.047v-.157a1.466 1.466 0 0 1-.32.031.311.311 0 0 1-.269-.117.616.616 0 0 1-.086-.362v-1.344h.623v-.167h-.623v-.514zm-2.244 0l-.1.481-.314.087v.113h.314v1.372a.7.7 0 0 0 .134.473.531.531 0 0 0 .415.15 1.021 1.021 0 0 0 .324-.047v-.157a1.462 1.462 0 0 1-.32.031.31.31 0 0 1-.27-.117.608.608 0 0 1-.086-.362v-1.344h.623v-.167h-.623v-.514zm-2.31 2.317h.017a.724.724 0 0 0 .287.266.888.888 0 0 0 .409.094.82.82 0 0 0 .667-.287 1.255 1.255 0 0 0 .237-.816 1.292 1.292 0 0 0-.225-.82.815.815 0 0 0-.671-.28.868.868 0 0 0-.41.09.778.778 0 0 0-.292.281h-.014l.005-.166c.005-.1.008-.2.008-.317v-.763h-.193V-310h.121l.055-.32zm-2.559-1.8v1.386c0 .515.244.776.724.776a.8.8 0 0 0 .736-.332h.012l.035.293h.164v-2.123h-.191v1.172a.9.9 0 0 1-.179.623.73.73 0 0 1-.557.192.547.547 0 0 1-.418-.146.675.675 0 0 1-.135-.466v-1.374zm-2.031 1.822v.21a1.475 1.475 0 0 0 .676.13 1.06 1.06 0 0 0 .615-.153.508.508 0 0 0 .217-.439.457.457 0 0 0-.066-.247.611.611 0 0 0-.2-.189 2.326 2.326 0 0 0-.417-.186 1.615 1.615 0 0 1-.462-.222.331.331 0 0 1-.119-.266.264.264 0 0 1 .153-.238.841.841 0 0 1 .412-.086 1.525 1.525 0 0 1 .58.13l.072-.176a1.686 1.686 0 0 0-.652-.129.975.975 0 0 0-.56.139.439.439 0 0 0-.2.377.474.474 0 0 0 .066.255.624.624 0 0 0 .195.188 2.479 2.479 0 0 0 .447.2 1.431 1.431 0 0 1 .427.214.341.341 0 0 1 .13.27.318.318 0 0 1-.163.278.879.879 0 0 1-.477.1 1.492 1.492 0 0 1-.676-.16zm-2.083-2.335l-.1.481-.314.087v.113h.314v1.372a.7.7 0 0 0 .134.473.531.531 0 0 0 .415.15 1.021 1.021 0 0 0 .324-.047v-.157a1.464 1.464 0 0 1-.32.031.311.311 0 0 1-.269-.117.615.615 0 0 1-.086-.362v-1.344h.623v-.167h-.623v-.514zm-3.492.473a.826.826 0 0 0-.673.306 1.246 1.246 0 0 0-.25.814 1.152 1.152 0 0 0 .258.8.93.93 0 0 0 .722.285 1.831 1.831 0 0 0 .336-.029 1.5 1.5 0 0 0 .332-.106v-.175a1.883 1.883 0 0 1-.348.109 1.766 1.766 0 0 1-.319.026.723.723 0 0 1-.573-.23 1.013 1.013 0 0 1-.2-.669h1.53v-.156a1.089 1.089 0 0 0-.217-.711.732.732 0 0 0-.596-.267zm-2.035-.473l-.1.481-.314.087v.113h.314v1.372a.7.7 0 0 0 .134.473.531.531 0 0 0 .415.15 1.02 1.02 0 0 0 .324-.047v-.157a1.459 1.459 0 0 1-.319.031.314.314 0 0 1-.27-.117.608.608 0 0 1-.085-.362v-1.344h.623v-.167h-.623v-.514zm-2.539.473a.828.828 0 0 0-.674.306 1.25 1.25 0 0 0-.25.814 1.148 1.148 0 0 0 .259.8.928.928 0 0 0 .722.285 1.848 1.848 0 0 0 .336-.029 1.482 1.482 0 0 0 .332-.106v-.175a1.887 1.887 0 0 1-.348.109 1.765 1.765 0 0 1-.319.026.722.722 0 0 1-.573-.23 1.013 1.013 0 0 1-.2-.669h1.529v-.156a1.084 1.084 0 0 0-.217-.711.729.729 0 0 0-.595-.267zm-5.855 0a.873.873 0 0 0-.692.29 1.2 1.2 0 0 0-.252.81 1.416 1.416 0 0 0 .113.582.868.868 0 0 0 .327.386.905.905 0 0 0 .492.135.872.872 0 0 0 .695-.292 1.209 1.209 0 0 0 .252-.812 1.208 1.208 0 0 0-.249-.806.853.853 0 0 0-.684-.296zm-3.139 1.889v.2a2.206 2.206 0 0 0 .8.115 1.1 1.1 0 0 0 .7-.209.689.689 0 0 0 .263-.567.675.675 0 0 0-.077-.333.718.718 0 0 0-.245-.246 2.5 2.5 0 0 0-.5-.224 2.529 2.529 0 0 1-.449-.193.527.527 0 0 1-.188-.183.518.518 0 0 1-.058-.26.476.476 0 0 1 .187-.4.8.8 0 0 1 .5-.146 1.783 1.783 0 0 1 .679.148l.072-.171a1.9 1.9 0 0 0-.756-.153 1 1 0 0 0-.645.2.643.643 0 0 0-.251.522.65.65 0 0 0 .167.466 1.557 1.557 0 0 0 .6.325 2.777 2.777 0 0 1 .453.19.62.62 0 0 1 .222.194.481.481 0 0 1 .068.268.512.512 0 0 1-.206.423.885.885 0 0 1-.557.161 2.045 2.045 0 0 1-.778-.13zm29.522-2.764V-310h.193v-3.039zm-2.245.916v2.12h.193v-2.123zm-11.677 1.175l.667.947h.225l-.781-1.093.728-1.031h-.212l-.627.895-.633-.895h-.222l.74 1.031-.77 1.093h.213l.671-.947zm-8.777-1.041a.462.462 0 0 1 .371.143.693.693 0 0 1 .121.453v1.39h.192v-1.389a.848.848 0 0 0-.174-.59.685.685 0 0 0-.521-.185.8.8 0 0 0-.4.1.712.712 0 0 0-.278.279h-.008a.613.613 0 0 0-.644-.377.741.741 0 0 0-.357.087.608.608 0 0 0-.25.245h-.012l-.041-.291h-.16V-310h.193v-1.173a1.022 1.022 0 0 1 .152-.622.583.583 0 0 1 .487-.194c.327 0 .492.181.492.537V-310h.2v-1.245a.849.849 0 0 1 .156-.564.607.607 0 0 1 .484-.18zm20.551-.912c-.082 0-.123.063-.123.187s.042.19.123.19a.107.107 0 0 0 .094-.051.247.247 0 0 0 .034-.139.242.242 0 0 0-.034-.139.109.109 0 0 0-.093-.05zm-.462-7.45a2.349 2.349 0 0 0-1.148.275 1.89 1.89 0 0 0-.768.78 2.455 2.455 0 0 0-.268 1.159 2.285 2.285 0 0 0 .541 1.622 2.043 2.043 0 0 0 1.554.572 3.565 3.565 0 0 0 1.4-.264v-1.954h-1.579v.281h1.274v1.506a2.687 2.687 0 0 1-1 .167 1.85 1.85 0 0 1-1.386-.488 2.023 2.023 0 0 1-.472-1.454 1.978 1.978 0 0 1 .5-1.411 1.774 1.774 0 0 1 1.344-.523 2.734 2.734 0 0 1 1.155.258l.12-.27a2.968 2.968 0 0 0-1.266-.258zm-18.554.067v2.759a1.581 1.581 0 0 0 .418 1.165 1.577 1.577 0 0 0 1.162.418 1.647 1.647 0 0 0 1.193-.416 1.542 1.542 0 0 0 .427-1.155v-2.771h-.3v2.8a1.28 1.28 0 0 1-.337.939 1.286 1.286 0 0 1-.949.338 1.315 1.315 0 0 1-.97-.344 1.314 1.314 0 0 1-.342-.963v-2.771zm-2.845-.067a1.773 1.773 0 0 0-1.4.588 2.369 2.369 0 0 0-.515 1.609 2.413 2.413 0 0 0 .51 1.619 1.759 1.759 0 0 0 1.4.593 1.763 1.763 0 0 0 1.406-.593 2.4 2.4 0 0 0 .51-1.613 2.406 2.406 0 0 0-.507-1.613 1.761 1.761 0 0 0-1.403-.592zm23.783.067V-316h2.341v-.275h-2.042v-1.837h1.931v-.275h-1.928v-1.62h2.042v-.275zm-7.617 2.771h1.74l.595 1.512h.337l-1.687-4.3h-.19l-1.723 4.3h.331l.6-1.511zm-3.832-2.771V-316h.3v-1.769h.662a1.908 1.908 0 0 0 1.2-.331 1.144 1.144 0 0 0 .421-.952c0-.816-.514-1.23-1.529-1.23zm-4.825 2.417h1.063l1.1 1.867h.358l-1.164-1.951a1.271 1.271 0 0 0 .69-.425 1.162 1.162 0 0 0 .227-.726 1.055 1.055 0 0 0-.381-.887 1.931 1.931 0 0 0-1.178-.294h-1.019v4.28h.3v-1.866zm-12.973-2.417l1.432 2.651v1.63h.308v-1.655l1.427-2.628h-.322l-1.254 2.344-1.248-2.344h-.342zM-1985.5-361v37h39v-37zm28.421 50.867a.639.639 0 0 1-.526-.209 1.11 1.11 0 0 1-.169-.689v-.033a1.2 1.2 0 0 1 .162-.709.633.633 0 0 1 .537-.215c.462 0 .7.309.7.92a1.17 1.17 0 0 1-.176.693.606.606 0 0 1-.528.242zm-21.311 0a.655.655 0 0 1-.544-.246 1.08 1.08 0 0 1-.193-.682 1.085 1.085 0 0 1 .191-.683.654.654 0 0 1 .542-.241.664.664 0 0 1 .546.242 1.076 1.076 0 0 1 .193.682 1.085 1.085 0 0 1-.192.682.655.655 0 0 1-.543.243zm28.7-1.071h-1.312a.951.951 0 0 1 .217-.582.636.636 0 0 1 .491-.2.532.532 0 0 1 .444.208.926.926 0 0 1 .16.576zm-17.658 0h-1.313a.961.961 0 0 1 .217-.582.64.64 0 0 1 .492-.2.532.532 0 0 1 .444.208.927.927 0 0 1 .16.576zm-4.575 0h-1.312a.951.951 0 0 1 .217-.582.637.637 0 0 1 .492-.2.529.529 0 0 1 .443.208.926.926 0 0 1 .16.576zm-4.091-5.015a1.44 1.44 0 0 1-1.178-.5 2.206 2.206 0 0 1-.409-1.422 2.161 2.161 0 0 1 .414-1.415 1.454 1.454 0 0 1 1.179-.5 1.444 1.444 0 0 1 1.176.494 2.178 2.178 0 0 1 .409 1.419 2.2 2.2 0 0 1-.409 1.427 1.445 1.445 0 0 1-1.186.494zm17.813-1.559h-1.533l.6-1.538a4.645 4.645 0 0 0 .174-.51c.061.193.122.372.176.5l.583 1.543zm-4.586-.247h-.589v-1.986h.709a1.529 1.529 0 0 1 .943.239.875.875 0 0 1 .3.733.9.9 0 0 1-.322.775 1.79 1.79 0 0 1-1.044.236zm-4.9-.1h-.817v-1.89h.708a1.606 1.606 0 0 1 .956.223.841.841 0 0 1 .293.712.867.867 0 0 1-.3.713 1.309 1.309 0 0 1-.838.243z"
                  class="cls-2" data-name="Вычитание 13" transform="translate(2473 734)"/>
        </g>
    </g>
</svg>
