<svg xmlns="http://www.w3.org/2000/svg" id="icon-drag" width="23" height="23" viewBox="0 0 23 23">
  <g id="drag_icon">
    <circle id="Эллипс_24" cx="11.5" cy="11.5" r="11.5" fill="#e5e5e5" data-name="Эллипс 24"/>
    <g id="drag-drop" transform="translate(6.421 3.321)">
      <path id="Объединение_2" fill="#222" stroke="rgba(0,0,0,0)" stroke-miterlimit="10"
            d="M6.32 12.926l-.072-.071L5 11.611a.251.251 0 0 1 0-.357.256.256 0 0 1 .359 0l.891.886v-4.6h.508v4.6l.892-.886a.255.255 0 0 1 .359 0 .251.251 0 0 1 0 .357l-1.255 1.242-.072.071a.256.256 0 0 1-.359 0zm4.922-4.886a.25.25 0 0 1 0-.356l.892-.886H7.5v-.5h4.635l-.892-.886a.25.25 0 0 1 0-.356.255.255 0 0 1 .359 0l1.251 1.242.072.072a.251.251 0 0 1 0 .356l-.072.071L11.6 8.04a.254.254 0 0 1-.359 0zm-9.842 0L.149 6.8l-.074-.076a.25.25 0 0 1 0-.356L.147 6.3 1.4 5.052a.255.255 0 0 1 .359 0 .25.25 0 0 1 0 .356l-.891.886H5.5v.5H.867l.891.886a.25.25 0 0 1 0 .356.255.255 0 0 1-.359 0zm4.908-2.577V.86l-.892.886a.255.255 0 0 1-.359 0 .251.251 0 0 1 0-.357L6.308.148l.074-.074a.255.255 0 0 1 .359 0l.072.072 1.253 1.243a.251.251 0 0 1 0 .357.255.255 0 0 1-.359 0L6.816.86v4.6z"
            data-name="Объединение 2" transform="translate(-1.421 1.679)"/>
    </g>
  </g>
</svg>
