<svg xmlns="http://www.w3.org/2000/svg" id="icon_styles" width="36" height="31" viewBox="0 0 36 31">
    <defs>
        <style>
            .cls-1{fill:#b5b5b5}
        </style>
    </defs>
    <g id="Document-Icon">
        <path id="Shape"
              d="M32.7 31H10.776c-1.822 0-3.3-1.052-3.3-2.346v-1.1H3.435C1.541 27.555 0 26.464 0 25.123V2.433C0 1.091 1.541 0 3.435 0h23.017c1.894 0 3.435 1.091 3.435 2.433v2.018h.043a.551.551 0 0 1 .114-.015H32.7c1.821 0 3.3 1.052 3.3 2.346v21.88C36 29.948 34.518 31 32.7 31zM8.83 27.555v1.1c0 .751.873 1.362 1.946 1.362H32.7c1.072 0 1.945-.611 1.945-1.362V6.774c0-.751-.872-1.362-1.945-1.362h-2.656a.578.578 0 0 1-.114-.012l-.043-.008v19.731c0 1.341-1.541 2.433-3.435 2.433zM3.435.984c-1.145 0-2.077.65-2.077 1.449v22.69c0 .8.932 1.449 2.077 1.449h23.017c1.145 0 2.077-.65 2.077-1.449V2.433c0-.8-.932-1.449-2.077-1.449z"
              class="cls-1"/>
        <path id="Контур_138" fill="none" stroke="#b5b5b5"
              d="M12.987 5.962l-9 12.186s9.287-2.724 9.206.17-5.435 1.191-5.435 1.191" data-name="Контур 138"
              transform="translate(6.566 -.343)"/>
    </g>
    <path id="Контур_139" d="M9.656-1.891h.719l-9.937 13.5.862-2.14z" class="cls-1" data-name="Контур 139"
          transform="translate(6.998 6.5)"/>
    <path id="Контур_140" d="M1.094 3.172L3.391.125l.531-.344L1.2 3.438z" class="cls-1" data-name="Контур 140"
          transform="translate(14.69 5.458)"/>
</svg>
