<svg xmlns="http://www.w3.org/2000/svg" width="36" height="31" viewBox="0 0 36 31">
  <g id="icon_settings" transform="translate(-36 -23)">
    <g id="bord" transform="translate(36 23)" fill="none" stroke="#b5b5b5" stroke-width="1">
      <rect width="36" height="31" rx="4" stroke="none"/>
      <rect x="0.5" y="0.5" width="35" height="30" rx="3.5" fill="none"/>
    </g>
    <g id="setting_" transform="translate(6.926 -580.074)">
      <path id="Shape"
            d="M9.972,19.963c-.3,0-.612-.014-.915-.041a1.028,1.028,0,0,1-.916-.867l-.229-1.5A7.838,7.838,0,0,1,6.089,16.8l-.321.236-.9.662a1.017,1.017,0,0,1-.607.2,1.029,1.029,0,0,1-.649-.231A10.2,10.2,0,0,1,2.3,16.357,1.03,1.03,0,0,1,2.265,15.1l.9-1.222a7.859,7.859,0,0,1-.755-1.824l-.269-.041L.908,11.819a1.024,1.024,0,0,1-.864-.911,10.17,10.17,0,0,1,0-1.851,1.029,1.029,0,0,1,.867-.916l1.5-.229a7.848,7.848,0,0,1,.755-1.824l-.328-.447-.008-.01,0,0-.56-.763A1.025,1.025,0,0,1,2.3,3.61,10.194,10.194,0,0,1,3.606,2.3a1.034,1.034,0,0,1,.653-.234,1.017,1.017,0,0,1,.608.2l1.222.9a7.892,7.892,0,0,1,1.824-.756l.053-.351c.054-.351.123-.8.177-1.149a1.023,1.023,0,0,1,.91-.864C9.363.015,9.678,0,9.992,0s.61.014.913.041a1.03,1.03,0,0,1,.916.868l.228,1.5a7.892,7.892,0,0,1,1.824.756l.324-.238.9-.66a1.025,1.025,0,0,1,1.256.032,10.272,10.272,0,0,1,1.311,1.307A1.031,1.031,0,0,1,17.7,4.867l-.9,1.222a7.822,7.822,0,0,1,.756,1.824L18,7.981l1.055.162a1.023,1.023,0,0,1,.864.911,10.17,10.17,0,0,1,0,1.851,1.028,1.028,0,0,1-.867.916l-1.5.228a7.832,7.832,0,0,1-.756,1.824l.324.44.575.784a1.023,1.023,0,0,1-.033,1.256,10.183,10.183,0,0,1-1.307,1.311,1.036,1.036,0,0,1-.653.234,1.018,1.018,0,0,1-.608-.2l-1.222-.9a7.841,7.841,0,0,1-1.824.756l-.037.245c-.056.362-.134.873-.193,1.256a1.023,1.023,0,0,1-.911.864C10.592,19.948,10.277,19.963,9.972,19.963Zm-3.9-3.85a.311.311,0,0,1,.162.045A7.2,7.2,0,0,0,8.264,17a.309.309,0,0,1,.234.256l.259,1.7a.4.4,0,0,0,.358.34c.282.026.569.039.855.039s.588-.014.878-.041a.4.4,0,0,0,.354-.338c.1-.657.26-1.693.261-1.7A.309.309,0,0,1,11.7,17a7.2,7.2,0,0,0,2.032-.842.313.313,0,0,1,.347.015l1.388,1.021a.4.4,0,0,0,.239.079.408.408,0,0,0,.255-.09,9.576,9.576,0,0,0,1.223-1.227.4.4,0,0,0,.011-.491l-1.02-1.388a.308.308,0,0,1-.015-.347A7.217,7.217,0,0,0,17,11.7a.311.311,0,0,1,.256-.234l1.7-.26a.4.4,0,0,0,.34-.358,9.463,9.463,0,0,0,0-1.732.4.4,0,0,0-.338-.354l-1.7-.261A.313.313,0,0,1,17,8.265a7.23,7.23,0,0,0-.842-2.033.308.308,0,0,1,.015-.346L17.2,4.5A.4.4,0,0,0,17.183,4,9.613,9.613,0,0,0,15.956,2.78a.4.4,0,0,0-.251-.089.4.4,0,0,0-.239.078c-.54.4-1.388,1.02-1.388,1.02a.31.31,0,0,1-.185.061A.313.313,0,0,1,13.73,3.8,7.225,7.225,0,0,0,11.7,2.962a.309.309,0,0,1-.234-.256L11.2,1a.4.4,0,0,0-.359-.341c-.285-.025-.573-.038-.859-.038S9.4.637,9.114.664A.4.4,0,0,0,8.76,1c-.1.663-.261,1.7-.261,1.7a.309.309,0,0,1-.234.256A7.22,7.22,0,0,0,6.232,3.8a.313.313,0,0,1-.162.045.31.31,0,0,1-.185-.061L4.5,2.768A.4.4,0,0,0,4,2.78,9.487,9.487,0,0,0,2.78,4.007a.4.4,0,0,0-.011.49c.379.518.976,1.329,1.018,1.386a.31.31,0,0,1,.017.349,7.23,7.23,0,0,0-.842,2.033.313.313,0,0,1-.256.234L1,8.758a.4.4,0,0,0-.341.359,9.468,9.468,0,0,0,0,1.732A.4.4,0,0,0,1,11.2c.662.1,1.7.262,1.7.262a.311.311,0,0,1,.256.234A7.217,7.217,0,0,0,3.8,13.73a.31.31,0,0,1-.015.347L2.768,15.465a.4.4,0,0,0,.012.494,9.574,9.574,0,0,0,1.227,1.223.4.4,0,0,0,.251.089.4.4,0,0,0,.239-.078c.54-.4,1.389-1.021,1.389-1.021A.31.31,0,0,1,6.07,16.113Z"
            transform="translate(37.5 608.5)" fill="#b5b5b5"/>
      <path id="Shape-2" data-name="Shape"
            d="M3.119,6.238A3.119,3.119,0,1,1,6.238,3.119,3.123,3.123,0,0,1,3.119,6.238Zm0-5.614a2.5,2.5,0,1,0,2.5,2.5A2.5,2.5,0,0,0,3.119.624Z"
            transform="translate(44.41 615.41)" fill="#b5b5b5"/>
      <path id="Shape-3" data-name="Shape"
            d="M3.116.271A.309.309,0,0,0,2.766,0,3.364,3.364,0,0,0,0,2.756a.312.312,0,1,0,.615.1A2.692,2.692,0,0,1,2.849.621.312.312,0,0,0,3.116.271Z"
            transform="translate(42.107 613.874)" fill="#b5b5b5"/>
    </g>
  </g>
</svg>
