<svg xmlns="http://www.w3.org/2000/svg" width="23" height="23" viewBox="0 0 23 23">
  <path id="myacc_icon" fill="#0989cc"
        d="M-2374.5 23a11.424 11.424 0 0 1-8.132-3.368A11.425 11.425 0 0 1-2386 11.5a11.423 11.423 0 0 1 3.369-8.131A11.425 11.425 0 0 1-2374.5 0a11.422 11.422 0 0 1 8.13 3.368A11.423 11.423 0 0 1-2363 11.5a11.425 11.425 0 0 1-3.369 8.132A11.421 11.421 0 0 1-2374.5 23zm0-20a8.51 8.51 0 0 0-8.5 8.5 8.51 8.51 0 0 0 8.5 8.5 8.509 8.509 0 0 0 8.5-8.5 8.509 8.509 0 0 0-8.5-8.5zm0 15.081a6.571 6.571 0 0 1-5.021-2.338 3.824 3.824 0 0 1 3.376-2.05.818.818 0 0 1 .243.037 4.536 4.536 0 0 0 1.4.236 4.558 4.558 0 0 0 1.4-.236.818.818 0 0 1 .243-.037 3.821 3.821 0 0 1 3.376 2.05 6.565 6.565 0 0 1-5.017 2.338zm0-5.759a3.02 3.02 0 0 1-3.017-3.016 3.02 3.02 0 0 1 3.017-3.016 3.02 3.02 0 0 1 3.016 3.017 3.019 3.019 0 0 1-3.016 3.015z"
        transform="translate(2386)"/>
</svg>
