<svg xmlns="http://www.w3.org/2000/svg" width="23" height="23" viewBox="0 0 23 23">
  <path id="push_icon" fill="#0989cc"
        d="M-2114.715 23v-4.06a10.33 10.33 0 0 1-4.285-8.292 10.2 10.2 0 0 1 3.368-7.529A11.9 11.9 0 0 1-2107.5 0a11.9 11.9 0 0 1 8.132 3.119 10.2 10.2 0 0 1 3.368 7.529 10.2 10.2 0 0 1-3.368 7.53 11.9 11.9 0 0 1-8.132 3.122 12.378 12.378 0 0 1-3.3-.445l-3.913 2.145zM-2112 8v8h2v-5h3.557l1.75 1.575-1.663 1.765 1.663-1.765L-2102 15v-4h.5a.5.5 0 0 0 .5-.5.5.5 0 0 0-.5-.5h-.5V6l-4.444 4H-2110V8z"
        transform="translate(2119)"/>
</svg>
