<svg xmlns="http://www.w3.org/2000/svg" width="23" height="23" viewBox="0 0 23 23">
  <path id="setting_icon" fill="#0989cc"
        d="M-2889.5-8a11.425 11.425 0 0 1-8.132-3.368A11.425 11.425 0 0 1-2901-19.5a11.423 11.423 0 0 1 3.368-8.131A11.426 11.426 0 0 1-2889.5-31a11.425 11.425 0 0 1 8.131 3.368A11.423 11.423 0 0 1-2878-19.5a11.425 11.425 0 0 1-3.368 8.132A11.424 11.424 0 0 1-2889.5-8zm0-4.4a2.194 2.194 0 0 1 2.037 1.4 8.675 8.675 0 0 0 2.527-1.049 2.18 2.18 0 0 1 .452-2.43 2.17 2.17 0 0 1 1.545-.637 2.2 2.2 0 0 1 .885.185 8.712 8.712 0 0 0 1.05-2.527 2.184 2.184 0 0 1-1.4-2.045 2.176 2.176 0 0 1 1.4-2.04 8.673 8.673 0 0 0-1.048-2.527 2.209 2.209 0 0 1-.89.191 2.186 2.186 0 0 1-1.545-.637 2.181 2.181 0 0 1-.452-2.434 8.621 8.621 0 0 0-2.52-1.05 2.2 2.2 0 0 1-2.041 1.4 2.2 2.2 0 0 1-2.041-1.4 8.692 8.692 0 0 0-2.528 1.049 2.194 2.194 0 0 1-.451 2.434 2.17 2.17 0 0 1-1.545.637 2.137 2.137 0 0 1-.89-.191 8.868 8.868 0 0 0-1.045 2.533 2.2 2.2 0 0 1 1.4 2.04 2.177 2.177 0 0 1-1.4 2.04 8.687 8.687 0 0 0 1.05 2.527 2.21 2.21 0 0 1 .885-.185 2.186 2.186 0 0 1 1.545.637 2.2 2.2 0 0 1 .452 2.43 8.69 8.69 0 0 0 2.531 1.049 2.194 2.194 0 0 1 2.037-1.4zm.04-3.567a3.545 3.545 0 0 1-3.54-3.539 3.545 3.545 0 0 1 3.542-3.542 3.545 3.545 0 0 1 3.542 3.542 3.545 3.545 0 0 1-3.545 3.541z"
        transform="translate(2901 31)"/>
</svg>
