<svg xmlns="http://www.w3.org/2000/svg" id="Social_Wall_icon" width="99" height="184" data-name="Social Wall_icon"
     viewBox="0 0 99 184">
  <defs>
    <style>
      .cls-2{fill:#393c40}.cls-3{fill:#ecedef}
    </style>
  </defs>
  <g id="Cart_Ecommerce" data-name="Cart Ecommerce" transform="translate(-979.5 -665)">
    <g id="Form_Builder" data-name="Form Builder" transform="translate(138)">
      <g id="Blank" transform="translate(286.5 364)">
        <g id="Side_Menu" data-name="Side Menu" transform="translate(122)">
          <rect id="Прямоугольник_43" width="99" height="184" fill="#868686" data-name="Прямоугольник 43" rx="8"
                transform="translate(433 301)"/>
        </g>
      </g>
    </g>
    <g id="Сгруппировать_243" data-name="Сгруппировать 243" transform="translate(0 -12)">
      <path id="Прямоугольник_76" d="M0 0H98V46H0z" class="cls-2" data-name="Прямоугольник 76"
            transform="translate(980 684)"/>
      <path id="Вычитание_16"
            d="M-2030 41h-98V0h98v41zm-90.5-10a3.5 3.5 0 0 0-3.5 3.5 3.5 3.5 0 0 0 3.5 3.5 3.5 3.5 0 0 0 3.5-3.5 3.5 3.5 0 0 0-3.5-3.5zm7.5 2v3h21v-3zm44.847-8.654V28.2h.242v-1.009c0-.136 0-.269-.01-.4l-.007-.205h.017a.974.974 0 0 0 .894.459 1 1 0 0 0 .809-.36 1.561 1.561 0 0 0 .3-1.014 1.625 1.625 0 0 0-.281-1.027.992.992 0 0 0-.819-.353.963.963 0 0 0-.874.43h-.014l-.047-.379zm-13.906 3.594v.211a1.087 1.087 0 0 0 .31.051.7.7 0 0 0 .317-.067.641.641 0 0 0 .228-.2 2.38 2.38 0 0 0 .242-.508l1.189-3.083h-.249l-.562 1.475c-.158.429-.268.737-.334.94h-.015c-.043-.153-.143-.438-.324-.925l-.562-1.49h-.249l1.015 2.654c-.013.038-.039.107-.077.207l-.027.072-.026.069a2.451 2.451 0 0 1-.178.391.55.55 0 0 1-.172.182.413.413 0 0 1-.22.059 1.146 1.146 0 0 1-.306-.038zm22.273-4.235l-.123.6-.393.11v.142h.393v1.713a.875.875 0 0 0 .167.59.66.66 0 0 0 .518.188 1.271 1.271 0 0 0 .405-.059v-.2a1.8 1.8 0 0 1-.4.04.394.394 0 0 1-.338-.147.778.778 0 0 1-.107-.452v-1.674h.779v-.211h-.779V23.7zm-2.7 2.92v.262a1.849 1.849 0 0 0 .845.163 1.323 1.323 0 0 0 .769-.192.633.633 0 0 0 .271-.548.578.578 0 0 0-.081-.31.765.765 0 0 0-.246-.236 2.813 2.813 0 0 0-.523-.233 2.071 2.071 0 0 1-.577-.278.412.412 0 0 1-.147-.332.33.33 0 0 1 .19-.3 1.052 1.052 0 0 1 .516-.108 1.907 1.907 0 0 1 .724.162l.091-.221a2.114 2.114 0 0 0-.815-.161 1.222 1.222 0 0 0-.7.174.545.545 0 0 0-.25.472.6.6 0 0 0 .081.319.793.793 0 0 0 .243.234 3.036 3.036 0 0 0 .56.247 1.76 1.76 0 0 1 .533.269.425.425 0 0 1 .163.337.4.4 0 0 1-.2.348 1.124 1.124 0 0 1-.6.131 1.869 1.869 0 0 1-.845-.2zm-1.665-2.329a1.09 1.09 0 0 0-.864.363 1.5 1.5 0 0 0-.315 1.012 1.764 1.764 0 0 0 .141.727 1.085 1.085 0 0 0 .408.483 1.133 1.133 0 0 0 .615.168 1.1 1.1 0 0 0 .869-.365 1.512 1.512 0 0 0 .315-1.014 1.517 1.517 0 0 0-.311-1.007 1.07 1.07 0 0 0-.859-.368zm-6.843-.59l-.122.6-.393.11v.142h.393v1.712a.875.875 0 0 0 .167.59.66.66 0 0 0 .518.188 1.264 1.264 0 0 0 .406-.059v-.2a1.826 1.826 0 0 1-.4.04.394.394 0 0 1-.337-.147.778.778 0 0 1-.107-.452v-1.674h.779v-.211h-.779V23.7zm-2.7 2.92v.262a1.851 1.851 0 0 0 .845.163 1.327 1.327 0 0 0 .77-.192.635.635 0 0 0 .271-.548.58.58 0 0 0-.082-.31.77.77 0 0 0-.246-.236 2.842 2.842 0 0 0-.522-.233 2.069 2.069 0 0 1-.578-.278.412.412 0 0 1-.148-.332.329.329 0 0 1 .191-.3 1.049 1.049 0 0 1 .515-.108 1.918 1.918 0 0 1 .726.162l.09-.221a2.112 2.112 0 0 0-.815-.161 1.222 1.222 0 0 0-.7.174.545.545 0 0 0-.25.472.588.588 0 0 0 .082.319.777.777 0 0 0 .242.234 3.053 3.053 0 0 0 .56.247 1.768 1.768 0 0 1 .533.269.423.423 0 0 1 .163.337.4.4 0 0 1-.2.348 1.125 1.125 0 0 1-.6.131 1.869 1.869 0 0 1-.845-.2zm-16.211 0v.262a1.85 1.85 0 0 0 .845.163 1.322 1.322 0 0 0 .769-.192.633.633 0 0 0 .271-.548.578.578 0 0 0-.081-.31.767.767 0 0 0-.246-.236 2.813 2.813 0 0 0-.523-.233 2.07 2.07 0 0 1-.577-.278.412.412 0 0 1-.147-.332.33.33 0 0 1 .19-.3 1.05 1.05 0 0 1 .516-.108 1.907 1.907 0 0 1 .724.162l.091-.221a2.112 2.112 0 0 0-.815-.161 1.222 1.222 0 0 0-.7.174.545.545 0 0 0-.25.472.6.6 0 0 0 .081.319.789.789 0 0 0 .243.234 3.035 3.035 0 0 0 .56.247 1.762 1.762 0 0 1 .533.269.425.425 0 0 1 .163.337.4.4 0 0 1-.2.348 1.125 1.125 0 0 1-.6.131 1.869 1.869 0 0 1-.845-.2zm-4.758 0v.262a1.85 1.85 0 0 0 .845.163 1.322 1.322 0 0 0 .769-.192.633.633 0 0 0 .271-.548.58.58 0 0 0-.081-.31.77.77 0 0 0-.246-.236 2.813 2.813 0 0 0-.523-.233 2.07 2.07 0 0 1-.577-.278.412.412 0 0 1-.147-.332.33.33 0 0 1 .19-.3 1.05 1.05 0 0 1 .516-.108 1.907 1.907 0 0 1 .724.162l.091-.221a2.112 2.112 0 0 0-.815-.161 1.222 1.222 0 0 0-.7.174.545.545 0 0 0-.25.472.6.6 0 0 0 .081.319.787.787 0 0 0 .243.234 3.035 3.035 0 0 0 .56.247 1.762 1.762 0 0 1 .533.269.425.425 0 0 1 .163.337.4.4 0 0 1-.2.348 1.125 1.125 0 0 1-.6.131 1.869 1.869 0 0 1-.845-.2zm-8.808-.053c-.13 0-.2.08-.2.239s.066.239.2.239.2-.081.2-.239-.069-.241-.202-.241zm-2.72.053v.262a1.844 1.844 0 0 0 .845.163 1.326 1.326 0 0 0 .769-.192.633.633 0 0 0 .271-.548.575.575 0 0 0-.082-.31.761.761 0 0 0-.245-.236 2.884 2.884 0 0 0-.523-.233 2.07 2.07 0 0 1-.577-.278.41.41 0 0 1-.147-.332.33.33 0 0 1 .19-.3 1.048 1.048 0 0 1 .515-.108 1.909 1.909 0 0 1 .725.162l.091-.221a2.117 2.117 0 0 0-.816-.161 1.225 1.225 0 0 0-.7.174.546.546 0 0 0-.25.472.6.6 0 0 0 .082.319.793.793 0 0 0 .243.234 3 3 0 0 0 .559.247 1.755 1.755 0 0 1 .534.269.425.425 0 0 1 .162.337.4.4 0 0 1-.2.348 1.125 1.125 0 0 1-.6.131 1.869 1.869 0 0 1-.845-.2zm-1.5-2.329a1.038 1.038 0 0 0-.843.383 1.566 1.566 0 0 0-.312 1.017 1.441 1.441 0 0 0 .323 1 1.163 1.163 0 0 0 .9.356 2.331 2.331 0 0 0 .419-.035 1.942 1.942 0 0 0 .415-.133v-.22a2.44 2.44 0 0 1-.436.137 2.264 2.264 0 0 1-.4.031.9.9 0 0 1-.716-.288 1.26 1.26 0 0 1-.256-.835h1.912v-.2a1.355 1.355 0 0 0-.271-.888.915.915 0 0 0-.744-.327zm-5.989 2.276c-.13 0-.2.08-.2.239s.064.239.2.239.2-.081.2-.239-.072-.241-.205-.241zm-8.4-3.2a1.48 1.48 0 0 0-1.171.49 1.971 1.971 0 0 0-.428 1.341 2.01 2.01 0 0 0 .425 1.349 1.465 1.465 0 0 0 1.169.494 1.467 1.467 0 0 0 1.172-.494 2 2 0 0 0 .425-1.344 2.007 2.007 0 0 0-.422-1.345 1.465 1.465 0 0 0-1.176-.489zm46.684.971V27h.242v-1.465a1.179 1.179 0 0 1 .217-.727.673.673 0 0 1 .557-.288 1.407 1.407 0 0 1 .344.041l.047-.232a2.122 2.122 0 0 0-.362-.034.823.823 0 0 0-.449.119 1.148 1.148 0 0 0-.349.411h-.017l-.024-.479zm-1.13 0V27h.242v-2.654zm-.613-1.172a.7.7 0 0 0-.587.229 1.163 1.163 0 0 0-.179.716v.205l-.493.09v.142h.493V27h.241v-2.444h.625v-.211h-.625V24.1a.962.962 0 0 1 .119-.543.458.458 0 0 1 .4-.167 1.3 1.3 0 0 1 .388.061l.057-.211a1.563 1.563 0 0 0-.445-.066zm-6.194 1.34a.578.578 0 0 1 .464.179.87.87 0 0 1 .151.566V27h.24v-1.736a1.058 1.058 0 0 0-.218-.737.852.852 0 0 0-.652-.232 1.009 1.009 0 0 0-.5.122.9.9 0 0 0-.347.349h-.01a.766.766 0 0 0-.806-.472.938.938 0 0 0-.446.109.764.764 0 0 0-.312.307h-.014l-.051-.365h-.2V27h.242v-1.465a1.273 1.273 0 0 1 .19-.778.729.729 0 0 1 .608-.243c.408 0 .615.226.615.671V27h.247v-1.555a1.065 1.065 0 0 1 .2-.706.762.762 0 0 1 .593-.225zm-7.458-.168V27h.242v-2.654zm-4.758 0V27h.242v-2.654zm-1.789.168a.682.682 0 0 1 .522.183.841.841 0 0 1 .168.582V27h.24v-1.736c0-.643-.3-.969-.9-.969a1.315 1.315 0 0 0-.564.108.9.9 0 0 0-.376.347h-.017l.013-.339V23.2h-.242V27h.242v-1.465a1.141 1.141 0 0 1 .22-.779.911.911 0 0 1 .687-.242zm-4.2-1.084v.234h1.159V27h.252v-3.335h1.159v-.234zm-10.237 0l1.193 2.209V27h.257v-1.38l1.189-2.19h-.268l-1.045 1.953-1.04-1.953h-.286zm-3.845 1.084a.683.683 0 0 1 .523.183.841.841 0 0 1 .168.582V27h.24v-1.736c0-.643-.3-.969-.9-.969a1.321 1.321 0 0 0-.564.108.89.89 0 0 0-.375.347h-.017l.012-.339V23.2h-.241V27h.241v-1.465a1.135 1.135 0 0 1 .221-.779.906.906 0 0 1 .686-.242zm-2.949 0a.683.683 0 0 1 .523.183.842.842 0 0 1 .168.582V27h.239v-1.736c0-.643-.3-.969-.9-.969a1.312 1.312 0 0 0-.563.108.886.886 0 0 0-.376.347h-.017l.012-.339V23.2h-.241V27h.241v-1.465a1.137 1.137 0 0 1 .221-.779.907.907 0 0 1 .686-.242zm14.961-1.084l.07 2.649h.149l.07-2.649zm-10.213 0l.071 2.649h.149l.07-2.649zm37.415-.056c-.1 0-.154.079-.154.234s.052.237.154.237a.137.137 0 0 0 .119-.063.306.306 0 0 0 .042-.174.3.3 0 0 0-.042-.174.138.138 0 0 0-.126-.057zm-14.265 0c-.1 0-.154.079-.154.234s.052.237.154.237a.137.137 0 0 0 .119-.063.313.313 0 0 0 .042-.174.309.309 0 0 0-.042-.174.138.138 0 0 0-.125-.057zm-4.758 0c-.1 0-.154.079-.154.234s.052.237.154.237a.137.137 0 0 0 .119-.063.313.313 0 0 0 .042-.174.309.309 0 0 0-.042-.174.138.138 0 0 0-.126-.057zm41.155-7.08a.957.957 0 0 0-.683.241.844.844 0 0 0-.252.638.865.865 0 0 0 .129.468.763.763 0 0 0 .362.3.568.568 0 0 0-.339.469.343.343 0 0 0 .072.216.467.467 0 0 0 .192.145.886.886 0 0 0-.461.247.642.642 0 0 0-.169.455.62.62 0 0 0 .275.536 1.342 1.342 0 0 0 .775.194 1.749 1.749 0 0 0 .971-.229.738.738 0 0 0 .34-.648.611.611 0 0 0-.229-.517 1.084 1.084 0 0 0-.662-.175h-.463a.646.646 0 0 1-.324-.059.2.2 0 0 1-.1-.185.356.356 0 0 1 .076-.217.648.648 0 0 1 .219-.179 1.477 1.477 0 0 0 .254.015.966.966 0 0 0 .685-.239.813.813 0 0 0 .256-.621.944.944 0 0 0-.219-.6l.549-.034v-.169h-.85a1.263 1.263 0 0 0-.411-.049zm-36.511 0a.956.956 0 0 0-.683.241.844.844 0 0 0-.252.638.866.866 0 0 0 .129.468.763.763 0 0 0 .362.3.569.569 0 0 0-.339.469.344.344 0 0 0 .072.216.469.469 0 0 0 .192.145.886.886 0 0 0-.461.247.643.643 0 0 0-.169.455.62.62 0 0 0 .275.536 1.342 1.342 0 0 0 .775.194 1.749 1.749 0 0 0 .971-.229.738.738 0 0 0 .34-.648.611.611 0 0 0-.229-.517 1.084 1.084 0 0 0-.662-.175h-.463a.645.645 0 0 1-.324-.059.2.2 0 0 1-.1-.185.356.356 0 0 1 .076-.217.649.649 0 0 1 .219-.179 1.477 1.477 0 0 0 .254.015.965.965 0 0 0 .685-.239.813.813 0 0 0 .256-.621.944.944 0 0 0-.219-.6l.549-.034v-.169h-.85a1.261 1.261 0 0 0-.411-.049zm48.324 0a1.037 1.037 0 0 0-.842.382 1.566 1.566 0 0 0-.312 1.017 1.437 1.437 0 0 0 .324 1 1.159 1.159 0 0 0 .9.356 2.328 2.328 0 0 0 .419-.035 1.892 1.892 0 0 0 .416-.133v-.22a2.48 2.48 0 0 1-.437.137 2.264 2.264 0 0 1-.4.031.9.9 0 0 1-.716-.288 1.26 1.26 0 0 1-.256-.835h1.912v-.2a1.354 1.354 0 0 0-.271-.888.915.915 0 0 0-.743-.321zm-2.543-.59l-.122.6-.393.11v.142h.393v1.716a.874.874 0 0 0 .167.59.661.661 0 0 0 .518.188 1.265 1.265 0 0 0 .406-.059v-.2a1.822 1.822 0 0 1-.4.04.394.394 0 0 1-.337-.147.775.775 0 0 1-.107-.452v-1.674h.779v-.211h-.779V15.7zm-1.87.805a.6.6 0 0 1 .495.193.907.907 0 0 1 .154.572v.176l-.5.014a1.77 1.77 0 0 0-.937.227.687.687 0 0 0-.323.6.718.718 0 0 0 .217.554.869.869 0 0 0 .608.2 1.1 1.1 0 0 0 .5-.106 1.277 1.277 0 0 0 .411-.362h.019l.061.419h.178v-1.759a1 1 0 0 0-.216-.708.865.865 0 0 0-.652-.227 2.032 2.032 0 0 0-.865.205l.091.21a1.665 1.665 0 0 1 .752-.205zm-2.654-.215a1.038 1.038 0 0 0-.843.382 1.567 1.567 0 0 0-.312 1.017 1.441 1.441 0 0 0 .323 1 1.163 1.163 0 0 0 .9.356 2.331 2.331 0 0 0 .419-.035 1.9 1.9 0 0 0 .415-.133v-.22a2.438 2.438 0 0 1-.436.137 2.264 2.264 0 0 1-.4.031.9.9 0 0 1-.716-.288 1.26 1.26 0 0 1-.256-.835h1.912v-.2a1.355 1.355 0 0 0-.271-.888.915.915 0 0 0-.742-.321zm-8.865 0a1.007 1.007 0 0 0-.837.365 1.669 1.669 0 0 0-.288 1.052 1.506 1.506 0 0 0 .291 1 1.044 1.044 0 0 0 .84.341.985.985 0 0 0 .868-.454h.02l.061.405h.158V15.2h-.24v.955c0 .192.005.395.015.6h-.015a.989.989 0 0 0-.375-.359 1.107 1.107 0 0 0-.505-.101zm-5.659.215a.6.6 0 0 1 .5.193.908.908 0 0 1 .154.572v.176l-.506.014a1.768 1.768 0 0 0-.936.227.687.687 0 0 0-.323.6.718.718 0 0 0 .217.554.869.869 0 0 0 .608.2 1.1 1.1 0 0 0 .5-.106 1.256 1.256 0 0 0 .411-.362h.02l.061.419h.178v-1.759a1 1 0 0 0-.216-.708.867.867 0 0 0-.654-.227 2.032 2.032 0 0 0-.864.205l.09.21a1.665 1.665 0 0 1 .753-.205zm-3.952-.215a1.035 1.035 0 0 0-.843.382 1.562 1.562 0 0 0-.313 1.017 1.436 1.436 0 0 0 .324 1 1.159 1.159 0 0 0 .9.356 2.336 2.336 0 0 0 .42-.035 1.9 1.9 0 0 0 .415-.133v-.22a2.461 2.461 0 0 1-.436.137 2.286 2.286 0 0 1-.4.031.9.9 0 0 1-.716-.288 1.259 1.259 0 0 1-.255-.835h1.908v-.2a1.354 1.354 0 0 0-.272-.888.911.911 0 0 0-.739-.321zm-7.32 0a1.09 1.09 0 0 0-.864.363 1.5 1.5 0 0 0-.315 1.013 1.764 1.764 0 0 0 .141.727 1.088 1.088 0 0 0 .408.483 1.129 1.129 0 0 0 .615.168 1.091 1.091 0 0 0 .869-.365 1.509 1.509 0 0 0 .315-1.014 1.513 1.513 0 0 0-.312-1.007 1.067 1.067 0 0 0-.864-.365zm-3.594 2.329v.262a1.843 1.843 0 0 0 .844.163 1.327 1.327 0 0 0 .77-.192.633.633 0 0 0 .271-.548.566.566 0 0 0-.082-.31.748.748 0 0 0-.244-.236 2.9 2.9 0 0 0-.523-.233 2.071 2.071 0 0 1-.577-.278.413.413 0 0 1-.148-.332.332.332 0 0 1 .191-.3 1.052 1.052 0 0 1 .515-.107 1.906 1.906 0 0 1 .725.161l.09-.22a2.091 2.091 0 0 0-.815-.162 1.222 1.222 0 0 0-.7.174.547.547 0 0 0-.25.472.6.6 0 0 0 .082.319.779.779 0 0 0 .243.234 3 3 0 0 0 .559.247 1.761 1.761 0 0 1 .534.269.425.425 0 0 1 .162.337.4.4 0 0 1-.2.348 1.127 1.127 0 0 1-.6.13 1.863 1.863 0 0 1-.844-.2zm-1.5-2.329a1.035 1.035 0 0 0-.842.382 1.565 1.565 0 0 0-.312 1.017 1.44 1.44 0 0 0 .323 1 1.164 1.164 0 0 0 .9.356 2.331 2.331 0 0 0 .419-.035 1.9 1.9 0 0 0 .415-.133v-.22a2.448 2.448 0 0 1-.436.137 2.264 2.264 0 0 1-.4.031.9.9 0 0 1-.717-.288 1.258 1.258 0 0 1-.255-.835h1.912v-.2a1.354 1.354 0 0 0-.271-.888.915.915 0 0 0-.746-.321zm-6.355.215a.6.6 0 0 1 .495.193.906.906 0 0 1 .154.572v.176l-.5.014a1.764 1.764 0 0 0-.936.227.686.686 0 0 0-.324.6.718.718 0 0 0 .218.554.865.865 0 0 0 .607.2 1.105 1.105 0 0 0 .5-.106 1.275 1.275 0 0 0 .411-.362h.02l.06.419h.178v-1.759a1 1 0 0 0-.216-.708.865.865 0 0 0-.653-.227 2.032 2.032 0 0 0-.865.205l.091.21a1.665 1.665 0 0 1 .75-.205zm-13.4-.805l-.122.6-.393.11v.142h.393v1.716a.875.875 0 0 0 .167.59.658.658 0 0 0 .518.188 1.271 1.271 0 0 0 .405-.059v-.2a1.808 1.808 0 0 1-.4.04.393.393 0 0 1-.337-.147.778.778 0 0 1-.107-.452v-1.674h.779v-.211h-.779V15.7zm-1.875.59a1.038 1.038 0 0 0-.843.382 1.566 1.566 0 0 0-.312 1.017 1.441 1.441 0 0 0 .323 1 1.163 1.163 0 0 0 .9.356 2.331 2.331 0 0 0 .419-.035 1.9 1.9 0 0 0 .415-.133v-.22a2.44 2.44 0 0 1-.436.137 2.264 2.264 0 0 1-.4.031.9.9 0 0 1-.716-.288 1.26 1.26 0 0 1-.256-.835h1.912v-.2a1.355 1.355 0 0 0-.271-.888.915.915 0 0 0-.741-.321zm-7.32 0a1.089 1.089 0 0 0-.864.363 1.5 1.5 0 0 0-.315 1.013 1.761 1.761 0 0 0 .142.727 1.081 1.081 0 0 0 .408.483 1.127 1.127 0 0 0 .615.168 1.093 1.093 0 0 0 .87-.365 1.513 1.513 0 0 0 .315-1.014 1.517 1.517 0 0 0-.312-1.007 1.071 1.071 0 0 0-.865-.365zm-3.594 2.329v.262a1.849 1.849 0 0 0 .845.163 1.321 1.321 0 0 0 .769-.192.633.633 0 0 0 .272-.548.586.586 0 0 0-.082-.31.774.774 0 0 0-.246-.236 2.832 2.832 0 0 0-.522-.233 2.069 2.069 0 0 1-.578-.278.415.415 0 0 1-.148-.332.332.332 0 0 1 .19-.3 1.045 1.045 0 0 1 .516-.107 1.9 1.9 0 0 1 .724.161l.091-.22a2.1 2.1 0 0 0-.815-.162 1.222 1.222 0 0 0-.7.174.545.545 0 0 0-.25.472.6.6 0 0 0 .081.319.793.793 0 0 0 .243.234 3.035 3.035 0 0 0 .56.247 1.763 1.763 0 0 1 .533.269.425.425 0 0 1 .163.337.4.4 0 0 1-.2.348 1.124 1.124 0 0 1-.6.13 1.869 1.869 0 0 1-.845-.2zm-2.6-2.92l-.122.6-.393.11v.142h.393v1.717a.875.875 0 0 0 .167.59.66.66 0 0 0 .518.188 1.264 1.264 0 0 0 .406-.059v-.2a1.826 1.826 0 0 1-.4.04.394.394 0 0 1-.337-.147.776.776 0 0 1-.107-.452v-1.674h.779v-.211h-.779V15.7zm-4.366.59a1.034 1.034 0 0 0-.842.382 1.562 1.562 0 0 0-.313 1.017 1.437 1.437 0 0 0 .324 1 1.16 1.16 0 0 0 .9.356 2.331 2.331 0 0 0 .42-.035 1.9 1.9 0 0 0 .415-.133v-.22a2.5 2.5 0 0 1-.436.137 2.286 2.286 0 0 1-.4.031.9.9 0 0 1-.717-.288 1.264 1.264 0 0 1-.256-.835h1.912v-.2a1.354 1.354 0 0 0-.271-.888.912.912 0 0 0-.744-.32zm67.454.051V19h.241v-1.464a1.182 1.182 0 0 1 .218-.728.672.672 0 0 1 .556-.288 1.413 1.413 0 0 1 .345.041l.046-.232a2.093 2.093 0 0 0-.361-.034.817.817 0 0 0-.449.119 1.129 1.129 0 0 0-.349.411h-.017l-.024-.479zm-8.68.169a.684.684 0 0 1 .523.182.841.841 0 0 1 .168.582V19h.24v-1.736c0-.643-.3-.969-.9-.969a1 1 0 0 0-.921.416h-.014l-.046-.365h-.205V19h.241v-1.464a1.137 1.137 0 0 1 .221-.78.906.906 0 0 1 .686-.241zm-9.565 0a.576.576 0 0 1 .463.178.868.868 0 0 1 .152.566V19h.239v-1.736a1.059 1.059 0 0 0-.217-.737.855.855 0 0 0-.652-.232 1.009 1.009 0 0 0-.5.122.913.913 0 0 0-.348.349h-.01a.766.766 0 0 0-.806-.472.938.938 0 0 0-.446.109.764.764 0 0 0-.312.307h-.015l-.051-.365h-.2V19h.241v-1.464a1.268 1.268 0 0 1 .191-.778.728.728 0 0 1 .607-.243c.409 0 .616.226.616.671V19h.247v-1.555a1.064 1.064 0 0 1 .2-.706.763.763 0 0 1 .594-.224zm-12.937.18h.014c.057.229.105.407.144.53l.582 1.775h.254l.72-2.654h-.244l-.406 1.524c-.116.457-.182.743-.2.85h-.014c-.027-.129-.1-.384-.215-.759l-.52-1.615h-.219l-.546 1.619c-.045.127-.114.376-.211.76h-.014c-.031-.18-.1-.462-.2-.841l-.425-1.538h-.258l.759 2.654h.24l.591-1.77.11-.354.051-.18zm-9.735-.18a.684.684 0 0 1 .523.182.844.844 0 0 1 .168.582V19h.239v-1.736c0-.643-.3-.969-.9-.969a1 1 0 0 0-.921.416h-.014l-.047-.365h-.2V19h.241v-1.464a1.138 1.138 0 0 1 .221-.78.906.906 0 0 1 .681-.241zm-2.29-.169V19h.241v-2.654zm-1.79.169a.684.684 0 0 1 .523.182.841.841 0 0 1 .168.582V19h.24v-1.736c0-.643-.3-.969-.9-.969a1.321 1.321 0 0 0-.564.108.887.887 0 0 0-.375.347h-.017l.012-.339V15.2h-.241V19h.241v-1.464a1.137 1.137 0 0 1 .221-.78.906.906 0 0 1 .686-.241zm-7.292 0a.576.576 0 0 1 .463.178.869.869 0 0 1 .151.566V19h.239v-1.736a1.062 1.062 0 0 0-.217-.737.856.856 0 0 0-.653-.232 1.009 1.009 0 0 0-.5.122.9.9 0 0 0-.347.349h-.01a.766.766 0 0 0-.806-.472.94.94 0 0 0-.447.109.765.765 0 0 0-.312.307h-.014l-.051-.365h-.2V19h.242v-1.464a1.269 1.269 0 0 1 .19-.778.731.731 0 0 1 .608-.243c.408 0 .615.226.615.671V19h.247v-1.555a1.068 1.068 0 0 1 .2-.706.764.764 0 0 1 .596-.224zm-12.627 1.3l.833 1.183h.281l-.977-1.364.911-1.29h-.266l-.783 1.119-.791-1.119h-.279l.926 1.29-.965 1.37h.265l.84-1.183zm-6.58-2.385v.235h1.159V19h.252v-3.335h1.159v-.235zm28.409-.056c-.1 0-.154.079-.154.234s.052.237.154.237a.134.134 0 0 0 .118-.063.307.307 0 0 0 .043-.174.3.3 0 0 0-.043-.173.135.135 0 0 0-.124-.056zm3.767-8.435a2.346 2.346 0 0 0-1.147.275 1.88 1.88 0 0 0-.768.78 2.447 2.447 0 0 0-.268 1.159 2.283 2.283 0 0 0 .541 1.622 2.042 2.042 0 0 0 1.553.572 3.576 3.576 0 0 0 1.4-.264V9.131h-1.579v.281h1.274v1.506a2.693 2.693 0 0 1-1.005.167 1.85 1.85 0 0 1-1.386-.488 2.025 2.025 0 0 1-.472-1.454 1.976 1.976 0 0 1 .5-1.411 1.772 1.772 0 0 1 1.344-.523 2.734 2.734 0 0 1 1.154.258l.121-.27a2.985 2.985 0 0 0-1.268-.257zm-26.634 0a1.775 1.775 0 0 0-1.4.588 2.366 2.366 0 0 0-.514 1.609 2.415 2.415 0 0 0 .509 1.619 1.761 1.761 0 0 0 1.4.593 1.768 1.768 0 0 0 1.407-.593 2.4 2.4 0 0 0 .51-1.613 2.4 2.4 0 0 0-.507-1.613 1.757 1.757 0 0 0-1.411-.585zm-5.241 3.937v.3a3.307 3.307 0 0 0 1.2.173 1.645 1.645 0 0 0 1.048-.313 1.033 1.033 0 0 0 .394-.85 1.013 1.013 0 0 0-.116-.5 1.088 1.088 0 0 0-.367-.37 3.744 3.744 0 0 0-.753-.335 3.943 3.943 0 0 1-.674-.292.8.8 0 0 1-.282-.274.775.775 0 0 1-.086-.389.72.72 0 0 1 .282-.6 1.2 1.2 0 0 1 .756-.22 2.648 2.648 0 0 1 1.019.223l.109-.258a2.856 2.856 0 0 0-1.134-.229 1.5 1.5 0 0 0-.969.3.964.964 0 0 0-.376.784.971.971 0 0 0 .25.7 2.325 2.325 0 0 0 .907.488 4.117 4.117 0 0 1 .679.284.96.96 0 0 1 .334.292.73.73 0 0 1 .1.4.77.77 0 0 1-.309.634 1.329 1.329 0 0 1-.837.242 3.06 3.06 0 0 1-1.181-.2zm46.7-3.87v4.283h2.341v-.275h-2.042V9.178h1.928V8.9h-1.928V7.283h2.042v-.276zm-3.079 0v4.283h2.341v-.282h-2.042v-4zm-3.72 0v.281h1.391v4h.3v-4h1.392v-.276zm-.935 0v4.283h.3V7.007zm-3.721 0v.281h1.392v4h.3v-4h1.391v-.276zm-9.4.481h.023l2.537 3.8h.3V7.007h-.29V9.8c0 .318.009.655.026 1h-.017l-2.534-3.8h-.3v4.283h.287v-2.77c0-.23-.012-.574-.035-1.024zm-1.764-.481v4.283h.3V7.007zm-4.017 2.176h2.5v2.107h.3V7.007h-.3v1.9h-2.5v-1.9h-.3v4.283h.3V9.185zm-4.02-2.176v.281h1.392v4h.3v-4h1.391v-.276zm-2.733 0v4.283h2.341v-.275h-2.042V9.178h1.928V8.9h-1.928V7.283h2.042v-.276zm-1.5.334h.023c-.023.235-.035.471-.035.7v3.246h.3V7.007h-.452l-1.518 3.767h-.017l-1.518-3.767h-.462v4.283h.287V8.079c0-.241-.008-.491-.023-.744h.023l1.6 3.956h.191l1.6-3.948zm44.84 19.493a.814.814 0 0 1-.679-.266 1.468 1.468 0 0 1-.209-.889V25.6a1.285 1.285 0 0 1 .217-.832.851.851 0 0 1 .681-.256c.561 0 .845.394.845 1.17a1.4 1.4 0 0 1-.224.847.741.741 0 0 1-.636.305zm2.867-.005a.82.82 0 0 1-.68-.306 1.355 1.355 0 0 1-.24-.853 1.35 1.35 0 0 1 .239-.853.814.814 0 0 1 .677-.3.83.83 0 0 1 .683.3 1.339 1.339 0 0 1 .243.852 1.351 1.351 0 0 1-.241.853.817.817 0 0 1-.686.312zm-57.935-.014a1.2 1.2 0 0 1-.981-.418 1.841 1.841 0 0 1-.342-1.185 1.806 1.806 0 0 1 .345-1.18 1.211 1.211 0 0 1 .983-.415 1.208 1.208 0 0 1 .98.411 1.822 1.822 0 0 1 .34 1.184 1.842 1.842 0 0 1-.34 1.189 1.209 1.209 0 0 1-.99.419zm15.149-1.323h-1.641a1.2 1.2 0 0 1 .271-.729.8.8 0 0 1 .616-.253.665.665 0 0 1 .554.26 1.167 1.167 0 0 1 .2.721zm52.581-5.5c-.539 0-.813-.184-.813-.547 0-.38.246-.573.73-.573h.435a1 1 0 0 1 .529.107.386.386 0 0 1 .164.347c-.006.451-.357.679-1.051.679zm-36.511 0c-.539 0-.813-.184-.813-.547 0-.38.246-.573.73-.573h.435a1 1 0 0 1 .529.107.38.38 0 0 1 .164.347c-.006.451-.357.679-1.051.679zm32.478-1.162c-.582 0-.877-.38-.877-1.129a1.516 1.516 0 0 1 .219-.886.754.754 0 0 1 .653-.305.791.791 0 0 1 .668.269 1.486 1.486 0 0 1 .206.886v.041a1.389 1.389 0 0 1-.21.861.8.8 0 0 1-.665.272zm11.237-.005a.624.624 0 0 1-.431-.138.5.5 0 0 1-.152-.387.5.5 0 0 1 .238-.46 1.762 1.762 0 0 1 .8-.175l.464-.02v.261a.91.91 0 0 1-.245.675.915.915 0 0 1-.679.253zm-17.177 0a.623.623 0 0 1-.431-.138.5.5 0 0 1-.153-.387.5.5 0 0 1 .239-.46 1.73 1.73 0 0 1 .8-.175l.464-.02v.261a.91.91 0 0 1-.246.675.911.911 0 0 1-.678.253zm-11 0a.817.817 0 0 1-.68-.306 1.358 1.358 0 0 1-.24-.853 1.354 1.354 0 0 1 .238-.853.817.817 0 0 1 .678-.3.829.829 0 0 1 .682.3 1.335 1.335 0 0 1 .243.852 1.358 1.358 0 0 1-.24.853.817.817 0 0 1-.687.316zm-11.724 0a.628.628 0 0 1-.431-.138.5.5 0 0 1-.152-.387.5.5 0 0 1 .238-.46 1.76 1.76 0 0 1 .8-.175l.464-.02v.261a.91.91 0 0 1-.246.675.915.915 0 0 1-.68.253zm-22.319 0a.817.817 0 0 1-.679-.306 1.351 1.351 0 0 1-.241-.853 1.35 1.35 0 0 1 .239-.853.815.815 0 0 1 .678-.3.829.829 0 0 1 .682.3 1.336 1.336 0 0 1 .243.852 1.351 1.351 0 0 1-.241.853.817.817 0 0 1-.688.316zm55.093-1.008a.719.719 0 0 1-.5-.17.614.614 0 0 1-.186-.477.688.688 0 0 1 .182-.507.678.678 0 0 1 .5-.182.717.717 0 0 1 .509.17.663.663 0 0 1 .182.509.647.647 0 0 1-.176.489.716.716 0 0 1-.518.177zm-36.511 0a.718.718 0 0 1-.5-.17.613.613 0 0 1-.187-.477.688.688 0 0 1 .182-.507.678.678 0 0 1 .5-.182.72.72 0 0 1 .509.17.663.663 0 0 1 .182.509.647.647 0 0 1-.176.489.716.716 0 0 1-.52.177zm49.084-.329h-1.64a1.19 1.19 0 0 1 .271-.729.8.8 0 0 1 .615-.253.662.662 0 0 1 .554.26 1.166 1.166 0 0 1 .2.721zm-7.068 0h-1.641a1.2 1.2 0 0 1 .271-.729.8.8 0 0 1 .616-.253.665.665 0 0 1 .554.26 1.167 1.167 0 0 1 .2.721zm-18.476 0h-1.641a1.2 1.2 0 0 1 .271-.729.8.8 0 0 1 .616-.253.661.661 0 0 1 .553.26 1.161 1.161 0 0 1 .2.721zm-12.417 0h-1.641a1.2 1.2 0 0 1 .271-.729.8.8 0 0 1 .615-.253.664.664 0 0 1 .554.26 1.165 1.165 0 0 1 .2.721zm-21.626 0h-1.641a1.2 1.2 0 0 1 .271-.729.8.8 0 0 1 .616-.253.664.664 0 0 1 .554.26 1.167 1.167 0 0 1 .2.721zm-17.88 0h-1.641a1.2 1.2 0 0 1 .271-.729.8.8 0 0 1 .615-.253.661.661 0 0 1 .554.26 1.159 1.159 0 0 1 .2.721zm.741-6.424a1.438 1.438 0 0 1-1.177-.5 2.2 2.2 0 0 1-.41-1.422 2.163 2.163 0 0 1 .415-1.416 1.455 1.455 0 0 1 1.179-.5 1.448 1.448 0 0 1 1.176.494 2.18 2.18 0 0 1 .409 1.419 2.206 2.206 0 0 1-.409 1.426 1.449 1.449 0 0 1-1.191.507z"
            class="cls-3" data-name="Вычитание 16" transform="translate(3108 730)"/>
    </g>
    <g id="Сгруппировать_244" data-name="Сгруппировать 244" transform="translate(0 78)">
      <path id="Прямоугольник_76-2" d="M0 0H98V46H0z" class="cls-2" data-name="Прямоугольник 76"
            transform="translate(980 684)"/>
      <path id="Вычитание_16-2"
            d="M-2030 33h-98V0h98v33zm-38.154-8.655V28.2h.242v-1.009c0-.136 0-.269-.01-.4l-.007-.205h.017a.974.974 0 0 0 .894.459 1 1 0 0 0 .809-.36 1.561 1.561 0 0 0 .3-1.014 1.625 1.625 0 0 0-.281-1.027.992.992 0 0 0-.819-.353.963.963 0 0 0-.874.43h-.014l-.047-.379zm-13.906 3.594v.211a1.087 1.087 0 0 0 .31.051.7.7 0 0 0 .317-.067.641.641 0 0 0 .228-.2 2.38 2.38 0 0 0 .242-.509l1.189-3.083h-.249l-.562 1.475c-.158.429-.268.737-.334.94h-.015c-.043-.153-.143-.438-.324-.925l-.562-1.49h-.249l1.015 2.654c-.013.038-.039.107-.077.207l-.027.072-.026.069a2.451 2.451 0 0 1-.178.391.55.55 0 0 1-.172.182.413.413 0 0 1-.22.059 1.146 1.146 0 0 1-.305-.036zm22.273-4.235l-.123.6-.393.11v.142h.393v1.714a.875.875 0 0 0 .167.59.66.66 0 0 0 .518.188 1.271 1.271 0 0 0 .405-.059v-.2a1.8 1.8 0 0 1-.4.04.394.394 0 0 1-.338-.147.778.778 0 0 1-.107-.452v-1.673h.779v-.211h-.779V23.7zm-2.7 2.92v.262a1.849 1.849 0 0 0 .845.163 1.323 1.323 0 0 0 .769-.192.633.633 0 0 0 .271-.548.578.578 0 0 0-.081-.31.765.765 0 0 0-.246-.236 2.813 2.813 0 0 0-.523-.233 2.071 2.071 0 0 1-.577-.278.412.412 0 0 1-.147-.332.33.33 0 0 1 .19-.3 1.052 1.052 0 0 1 .516-.108 1.907 1.907 0 0 1 .724.162l.091-.221a2.114 2.114 0 0 0-.815-.161 1.222 1.222 0 0 0-.7.174.545.545 0 0 0-.25.472.6.6 0 0 0 .081.319.793.793 0 0 0 .243.234 3.036 3.036 0 0 0 .56.247 1.76 1.76 0 0 1 .533.269.425.425 0 0 1 .163.337.4.4 0 0 1-.2.348 1.124 1.124 0 0 1-.6.131 1.869 1.869 0 0 1-.845-.2zm-1.665-2.329a1.09 1.09 0 0 0-.864.363 1.5 1.5 0 0 0-.315 1.012 1.765 1.765 0 0 0 .141.727 1.085 1.085 0 0 0 .408.483 1.133 1.133 0 0 0 .615.168 1.1 1.1 0 0 0 .869-.365 1.512 1.512 0 0 0 .315-1.014 1.517 1.517 0 0 0-.311-1.007 1.07 1.07 0 0 0-.858-.367zm-6.843-.59l-.122.6-.393.11v.142h.393v1.713a.875.875 0 0 0 .167.59.66.66 0 0 0 .518.188 1.264 1.264 0 0 0 .406-.059v-.2a1.826 1.826 0 0 1-.4.04.394.394 0 0 1-.337-.147.778.778 0 0 1-.107-.452v-1.673h.779v-.211h-.779V23.7zm-2.7 2.92v.262a1.851 1.851 0 0 0 .845.163 1.327 1.327 0 0 0 .77-.192.635.635 0 0 0 .271-.548.58.58 0 0 0-.082-.31.77.77 0 0 0-.246-.236 2.842 2.842 0 0 0-.522-.233 2.069 2.069 0 0 1-.578-.278.412.412 0 0 1-.148-.332.329.329 0 0 1 .191-.3 1.049 1.049 0 0 1 .515-.108 1.918 1.918 0 0 1 .726.162l.09-.221a2.112 2.112 0 0 0-.815-.161 1.222 1.222 0 0 0-.7.174.545.545 0 0 0-.25.472.588.588 0 0 0 .082.319.777.777 0 0 0 .242.234 3.053 3.053 0 0 0 .56.247 1.768 1.768 0 0 1 .533.269.423.423 0 0 1 .163.337.4.4 0 0 1-.2.348 1.125 1.125 0 0 1-.6.131 1.869 1.869 0 0 1-.845-.2zm-16.211 0v.262a1.85 1.85 0 0 0 .845.163 1.322 1.322 0 0 0 .769-.192.633.633 0 0 0 .271-.548.578.578 0 0 0-.081-.31.767.767 0 0 0-.246-.236 2.813 2.813 0 0 0-.523-.233 2.07 2.07 0 0 1-.577-.278.412.412 0 0 1-.147-.332.33.33 0 0 1 .19-.3 1.05 1.05 0 0 1 .516-.108 1.907 1.907 0 0 1 .724.162l.091-.221a2.112 2.112 0 0 0-.815-.161 1.222 1.222 0 0 0-.7.174.545.545 0 0 0-.25.472.6.6 0 0 0 .081.319.789.789 0 0 0 .243.234 3.035 3.035 0 0 0 .56.247 1.762 1.762 0 0 1 .533.269.425.425 0 0 1 .163.337.4.4 0 0 1-.2.348 1.125 1.125 0 0 1-.6.131 1.869 1.869 0 0 1-.845-.2zm-4.758 0v.262a1.85 1.85 0 0 0 .845.163 1.322 1.322 0 0 0 .769-.192.633.633 0 0 0 .271-.548.58.58 0 0 0-.081-.31.77.77 0 0 0-.246-.236 2.813 2.813 0 0 0-.523-.233 2.07 2.07 0 0 1-.577-.278.412.412 0 0 1-.147-.332.33.33 0 0 1 .19-.3 1.05 1.05 0 0 1 .516-.108 1.907 1.907 0 0 1 .724.162l.091-.221a2.112 2.112 0 0 0-.815-.161 1.222 1.222 0 0 0-.7.174.545.545 0 0 0-.25.472.6.6 0 0 0 .081.319.787.787 0 0 0 .243.234 3.035 3.035 0 0 0 .56.247 1.762 1.762 0 0 1 .533.269.425.425 0 0 1 .163.337.4.4 0 0 1-.2.348 1.125 1.125 0 0 1-.6.131 1.869 1.869 0 0 1-.845-.2zm-8.808-.053c-.13 0-.2.08-.2.238s.066.239.2.239.2-.081.2-.239-.068-.239-.201-.239zm-2.72.053v.262a1.844 1.844 0 0 0 .845.163 1.326 1.326 0 0 0 .769-.192.633.633 0 0 0 .271-.548.575.575 0 0 0-.082-.31.761.761 0 0 0-.245-.236 2.884 2.884 0 0 0-.523-.233 2.07 2.07 0 0 1-.577-.278.41.41 0 0 1-.147-.332.33.33 0 0 1 .19-.3 1.048 1.048 0 0 1 .515-.108 1.909 1.909 0 0 1 .725.162l.091-.221a2.117 2.117 0 0 0-.816-.161 1.225 1.225 0 0 0-.7.174.546.546 0 0 0-.25.472.6.6 0 0 0 .082.319.793.793 0 0 0 .243.234 3 3 0 0 0 .559.247 1.755 1.755 0 0 1 .534.269.425.425 0 0 1 .162.337.4.4 0 0 1-.2.348 1.125 1.125 0 0 1-.6.131 1.869 1.869 0 0 1-.845-.2zm-1.5-2.329a1.038 1.038 0 0 0-.843.382 1.566 1.566 0 0 0-.312 1.017 1.441 1.441 0 0 0 .323 1 1.163 1.163 0 0 0 .9.356 2.331 2.331 0 0 0 .419-.035 1.942 1.942 0 0 0 .415-.133v-.22a2.44 2.44 0 0 1-.436.137 2.264 2.264 0 0 1-.4.031.9.9 0 0 1-.716-.288 1.26 1.26 0 0 1-.256-.835h1.912v-.2a1.355 1.355 0 0 0-.271-.888.915.915 0 0 0-.743-.325zm-5.989 2.276c-.13 0-.2.08-.2.238s.064.239.2.239.2-.081.2-.239-.071-.239-.204-.239zm-8.4-3.2a1.48 1.48 0 0 0-1.171.49 1.971 1.971 0 0 0-.428 1.341 2.01 2.01 0 0 0 .425 1.349 1.465 1.465 0 0 0 1.169.494 1.467 1.467 0 0 0 1.172-.494 2 2 0 0 0 .425-1.344 2.007 2.007 0 0 0-.422-1.345 1.465 1.465 0 0 0-1.175-.488zm46.684.971V27h.242v-1.465a1.179 1.179 0 0 1 .217-.727.673.673 0 0 1 .557-.288 1.407 1.407 0 0 1 .344.041l.047-.232a2.123 2.123 0 0 0-.362-.034.823.823 0 0 0-.449.119 1.148 1.148 0 0 0-.349.411h-.017l-.024-.479zm-1.13 0V27h.242v-2.654zm-.613-1.172a.7.7 0 0 0-.587.229 1.163 1.163 0 0 0-.179.716v.205l-.493.09v.142h.493V27h.241v-2.443h.625v-.211h-.625V24.1a.962.962 0 0 1 .119-.543.458.458 0 0 1 .4-.167 1.3 1.3 0 0 1 .388.061l.057-.211a1.563 1.563 0 0 0-.444-.066zm-6.194 1.34a.578.578 0 0 1 .464.179.87.87 0 0 1 .151.566V27h.24v-1.736a1.058 1.058 0 0 0-.218-.737.852.852 0 0 0-.652-.232 1.009 1.009 0 0 0-.5.122.9.9 0 0 0-.347.349h-.01a.766.766 0 0 0-.806-.472.938.938 0 0 0-.446.109.764.764 0 0 0-.312.307h-.014l-.051-.365h-.2V27h.242v-1.465a1.273 1.273 0 0 1 .19-.778.729.729 0 0 1 .608-.243c.408 0 .615.226.615.671V27h.247v-1.555a1.065 1.065 0 0 1 .2-.706.762.762 0 0 1 .594-.225zm-7.458-.168V27h.242v-2.654zm-4.758 0V27h.242v-2.654zm-1.789.168a.682.682 0 0 1 .522.183.841.841 0 0 1 .168.582V27h.24v-1.736c0-.643-.3-.969-.9-.969a1.315 1.315 0 0 0-.564.108.9.9 0 0 0-.376.346h-.017l.013-.339V23.2h-.242V27h.242v-1.465a1.141 1.141 0 0 1 .22-.779.911.911 0 0 1 .688-.242zm-4.2-1.084v.234h1.159V27h.252v-3.335h1.159v-.234zm-10.237 0l1.193 2.209V27h.257v-1.38l1.189-2.19h-.268l-1.045 1.953-1.04-1.953h-.286zm-3.845 1.084a.683.683 0 0 1 .523.183.841.841 0 0 1 .168.582V27h.24v-1.736c0-.643-.3-.969-.9-.969a1.321 1.321 0 0 0-.564.108.89.89 0 0 0-.375.346h-.017l.012-.339V23.2h-.241V27h.241v-1.465a1.135 1.135 0 0 1 .221-.779.906.906 0 0 1 .687-.242zm-2.949 0a.683.683 0 0 1 .523.183.842.842 0 0 1 .168.582V27h.239v-1.736c0-.643-.3-.969-.9-.969a1.312 1.312 0 0 0-.563.108.886.886 0 0 0-.376.346h-.017l.012-.339V23.2h-.241V27h.241v-1.465a1.137 1.137 0 0 1 .221-.779.907.907 0 0 1 .687-.242zm14.961-1.084l.07 2.649h.149l.07-2.649zm-10.213 0l.071 2.649h.149l.07-2.649zm37.415-.056c-.1 0-.154.079-.154.234s.052.237.154.237a.137.137 0 0 0 .119-.063.306.306 0 0 0 .042-.174.3.3 0 0 0-.042-.174.138.138 0 0 0-.125-.056zm-14.265 0c-.1 0-.154.079-.154.234s.052.237.154.237a.137.137 0 0 0 .119-.063.313.313 0 0 0 .042-.174.309.309 0 0 0-.042-.174.138.138 0 0 0-.124-.056zm-4.758 0c-.1 0-.154.079-.154.234s.052.237.154.237a.137.137 0 0 0 .119-.063.313.313 0 0 0 .042-.174.309.309 0 0 0-.042-.174.138.138 0 0 0-.125-.056zm41.155-7.08a.957.957 0 0 0-.683.241.844.844 0 0 0-.252.638.865.865 0 0 0 .129.468.763.763 0 0 0 .362.3.568.568 0 0 0-.339.469.343.343 0 0 0 .072.216.467.467 0 0 0 .192.145.886.886 0 0 0-.461.247.642.642 0 0 0-.169.455.62.62 0 0 0 .275.536 1.342 1.342 0 0 0 .775.194 1.749 1.749 0 0 0 .971-.229.738.738 0 0 0 .34-.648.611.611 0 0 0-.229-.517 1.084 1.084 0 0 0-.662-.175h-.463a.646.646 0 0 1-.324-.059.2.2 0 0 1-.1-.185.356.356 0 0 1 .076-.217.648.648 0 0 1 .219-.179 1.477 1.477 0 0 0 .254.015.966.966 0 0 0 .685-.239.813.813 0 0 0 .256-.621.944.944 0 0 0-.219-.6l.549-.034v-.169h-.85a1.263 1.263 0 0 0-.41-.048zm-36.511 0a.956.956 0 0 0-.683.241.844.844 0 0 0-.252.638.866.866 0 0 0 .129.468.763.763 0 0 0 .362.3.569.569 0 0 0-.339.469.344.344 0 0 0 .072.216.469.469 0 0 0 .192.145.886.886 0 0 0-.461.247.643.643 0 0 0-.169.455.62.62 0 0 0 .275.536 1.342 1.342 0 0 0 .775.194 1.749 1.749 0 0 0 .971-.229.738.738 0 0 0 .34-.648.611.611 0 0 0-.229-.517 1.084 1.084 0 0 0-.662-.175h-.463a.645.645 0 0 1-.324-.059.2.2 0 0 1-.1-.185.356.356 0 0 1 .076-.217.649.649 0 0 1 .219-.179 1.477 1.477 0 0 0 .254.015.965.965 0 0 0 .685-.239.813.813 0 0 0 .256-.621.944.944 0 0 0-.219-.6l.549-.034v-.169h-.85a1.261 1.261 0 0 0-.41-.048zm48.324 0a1.037 1.037 0 0 0-.842.382 1.566 1.566 0 0 0-.312 1.017 1.437 1.437 0 0 0 .324 1 1.159 1.159 0 0 0 .9.356 2.328 2.328 0 0 0 .419-.035 1.893 1.893 0 0 0 .416-.133v-.22a2.48 2.48 0 0 1-.437.137 2.264 2.264 0 0 1-.4.031.9.9 0 0 1-.716-.288 1.26 1.26 0 0 1-.256-.835h1.912v-.2a1.354 1.354 0 0 0-.271-.888.915.915 0 0 0-.742-.32zm-2.543-.59l-.122.6-.393.11v.142h.393v1.717a.874.874 0 0 0 .167.59.661.661 0 0 0 .518.188 1.265 1.265 0 0 0 .406-.059v-.2a1.822 1.822 0 0 1-.4.04.394.394 0 0 1-.337-.147.775.775 0 0 1-.107-.452v-1.674h.779v-.211h-.779V15.7zm-1.87.806a.6.6 0 0 1 .495.193.907.907 0 0 1 .154.572v.176l-.5.014a1.77 1.77 0 0 0-.937.227.687.687 0 0 0-.323.6.718.718 0 0 0 .217.554.869.869 0 0 0 .608.2 1.1 1.1 0 0 0 .5-.106 1.277 1.277 0 0 0 .411-.362h.019l.061.419h.178v-1.759a1 1 0 0 0-.216-.708.865.865 0 0 0-.652-.227 2.032 2.032 0 0 0-.865.205l.091.21a1.665 1.665 0 0 1 .753-.205zm-2.654-.215a1.038 1.038 0 0 0-.843.382 1.567 1.567 0 0 0-.312 1.017 1.441 1.441 0 0 0 .323 1 1.163 1.163 0 0 0 .9.356 2.331 2.331 0 0 0 .419-.035 1.9 1.9 0 0 0 .415-.133v-.22a2.438 2.438 0 0 1-.436.137 2.264 2.264 0 0 1-.4.031.9.9 0 0 1-.716-.288 1.26 1.26 0 0 1-.256-.835h1.912v-.2a1.355 1.355 0 0 0-.271-.888.915.915 0 0 0-.741-.321zm-8.865 0a1.007 1.007 0 0 0-.837.365 1.669 1.669 0 0 0-.288 1.052 1.506 1.506 0 0 0 .291 1 1.044 1.044 0 0 0 .84.341.985.985 0 0 0 .868-.454h.02l.061.405h.158V15.2h-.24v.955c0 .192.005.395.015.6h-.015a.989.989 0 0 0-.375-.359 1.107 1.107 0 0 0-.504-.101zm-5.659.215a.6.6 0 0 1 .5.193.908.908 0 0 1 .154.572v.176l-.506.014a1.768 1.768 0 0 0-.936.227.687.687 0 0 0-.323.6.718.718 0 0 0 .217.554.869.869 0 0 0 .608.2 1.1 1.1 0 0 0 .5-.106 1.256 1.256 0 0 0 .411-.362h.02l.061.419h.178v-1.759a1 1 0 0 0-.216-.708.867.867 0 0 0-.654-.227 2.032 2.032 0 0 0-.864.205l.09.21a1.665 1.665 0 0 1 .754-.205zm-3.952-.215a1.035 1.035 0 0 0-.843.382 1.562 1.562 0 0 0-.313 1.017 1.436 1.436 0 0 0 .324 1 1.159 1.159 0 0 0 .9.356 2.336 2.336 0 0 0 .42-.035 1.9 1.9 0 0 0 .415-.133v-.22a2.461 2.461 0 0 1-.436.137 2.286 2.286 0 0 1-.4.031.9.9 0 0 1-.716-.288 1.259 1.259 0 0 1-.255-.835h1.909v-.2a1.354 1.354 0 0 0-.272-.888.911.911 0 0 0-.739-.321zm-7.32 0a1.09 1.09 0 0 0-.864.363 1.5 1.5 0 0 0-.315 1.013 1.764 1.764 0 0 0 .141.727 1.088 1.088 0 0 0 .408.483 1.129 1.129 0 0 0 .615.168 1.091 1.091 0 0 0 .869-.365 1.509 1.509 0 0 0 .315-1.014 1.513 1.513 0 0 0-.312-1.007 1.067 1.067 0 0 0-.863-.365zm-3.594 2.329v.262a1.843 1.843 0 0 0 .844.163 1.327 1.327 0 0 0 .77-.192.633.633 0 0 0 .271-.548.566.566 0 0 0-.082-.31.748.748 0 0 0-.244-.236 2.9 2.9 0 0 0-.523-.233 2.071 2.071 0 0 1-.577-.278.413.413 0 0 1-.148-.332.332.332 0 0 1 .191-.3 1.052 1.052 0 0 1 .515-.107 1.906 1.906 0 0 1 .725.161l.09-.22a2.091 2.091 0 0 0-.815-.162 1.222 1.222 0 0 0-.7.174.547.547 0 0 0-.25.472.6.6 0 0 0 .082.319.779.779 0 0 0 .243.234 3 3 0 0 0 .559.247 1.761 1.761 0 0 1 .534.269.425.425 0 0 1 .162.337.4.4 0 0 1-.2.348 1.127 1.127 0 0 1-.6.13 1.863 1.863 0 0 1-.844-.2zm-1.5-2.329a1.035 1.035 0 0 0-.842.382 1.565 1.565 0 0 0-.312 1.017 1.44 1.44 0 0 0 .323 1 1.163 1.163 0 0 0 .9.356 2.331 2.331 0 0 0 .419-.035 1.9 1.9 0 0 0 .415-.133v-.22a2.448 2.448 0 0 1-.436.137 2.264 2.264 0 0 1-.4.031.9.9 0 0 1-.717-.288 1.258 1.258 0 0 1-.255-.835h1.912v-.2a1.354 1.354 0 0 0-.271-.888.915.915 0 0 0-.745-.321zm-6.355.215a.6.6 0 0 1 .495.193.906.906 0 0 1 .154.572v.176l-.5.014a1.764 1.764 0 0 0-.936.227.686.686 0 0 0-.324.6.718.718 0 0 0 .218.554.865.865 0 0 0 .607.2 1.105 1.105 0 0 0 .5-.106 1.275 1.275 0 0 0 .411-.362h.02l.06.419h.178v-1.759a1 1 0 0 0-.216-.708.865.865 0 0 0-.653-.227 2.032 2.032 0 0 0-.865.205l.091.21a1.665 1.665 0 0 1 .751-.205zm-13.4-.806l-.122.6-.393.11v.142h.393v1.717a.875.875 0 0 0 .167.59.658.658 0 0 0 .518.188 1.271 1.271 0 0 0 .405-.059v-.2a1.808 1.808 0 0 1-.4.04.393.393 0 0 1-.337-.147.778.778 0 0 1-.107-.452v-1.674h.779v-.211h-.779V15.7zm-1.875.59a1.038 1.038 0 0 0-.843.382 1.566 1.566 0 0 0-.312 1.017 1.441 1.441 0 0 0 .323 1 1.163 1.163 0 0 0 .9.356 2.331 2.331 0 0 0 .419-.035 1.9 1.9 0 0 0 .415-.133v-.22a2.44 2.44 0 0 1-.436.137 2.264 2.264 0 0 1-.4.031.9.9 0 0 1-.716-.288 1.26 1.26 0 0 1-.256-.835h1.912v-.2a1.355 1.355 0 0 0-.271-.888.915.915 0 0 0-.74-.32zm-7.32 0a1.089 1.089 0 0 0-.864.363 1.5 1.5 0 0 0-.315 1.013 1.761 1.761 0 0 0 .142.727 1.081 1.081 0 0 0 .408.483 1.127 1.127 0 0 0 .615.168 1.093 1.093 0 0 0 .87-.365 1.513 1.513 0 0 0 .315-1.014 1.517 1.517 0 0 0-.312-1.007 1.071 1.071 0 0 0-.864-.364zm-3.594 2.329v.262a1.849 1.849 0 0 0 .845.163 1.321 1.321 0 0 0 .769-.192.633.633 0 0 0 .272-.548.586.586 0 0 0-.082-.31.774.774 0 0 0-.246-.236 2.832 2.832 0 0 0-.522-.233 2.069 2.069 0 0 1-.578-.278.415.415 0 0 1-.148-.332.332.332 0 0 1 .19-.3 1.045 1.045 0 0 1 .516-.107 1.9 1.9 0 0 1 .724.161l.091-.22a2.1 2.1 0 0 0-.815-.162 1.222 1.222 0 0 0-.7.174.545.545 0 0 0-.25.472.6.6 0 0 0 .081.319.793.793 0 0 0 .243.234 3.035 3.035 0 0 0 .56.247 1.763 1.763 0 0 1 .533.269.425.425 0 0 1 .163.337.4.4 0 0 1-.2.348 1.124 1.124 0 0 1-.6.13 1.869 1.869 0 0 1-.845-.2zm-2.6-2.92l-.122.6-.393.11v.142h.393v1.718a.875.875 0 0 0 .167.59.66.66 0 0 0 .518.188 1.264 1.264 0 0 0 .406-.059v-.2a1.826 1.826 0 0 1-.4.04.394.394 0 0 1-.337-.147.776.776 0 0 1-.107-.452v-1.674h.779v-.211h-.779V15.7zm-4.366.59a1.034 1.034 0 0 0-.842.382 1.562 1.562 0 0 0-.313 1.017 1.437 1.437 0 0 0 .324 1 1.16 1.16 0 0 0 .9.356 2.331 2.331 0 0 0 .42-.035 1.9 1.9 0 0 0 .415-.133v-.22a2.5 2.5 0 0 1-.436.137 2.286 2.286 0 0 1-.4.031.9.9 0 0 1-.717-.288 1.264 1.264 0 0 1-.256-.835h1.912v-.2a1.354 1.354 0 0 0-.271-.888.912.912 0 0 0-.743-.319zm67.454.051V19h.241v-1.464a1.182 1.182 0 0 1 .218-.728.672.672 0 0 1 .556-.288 1.414 1.414 0 0 1 .345.041l.046-.232a2.093 2.093 0 0 0-.361-.034.817.817 0 0 0-.449.119 1.129 1.129 0 0 0-.349.411h-.017l-.024-.479zm-8.68.169a.684.684 0 0 1 .523.182.841.841 0 0 1 .168.582V19h.24v-1.736c0-.643-.3-.969-.9-.969a1 1 0 0 0-.921.416h-.014l-.046-.365h-.205V19h.241v-1.464a1.137 1.137 0 0 1 .221-.78.906.906 0 0 1 .687-.241zm-9.565 0a.576.576 0 0 1 .463.178.868.868 0 0 1 .152.566V19h.239v-1.736a1.059 1.059 0 0 0-.217-.737.855.855 0 0 0-.652-.232 1.009 1.009 0 0 0-.5.122.913.913 0 0 0-.348.349h-.01a.766.766 0 0 0-.806-.472.938.938 0 0 0-.446.109.764.764 0 0 0-.312.307h-.015l-.051-.365h-.2V19h.241v-1.464a1.268 1.268 0 0 1 .191-.778.728.728 0 0 1 .607-.243c.409 0 .616.226.616.671V19h.247v-1.555a1.064 1.064 0 0 1 .2-.706.763.763 0 0 1 .595-.224zm-12.937.18h.014c.057.229.105.407.144.53l.582 1.775h.254l.72-2.654h-.244l-.406 1.524c-.116.457-.182.743-.2.85h-.014c-.027-.129-.1-.384-.215-.759l-.52-1.615h-.219l-.546 1.619c-.045.127-.114.376-.211.76h-.014c-.031-.18-.1-.462-.2-.841l-.425-1.538h-.258l.759 2.654h.24l.591-1.77.11-.354.051-.18zm-9.735-.18a.684.684 0 0 1 .523.182.844.844 0 0 1 .168.582V19h.239v-1.736c0-.643-.3-.969-.9-.969a1 1 0 0 0-.921.416h-.014l-.047-.365h-.2V19h.241v-1.464a1.138 1.138 0 0 1 .221-.78.906.906 0 0 1 .682-.241zm-2.29-.169V19h.241v-2.654zm-1.79.169a.684.684 0 0 1 .523.182.841.841 0 0 1 .168.582V19h.24v-1.736c0-.643-.3-.969-.9-.969a1.321 1.321 0 0 0-.564.108.887.887 0 0 0-.375.347h-.017l.012-.339V15.2h-.241V19h.241v-1.464a1.137 1.137 0 0 1 .221-.78.906.906 0 0 1 .687-.241zm-7.292 0a.576.576 0 0 1 .463.178.869.869 0 0 1 .151.566V19h.239v-1.736a1.062 1.062 0 0 0-.217-.737.856.856 0 0 0-.653-.232 1.009 1.009 0 0 0-.5.122.9.9 0 0 0-.347.349h-.01a.766.766 0 0 0-.806-.472.94.94 0 0 0-.447.109.765.765 0 0 0-.312.307h-.014l-.051-.365h-.2V19h.242v-1.464a1.269 1.269 0 0 1 .19-.778.731.731 0 0 1 .608-.243c.408 0 .615.226.615.671V19h.247v-1.555a1.068 1.068 0 0 1 .2-.706.764.764 0 0 1 .597-.224zm-12.627 1.3l.833 1.183h.281l-.977-1.364.911-1.29h-.266l-.783 1.119-.791-1.119h-.279l.926 1.29-.964 1.371h.265l.84-1.183zm-6.58-2.385v.235h1.159V19h.252v-3.335h1.159v-.235zm28.409-.056c-.1 0-.154.079-.154.234s.052.237.154.237a.134.134 0 0 0 .118-.063.307.307 0 0 0 .043-.174.3.3 0 0 0-.043-.173.135.135 0 0 0-.123-.055zm-1.6-9.742a1.953 1.953 0 0 0-.956.229 1.569 1.569 0 0 0-.64.651 2.039 2.039 0 0 0-.223.966 1.9 1.9 0 0 0 .451 1.352 1.7 1.7 0 0 0 1.3.477 2.969 2.969 0 0 0 1.165-.22V7.459h-1.317v.234h1.062v1.255a2.246 2.246 0 0 1-.837.139 1.541 1.541 0 0 1-1.155-.407 1.688 1.688 0 0 1-.393-1.212 1.644 1.644 0 0 1 .414-1.175 1.478 1.478 0 0 1 1.12-.436 2.281 2.281 0 0 1 .962.215l.1-.225a2.483 2.483 0 0 0-1.058-.215zm-22.2 0a1.485 1.485 0 0 0-1.171.49 1.98 1.98 0 0 0-.428 1.342 2.013 2.013 0 0 0 .425 1.349 1.468 1.468 0 0 0 1.17.494 1.473 1.473 0 0 0 1.172-.494 2.007 2.007 0 0 0 .425-1.345 2.007 2.007 0 0 0-.422-1.344 1.467 1.467 0 0 0-1.171-.487zm-4.368 3.281v.249a2.744 2.744 0 0 0 1 .144 1.374 1.374 0 0 0 .873-.261.862.862 0 0 0 .328-.708.845.845 0 0 0-.1-.416.905.905 0 0 0-.307-.308 2.993 2.993 0 0 0-.627-.28 3.285 3.285 0 0 1-.562-.243.66.66 0 0 1-.236-.228.658.658 0 0 1-.072-.325.6.6 0 0 1 .234-.5 1 1 0 0 1 .631-.183 2.228 2.228 0 0 1 .85.185l.09-.215a2.374 2.374 0 0 0-.945-.19 1.246 1.246 0 0 0-.806.253.8.8 0 0 0-.314.653.812.812 0 0 0 .209.582 1.946 1.946 0 0 0 .755.407 3.522 3.522 0 0 1 .567.237.771.771 0 0 1 .278.243.619.619 0 0 1 .085.336.642.642 0 0 1-.258.528 1.109 1.109 0 0 1-.7.2 2.549 2.549 0 0 1-.984-.164zm38.913-3.225v3.575h1.951v-.229h-1.7V7.5h1.607v-.232h-1.607v-1.35h1.7v-.23zm-2.566 0v3.575h1.951v-.235h-1.7V5.689zm-3.1 0v.234h1.16v3.341h.251V5.923h1.16v-.234zm-.779 0v3.575h.249V5.689zm-3.1 0v.234h1.159v3.341h.252V5.923h1.159v-.234zm-7.83.4h.02l2.114 3.169h.252V5.689h-.242v2.329c0 .279.008.56.022.834h-.015l-2.111-3.164h-.249v3.57h.239V6.944c0-.194-.01-.481-.03-.853zm-1.47-.4v3.575h.249V5.689zm-3.347 1.814h2.085v1.761h.251V5.689h-.251v1.584h-2.085V5.689h-.248v3.569h.248V7.5zm-3.35-1.814v.234h1.16v3.341h.251V5.923h1.16v-.234zm-2.277 0v3.575h1.95v-.229h-1.7V7.5h1.606v-.232h-1.606v-1.35h1.7v-.23zm-1.252.277h.021c-.019.2-.029.395-.029.586v2.712h.251V5.689h-.376l-1.264 3.139h-.014l-1.264-3.139h-.386v3.569h.24V6.583c0-.221-.007-.429-.02-.62h.02l1.331 3.3h.158l1.335-3.29zm46.864 20.868a.814.814 0 0 1-.679-.266 1.468 1.468 0 0 1-.209-.889V25.6a1.285 1.285 0 0 1 .217-.832.851.851 0 0 1 .681-.256c.561 0 .845.394.845 1.17a1.4 1.4 0 0 1-.224.847.741.741 0 0 1-.63.305zm2.867-.005a.82.82 0 0 1-.68-.306 1.355 1.355 0 0 1-.24-.853 1.35 1.35 0 0 1 .239-.853.814.814 0 0 1 .677-.3.83.83 0 0 1 .683.3 1.339 1.339 0 0 1 .243.852 1.351 1.351 0 0 1-.241.853.817.817 0 0 1-.68.313zm-57.935-.014a1.2 1.2 0 0 1-.981-.418 1.841 1.841 0 0 1-.342-1.185 1.806 1.806 0 0 1 .345-1.18 1.211 1.211 0 0 1 .983-.415 1.208 1.208 0 0 1 .98.411 1.822 1.822 0 0 1 .34 1.184 1.842 1.842 0 0 1-.34 1.189 1.209 1.209 0 0 1-.984.42zm15.149-1.323h-1.641a1.2 1.2 0 0 1 .271-.729.8.8 0 0 1 .616-.253.665.665 0 0 1 .554.26 1.167 1.167 0 0 1 .2.721zm52.581-5.5c-.539 0-.813-.184-.813-.547 0-.38.246-.573.73-.573h.435a1 1 0 0 1 .529.107.386.386 0 0 1 .164.346c0 .453-.351.681-1.045.681zm-36.511 0c-.539 0-.813-.184-.813-.547 0-.38.246-.573.73-.573h.435a1 1 0 0 1 .529.107.38.38 0 0 1 .164.346c0 .453-.351.681-1.045.681zm32.478-1.162c-.582 0-.877-.38-.877-1.129a1.516 1.516 0 0 1 .219-.886.754.754 0 0 1 .653-.305.791.791 0 0 1 .668.269 1.486 1.486 0 0 1 .206.886v.041a1.389 1.389 0 0 1-.21.861.8.8 0 0 1-.659.273zm11.237-.005a.624.624 0 0 1-.431-.138.5.5 0 0 1-.152-.387.5.5 0 0 1 .238-.46 1.762 1.762 0 0 1 .8-.175l.464-.02v.261a.91.91 0 0 1-.245.675.915.915 0 0 1-.673.254zm-17.177 0a.623.623 0 0 1-.431-.138.5.5 0 0 1-.153-.387.5.5 0 0 1 .239-.46 1.73 1.73 0 0 1 .8-.175l.464-.02v.261a.91.91 0 0 1-.246.675.911.911 0 0 1-.672.254zm-11 0a.817.817 0 0 1-.68-.306 1.358 1.358 0 0 1-.24-.853 1.354 1.354 0 0 1 .238-.853.817.817 0 0 1 .678-.3.829.829 0 0 1 .682.3 1.335 1.335 0 0 1 .243.852 1.358 1.358 0 0 1-.24.853.817.817 0 0 1-.681.317zm-11.724 0a.628.628 0 0 1-.431-.138.5.5 0 0 1-.152-.387.5.5 0 0 1 .238-.46 1.76 1.76 0 0 1 .8-.175l.464-.02v.261a.91.91 0 0 1-.246.675.915.915 0 0 1-.674.254zm-22.319 0a.817.817 0 0 1-.679-.306 1.351 1.351 0 0 1-.241-.853 1.35 1.35 0 0 1 .239-.853.815.815 0 0 1 .678-.3.829.829 0 0 1 .682.3 1.336 1.336 0 0 1 .243.852 1.351 1.351 0 0 1-.241.853.817.817 0 0 1-.682.317zm55.093-1.008a.719.719 0 0 1-.5-.17.614.614 0 0 1-.186-.477.688.688 0 0 1 .182-.507.678.678 0 0 1 .5-.182.717.717 0 0 1 .509.17.663.663 0 0 1 .182.508.647.647 0 0 1-.176.489.716.716 0 0 1-.512.179zm-36.511 0a.718.718 0 0 1-.5-.17.613.613 0 0 1-.187-.477.688.688 0 0 1 .182-.507.678.678 0 0 1 .5-.182.72.72 0 0 1 .509.17.663.663 0 0 1 .182.508.647.647 0 0 1-.176.489.716.716 0 0 1-.514.179zm49.084-.329h-1.64a1.19 1.19 0 0 1 .271-.729.8.8 0 0 1 .615-.253.662.662 0 0 1 .554.26 1.166 1.166 0 0 1 .2.721zm-7.068 0h-1.641a1.2 1.2 0 0 1 .271-.729.8.8 0 0 1 .616-.253.665.665 0 0 1 .554.26 1.167 1.167 0 0 1 .2.721zm-18.476 0h-1.641a1.2 1.2 0 0 1 .271-.729.8.8 0 0 1 .616-.253.661.661 0 0 1 .553.26 1.161 1.161 0 0 1 .2.721zm-12.417 0h-1.641a1.2 1.2 0 0 1 .271-.729.8.8 0 0 1 .615-.253.664.664 0 0 1 .554.26 1.165 1.165 0 0 1 .2.721zm-21.626 0h-1.641a1.2 1.2 0 0 1 .271-.729.8.8 0 0 1 .616-.253.664.664 0 0 1 .554.26 1.167 1.167 0 0 1 .2.721zm-17.88 0h-1.641a1.2 1.2 0 0 1 .271-.729.8.8 0 0 1 .615-.253.661.661 0 0 1 .554.26 1.159 1.159 0 0 1 .2.721zm-.185-8.419a1.2 1.2 0 0 1-.982-.419 1.833 1.833 0 0 1-.342-1.185 1.8 1.8 0 0 1 .346-1.179 1.213 1.213 0 0 1 .983-.415 1.206 1.206 0 0 1 .98.411 1.818 1.818 0 0 1 .341 1.183 1.836 1.836 0 0 1-.341 1.189 1.2 1.2 0 0 1-.987.425z"
            class="cls-3" data-name="Вычитание 16" transform="translate(3108 730)"/>
    </g>
  </g>
</svg>
